<svg width="256" height="172" viewBox="0 0 256 172" fill="none" xmlns="http://www.w3.org/2000/svg">
<path d="M243.76 168.29C242.93 168.29 242.93 168.23 242.09 168.23C241.25 168.23 241.26 168.44 240.42 168.44C239.58 168.44 239.59 168.5 238.75 168.5C237.91 168.5 237.91 168.1 237.08 168.1C236.25 168.1 236.24 168.2 235.41 168.2C234.58 168.2 234.57 168.35 233.74 168.35C232.91 168.35 232.9 168.03 232.07 168.03C231.23 168.03 231.23 168.07 230.4 168.07C229.57 168.07 229.56 168.47 228.73 168.47C227.9 168.47 227.9 168.5 227.06 168.5C226.22 168.5 226.23 168.33 225.39 168.33C224.55 168.33 224.56 168.14 223.72 168.14C222.88 168.14 222.89 168.24 222.05 168.24C221.22 168.24 221.22 168.4 220.38 168.4C219.54 168.4 219.55 168.4 218.71 168.4C217.87 168.4 217.88 168.4 217.04 168.4C216.2 168.4 216.21 168.48 215.37 168.48C214.53 168.48 214.54 168.34 213.7 168.34C212.86 168.34 212.87 168.54 212.03 168.54C211.19 168.54 211.2 168.25 210.36 168.25C209.52 168.25 209.52 168.17 208.69 168.17C207.85 168.17 207.85 168.48 207.02 168.48C206.19 168.48 206.18 168.3 205.35 168.3C204.52 168.3 204.51 168.09 203.68 168.09C202.85 168.09 202.84 168.45 202.01 168.45C201.18 168.45 201.17 168.18 200.34 168.18C199.51 168.18 199.5 168.43 198.67 168.43C197.83 168.43 197.83 168.33 197 168.33C196.17 168.33 196.17 168.42 195.33 168.42C194.5 168.42 194.5 168.55 193.66 168.55C192.82 168.55 192.83 168.29 191.99 168.29C191.15 168.29 191.16 168.42 190.32 168.42C189.48 168.42 189.49 168.22 188.65 168.22C187.82 168.22 187.82 168.54 186.98 168.54C186.14 168.54 186.15 168.34 185.31 168.34C184.47 168.34 184.48 168.08 183.64 168.08C182.81 168.08 182.81 168.1 181.97 168.1C181.13 168.1 181.14 168.36 180.3 168.36C179.46 168.36 179.47 168.08 178.63 168.08C177.79 168.08 177.8 168.45 176.96 168.45C176.12 168.45 176.13 168.45 175.29 168.45C174.46 168.45 174.46 168.52 173.62 168.52C172.78 168.52 172.79 168.05 171.95 168.05C171.11 168.05 171.12 168.34 170.28 168.34C169.44 168.34 169.45 168.1 168.61 168.1C167.77 168.1 167.78 168.44 166.94 168.44C166.1 168.44 166.11 168.41 165.27 168.41C164.43 168.41 164.44 168.28 163.6 168.28C162.76 168.28 162.76 168.45 161.93 168.45C161.1 168.45 161.09 168.33 160.26 168.33C159.43 168.33 159.42 168.09 158.59 168.09C157.76 168.09 157.75 168.15 156.92 168.15C156.08 168.15 156.08 168.1 155.25 168.1C154.42 168.1 154.42 168.27 153.58 168.27C152.75 168.27 152.75 168.45 151.91 168.45C151.07 168.45 151.08 168.45 150.24 168.45C149.4 168.45 149.41 168.04 148.57 168.04C147.73 168.04 147.74 168.21 146.9 168.21C146.06 168.21 146.07 168.19 145.23 168.19C144.39 168.19 144.4 168.1 143.56 168.1C142.72 168.1 142.73 168.21 141.89 168.21C141.05 168.21 141.06 168.34 140.22 168.34C139.38 168.34 139.39 168.22 138.55 168.22C137.71 168.22 137.72 168.28 136.88 168.28C136.04 168.28 136.05 168.41 135.21 168.41C134.37 168.41 134.38 168.07 133.54 168.07C132.7 168.07 132.7 168.29 131.87 168.29C131.04 168.29 131.03 168.13 130.2 168.13C129.37 168.13 129.36 168.23 128.53 168.23C127.7 168.23 127.69 168.49 126.86 168.49C126.03 168.49 126.02 168.18 125.19 168.18C124.36 168.18 124.35 168.52 123.52 168.52C122.69 168.52 122.68 168.22 121.85 168.22C121.02 168.22 121.02 168.09 120.18 168.09C119.34 168.09 119.35 168.12 118.51 168.12C117.67 168.12 117.68 168.51 116.84 168.51C116 168.51 116.01 168.37 115.17 168.37C114.33 168.37 114.34 168.13 113.5 168.13C112.66 168.13 112.66 168.32 111.83 168.32C111 168.32 110.99 168.26 110.16 168.26C109.33 168.26 109.32 168.05 108.49 168.05C107.66 168.05 107.65 168.45 106.82 168.45C105.99 168.45 105.98 168.29 105.15 168.29C104.32 168.29 104.31 168.15 103.48 168.15C102.65 168.15 102.64 168.08 101.81 168.08C100.98 168.08 100.97 168.11 100.14 168.11C99.3098 168.11 99.2998 168.27 98.4698 168.27C97.6398 168.27 97.6298 168.13 96.7998 168.13C95.9698 168.13 95.9598 168.53 95.1298 168.53C94.2998 168.53 94.2898 168.51 93.4598 168.51C92.6298 168.51 92.6198 168.49 91.7898 168.49C90.9598 168.49 90.9498 168.28 90.1198 168.28C89.2798 168.28 89.2798 168.45 88.4498 168.45C87.6198 168.45 87.6098 168.12 86.7798 168.12C85.9498 168.12 85.9398 168.08 85.1098 168.08C84.2798 168.08 84.2698 168.45 83.4398 168.45C82.5998 168.45 82.5998 168.08 81.7698 168.08C80.9398 168.08 80.9298 168.29 80.0998 168.29C79.2698 168.29 79.2598 168.29 78.4298 168.29C77.5998 168.29 77.5898 168.47 76.7598 168.47C75.9298 168.47 75.9198 168.24 75.0898 168.24C74.2598 168.24 74.2498 168.27 73.4198 168.27C72.5898 168.27 72.5798 168.48 71.7498 168.48C70.9198 168.48 70.9098 168.51 70.0798 168.51C69.2498 168.51 69.2398 168.07 68.4098 168.07C67.5798 168.07 67.5698 168.14 66.7398 168.14C65.9098 168.14 65.8998 168.39 65.0698 168.39C64.2398 168.39 64.2298 168.29 63.3998 168.29C62.5698 168.29 62.5598 168.24 61.7298 168.24C60.8998 168.24 60.8898 168.45 60.0598 168.45C59.2298 168.45 59.2198 168.23 58.3898 168.23C57.5598 168.23 57.5498 168.33 56.7198 168.33C55.8898 168.33 55.8898 168.16 55.0498 168.16C54.2098 168.16 54.2198 168.42 53.3798 168.42C52.5398 168.42 52.5398 168.04 51.7098 168.04C50.8798 168.04 50.8698 168.5 50.0398 168.5C49.2098 168.5 49.1998 168.5 48.3598 168.5C47.5198 168.5 47.5198 168.11 46.6898 168.11C45.8598 168.11 45.8498 168.49 45.0198 168.49C44.1898 168.49 44.1798 168.07 43.3498 168.07C42.5198 168.07 42.5098 168.13 41.6698 168.13C40.8298 168.13 40.8298 168.3 39.9998 168.3C39.1698 168.3 39.1598 168.45 38.3298 168.45C37.4998 168.45 37.4898 168.39 36.6598 168.39C35.8298 168.39 35.8198 168.42 34.9798 168.42C34.1398 168.42 34.1398 168.33 33.3098 168.33C32.4798 168.33 32.4698 168.39 31.6298 168.39C30.7898 168.39 30.7898 168.43 29.9498 168.43C29.1098 168.43 29.1098 168.36 28.2698 168.36C27.4298 168.36 27.4298 168.49 26.5998 168.49C25.7698 168.49 25.7598 168.31 24.9298 168.31C24.0998 168.31 24.0898 168.5 23.2498 168.5C22.4098 168.5 22.4098 168.4 21.5698 168.4C20.7298 168.4 20.7298 168.05 19.8898 168.05C19.0498 168.05 19.0498 168.43 18.2098 168.43C17.3698 168.43 17.3698 168.17 16.5298 168.17C15.6898 168.17 15.6898 168.24 14.8498 168.24C14.0098 168.24 14.0098 168.27 13.1698 168.27C12.3298 168.27 12.3298 168.36 11.4898 168.36C10.9298 168.36 10.3998 168.14 9.86982 168.03C9.33982 167.92 8.81982 167.77 8.31982 167.56C7.81982 167.35 7.22982 167.26 6.77982 166.95C6.32982 166.64 6.02982 166.13 5.64982 165.74C5.26982 165.35 4.96982 164.91 4.65982 164.46C4.34982 164.01 3.97982 163.61 3.75982 163.1C3.53982 162.59 3.40982 162.07 3.30982 161.53C3.20982 160.99 2.91982 160.46 2.91982 159.9C2.91982 159.06 2.99982 159.06 2.99982 158.22C2.99982 157.38 3.22982 157.38 3.22982 156.54C3.22982 155.7 2.89982 155.7 2.89982 154.86C2.89982 154.02 3.02982 154.02 3.02982 153.18C3.02982 152.34 3.00982 152.34 3.00982 151.5C3.00982 150.66 3.22982 150.66 3.22982 149.82C3.22982 148.98 3.31982 148.98 3.31982 148.14C3.31982 147.3 2.96982 147.3 2.96982 146.46C2.96982 145.62 3.02982 145.62 3.02982 144.78C3.02982 143.94 3.13982 143.94 3.13982 143.1C3.13982 142.26 2.95982 142.26 2.95982 141.42C2.95982 140.58 3.22982 140.58 3.22982 139.74C3.22982 138.9 2.97982 138.9 2.97982 138.06C2.97982 137.22 2.88982 137.22 2.88982 136.38C2.88982 135.54 3.07982 135.54 3.07982 134.7C3.07982 133.86 3.34982 133.86 3.34982 133.02C3.34982 132.18 3.32982 132.18 3.32982 131.34C3.32982 130.5 3.02982 130.5 3.02982 129.66C3.02982 128.82 3.15982 128.82 3.15982 127.98C3.15982 127.14 2.96982 127.14 2.96982 126.3C2.96982 125.46 3.02982 125.46 3.02982 124.62C3.02982 123.78 2.86982 123.78 2.86982 122.94C2.86982 122.1 3.09982 122.1 3.09982 121.26C3.09982 120.42 3.24982 120.42 3.24982 119.58C3.24982 118.74 2.88982 118.74 2.88982 117.9C2.88982 117.06 2.93982 117.06 2.93982 116.22C2.93982 115.38 3.04982 115.38 3.04982 114.54C3.04982 113.7 3.32982 113.7 3.32982 112.86C3.32982 112.02 3.08982 112.02 3.08982 111.18C3.08982 110.34 3.04982 110.34 3.04982 109.5C3.04982 108.66 3.29982 108.66 3.29982 107.82C3.29982 106.98 3.09982 106.98 3.09982 106.14C3.09982 105.3 3.13982 105.3 3.13982 104.46C3.13982 103.62 2.88982 103.62 2.88982 102.78C2.88982 101.94 3.09982 101.94 3.09982 101.1C3.09982 100.26 2.98982 100.26 2.98982 99.42C2.98982 98.58 3.22982 98.58 3.22982 97.74C3.22982 96.9 3.02982 96.9 3.02982 96.06C3.02982 95.22 2.94982 95.22 2.94982 94.38C2.94982 93.54 3.08982 93.54 3.08982 92.7C3.08982 91.86 2.99982 91.86 2.99982 91.02C2.99982 90.18 3.10982 90.18 3.10982 89.34C3.10982 88.5 3.08982 88.5 3.08982 87.66C3.08982 86.82 3.17982 86.82 3.17982 85.98C3.17982 85.14 3.31982 85.14 3.31982 84.3C3.31982 83.46 3.17982 83.46 3.17982 82.62C3.17982 81.78 2.90982 81.78 2.90982 80.94C2.90982 80.1 3.14982 80.1 3.14982 79.26C3.14982 78.42 3.14982 78.42 3.14982 77.58C3.14982 76.74 2.91982 76.74 2.91982 75.9C2.91982 75.06 3.27982 75.06 3.27982 74.22C3.27982 73.38 3.18982 73.38 3.18982 72.54C3.18982 71.7 2.90982 71.7 2.90982 70.86C2.90982 70.02 3.21982 70.02 3.21982 69.18C3.21982 68.34 3.19982 68.34 3.19982 67.5C3.19982 66.66 2.91982 66.66 2.91982 65.82C2.91982 64.98 3.05982 64.98 3.05982 64.14C3.05982 63.3 2.91982 63.3 2.91982 62.46C2.91982 61.62 3.24982 61.62 3.24982 60.78C3.24982 59.94 3.24982 59.94 3.24982 59.1C3.24982 58.26 3.30982 58.26 3.30982 57.42C3.30982 56.58 3.08982 56.58 3.08982 55.74C3.08982 54.9 3.11982 54.9 3.11982 54.06C3.11982 53.22 3.08982 53.22 3.08982 52.38C3.08982 51.54 3.08982 51.54 3.08982 50.7C3.08982 49.86 3.15982 49.86 3.15982 49.02C3.15982 48.18 2.88982 48.18 2.88982 47.34C2.88982 46.5 2.86982 46.5 2.86982 45.66C2.86982 44.82 2.81982 44.82 2.81982 43.98C2.81982 43.14 2.89982 43.14 2.89982 42.3C2.89982 41.46 3.14982 41.46 3.14982 40.62C3.14982 39.78 3.24982 39.78 3.24982 38.94C3.24982 38.1 2.91982 38.1 2.91982 37.26C2.91982 36.42 3.31982 36.42 3.31982 35.58C3.31982 34.74 3.18982 34.74 3.18982 33.9C3.18982 33.06 3.17982 33.06 3.17982 32.22C3.17982 31.38 3.24982 31.38 3.24982 30.54C3.24982 29.7 3.24982 29.7 3.24982 28.86C3.24982 28.02 2.98982 28.02 2.98982 27.18C2.98982 26.34 3.11982 26.34 3.11982 25.5C3.11982 24.66 2.98982 24.66 2.98982 23.81C2.98982 22.96 3.11982 22.97 3.11982 22.13C3.11982 21.29 3.02982 21.29 3.02982 20.44C3.02982 19.59 3.04982 19.6 3.04982 18.75C3.04982 17.9 2.92982 17.91 2.92982 17.07C2.92982 16.23 2.94982 16.23 2.94982 15.38C2.94982 14.53 3.26982 14.53 3.26982 13.69C3.26982 12.85 3.17982 12.84 3.17982 12C3.17982 11.44 3.33982 10.94 3.43982 10.41C3.53982 9.88002 3.34982 9.23002 3.54982 8.73002C3.74982 8.23002 4.37982 7.94002 4.67982 7.48002C4.97982 7.02002 5.29982 6.63002 5.67982 6.24002C6.05982 5.85002 6.34982 5.37002 6.80982 5.07002C7.26982 4.77002 7.79982 4.64002 8.29982 4.43002C8.79982 4.22002 9.24982 3.87002 9.78982 3.76002C10.3298 3.65002 10.8698 3.46002 11.4298 3.46002C12.2598 3.46002 12.2598 3.82002 13.0998 3.82002C13.9398 3.82002 13.9298 3.63002 14.7698 3.63002C15.6098 3.63002 15.5998 3.86002 16.4398 3.86002C17.2798 3.86002 17.2798 3.40002 18.1098 3.40002C18.9398 3.40002 18.9498 3.57002 19.7798 3.57002C20.6098 3.57002 20.6198 3.61002 21.4498 3.61002C22.2798 3.61002 22.2898 3.44002 23.1198 3.44002C23.9498 3.44002 23.9598 3.81002 24.7898 3.81002C25.6198 3.81002 25.6298 3.47002 26.4598 3.47002C27.2898 3.47002 27.2898 3.42002 28.1298 3.42002C28.9698 3.42002 28.9598 3.51002 29.7998 3.51002C30.6398 3.51002 30.6298 3.63002 31.4698 3.63002C32.3098 3.63002 32.2998 3.43002 33.1398 3.43002C33.9798 3.43002 33.9698 3.87002 34.8098 3.87002C35.6498 3.87002 35.6398 3.66002 36.4798 3.66002C37.3198 3.66002 37.3098 3.71002 38.1498 3.71002C38.9898 3.71002 38.9798 3.60002 39.8198 3.60002C40.6598 3.60002 40.6498 3.75002 41.4898 3.75002C42.3298 3.75002 42.3198 3.70002 43.1598 3.70002C43.9998 3.70002 43.9898 3.53002 44.8298 3.53002C45.6698 3.53002 45.6698 3.53002 46.4998 3.53002C47.3298 3.53002 47.3398 3.78002 48.1698 3.78002C48.9998 3.78002 49.0098 3.44002 49.8398 3.44002C50.6698 3.44002 50.6798 3.54002 51.5098 3.54002C52.3398 3.54002 52.3498 3.83002 53.1798 3.83002C54.0098 3.83002 54.0198 3.43002 54.8498 3.43002C55.6798 3.43002 55.6898 3.54002 56.5198 3.54002C57.3498 3.54002 57.3598 3.49002 58.1898 3.49002C59.0198 3.49002 59.0198 3.66002 59.8598 3.66002C60.6998 3.66002 60.6898 3.61002 61.5298 3.61002C62.3698 3.61002 62.3598 3.85002 63.1998 3.85002C64.0398 3.85002 64.0298 3.45002 64.8698 3.45002C65.7098 3.45002 65.6998 3.76002 66.5398 3.76002C67.3798 3.76002 67.3698 3.86002 68.2098 3.86002C69.0498 3.86002 69.0398 3.42002 69.8798 3.42002C70.7198 3.42002 70.7098 3.70002 71.5498 3.70002C72.3898 3.70002 72.3798 3.46002 73.2198 3.46002C74.0598 3.46002 74.0498 3.69002 74.8898 3.69002C75.7298 3.69002 75.7198 3.91002 76.5598 3.91002C77.3998 3.91002 77.3898 3.76002 78.2298 3.76002C79.0698 3.76002 79.0598 3.81002 79.8998 3.81002C80.7398 3.81002 80.7298 3.63002 81.5698 3.63002C82.4098 3.63002 82.3998 3.67002 83.2398 3.67002C84.0798 3.67002 84.0698 3.89002 84.9098 3.89002C85.7498 3.89002 85.7398 3.80002 86.5798 3.80002C87.4198 3.80002 87.4098 3.65002 88.2498 3.65002C89.0898 3.65002 89.0798 3.44002 89.9198 3.44002C90.7598 3.44002 90.7498 3.60002 91.5898 3.60002C92.4298 3.60002 92.4298 3.75002 93.2598 3.75002C94.0898 3.75002 94.0998 3.52002 94.9298 3.52002C95.7598 3.52002 95.7698 3.50002 96.5998 3.50002C97.4298 3.50002 97.4398 3.58002 98.2698 3.58002C99.0998 3.58002 99.1098 3.43002 99.9398 3.43002C100.77 3.43002 100.77 3.73002 101.61 3.73002C102.45 3.73002 102.44 3.43002 103.28 3.43002C104.12 3.43002 104.11 3.67002 104.95 3.67002C105.79 3.67002 105.78 3.44002 106.62 3.44002C107.46 3.44002 107.45 3.57002 108.29 3.57002C109.13 3.57002 109.12 3.57002 109.96 3.57002C110.8 3.57002 110.79 3.70002 111.63 3.70002C112.47 3.70002 112.46 3.82002 113.3 3.82002C114.14 3.82002 114.13 3.48002 114.97 3.48002C115.81 3.48002 115.8 3.43002 116.64 3.43002C117.48 3.43002 117.47 3.82002 118.31 3.82002C119.15 3.82002 119.14 3.70002 119.98 3.70002C120.82 3.70002 120.81 3.88002 121.65 3.88002C122.49 3.88002 122.49 3.74002 123.32 3.74002C124.15 3.74002 124.16 3.72002 124.99 3.72002C125.82 3.72002 125.83 3.63002 126.66 3.63002C127.49 3.63002 127.5 3.87002 128.33 3.87002C129.16 3.87002 129.17 3.66002 130 3.66002C130.83 3.66002 130.84 3.67002 131.67 3.67002C132.5 3.67002 132.51 3.49002 133.34 3.49002C134.17 3.49002 134.17 3.60002 135.01 3.60002C135.85 3.60002 135.84 3.56002 136.68 3.56002C137.52 3.56002 137.51 3.63002 138.35 3.63002C139.19 3.63002 139.18 3.90002 140.02 3.90002C140.86 3.90002 140.85 3.88002 141.69 3.88002C142.53 3.88002 142.53 3.80002 143.36 3.80002C144.19 3.80002 144.2 3.51002 145.03 3.51002C145.86 3.51002 145.87 3.61002 146.7 3.61002C147.53 3.61002 147.54 3.61002 148.37 3.61002C149.2 3.61002 149.21 3.90002 150.04 3.90002C150.87 3.90002 150.88 3.46002 151.71 3.46002C152.54 3.46002 152.55 3.50002 153.38 3.50002C154.21 3.50002 154.22 3.56002 155.05 3.56002C155.88 3.56002 155.89 3.54002 156.72 3.54002C157.55 3.54002 157.56 3.84002 158.39 3.84002C159.22 3.84002 159.23 3.74002 160.06 3.74002C160.89 3.74002 160.9 3.84002 161.73 3.84002C162.56 3.84002 162.57 3.81002 163.4 3.81002C164.23 3.81002 164.24 3.66002 165.07 3.66002C165.9 3.66002 165.91 3.61002 166.74 3.61002C167.57 3.61002 167.58 3.90002 168.41 3.90002C169.24 3.90002 169.25 3.67002 170.08 3.67002C170.91 3.67002 170.92 3.68002 171.75 3.68002C172.58 3.68002 172.59 3.57002 173.42 3.57002C174.25 3.57002 174.26 3.89002 175.09 3.89002C175.92 3.89002 175.93 3.48002 176.76 3.48002C177.59 3.48002 177.6 3.93002 178.43 3.93002C179.26 3.93002 179.27 3.54002 180.1 3.54002C180.93 3.54002 180.94 3.78002 181.77 3.78002C182.6 3.78002 182.61 3.52002 183.44 3.52002C184.27 3.52002 184.28 3.89002 185.11 3.89002C185.94 3.89002 185.95 3.63002 186.78 3.63002C187.61 3.63002 187.62 3.63002 188.45 3.63002C189.28 3.63002 189.29 3.52002 190.12 3.52002C190.95 3.52002 190.96 3.52002 191.79 3.52002C192.62 3.52002 192.63 3.62002 193.46 3.62002C194.29 3.62002 194.3 3.76002 195.13 3.76002C195.96 3.76002 195.97 3.47002 196.8 3.47002C197.63 3.47002 197.64 3.45002 198.47 3.45002C199.3 3.45002 199.3 3.91002 200.14 3.91002C200.98 3.91002 200.97 3.80002 201.81 3.80002C202.65 3.80002 202.65 3.81002 203.48 3.81002C204.31 3.81002 204.32 3.44002 205.15 3.44002C205.98 3.44002 205.99 3.89002 206.83 3.89002C207.67 3.89002 207.67 3.87002 208.5 3.87002C209.33 3.87002 209.34 3.71002 210.17 3.71002C211 3.71002 211.01 3.57002 211.84 3.57002C212.67 3.57002 212.68 3.46002 213.52 3.46002C214.36 3.46002 214.36 3.92002 215.19 3.92002C216.02 3.92002 216.03 3.61002 216.86 3.61002C217.69 3.61002 217.7 3.61002 218.53 3.61002C219.36 3.61002 219.37 3.89002 220.21 3.89002C221.05 3.89002 221.05 3.83002 221.88 3.83002C222.71 3.83002 222.72 3.69002 223.56 3.69002C224.4 3.69002 224.4 3.46002 225.24 3.46002C226.08 3.46002 226.08 3.94002 226.92 3.94002C227.76 3.94002 227.76 3.81002 228.59 3.81002C229.42 3.81002 229.43 3.84002 230.26 3.84002C231.09 3.84002 231.1 3.45002 231.94 3.45002C232.78 3.45002 232.78 3.62002 233.62 3.62002C234.46 3.62002 234.46 3.58002 235.3 3.58002C236.14 3.58002 236.14 3.63002 236.98 3.63002C237.82 3.63002 237.82 3.67002 238.66 3.67002C239.5 3.67002 239.5 3.59002 240.34 3.59002C241.18 3.59002 241.18 3.80002 242.02 3.80002C242.86 3.80002 242.86 3.46002 243.7 3.46002C244.26 3.46002 244.76 3.96002 245.29 4.07002C245.82 4.18002 246.36 4.23002 246.86 4.44002C247.36 4.65002 248.01 4.64002 248.46 4.94002C248.91 5.24002 249.39 5.60002 249.78 5.99002C250.17 6.38002 250.28 7.01002 250.58 7.47002C250.88 7.93002 251.33 8.31002 251.54 8.82002C251.75 9.33002 251.85 9.88002 251.95 10.42C252.05 10.96 252.05 11.5 252.05 12.06C252.05 12.9 251.82 12.9 251.82 13.74C251.82 14.58 252 14.58 252 15.42C252 16.26 251.93 16.26 251.93 17.1C251.93 17.94 252 17.94 252 18.78C252 19.62 251.96 19.62 251.96 20.46C251.96 21.3 252.23 21.3 252.23 22.14C252.23 22.98 252 22.98 252 23.82C252 24.66 251.82 24.66 251.82 25.5C251.82 26.34 251.83 26.34 251.83 27.18C251.83 28.02 251.83 28.02 251.83 28.86C251.83 29.7 252.08 29.7 252.08 30.54C252.08 31.38 251.87 31.38 251.87 32.22C251.87 33.06 251.81 33.06 251.81 33.9C251.81 34.74 252.18 34.74 252.18 35.58C252.18 36.42 251.95 36.42 251.95 37.26C251.95 38.1 252.19 38.1 252.19 38.94C252.19 39.78 252.28 39.78 252.28 40.62C252.28 41.46 252.07 41.46 252.07 42.3C252.07 43.14 251.89 43.14 251.89 43.98C251.89 44.82 251.84 44.82 251.84 45.66C251.84 46.5 252.19 46.5 252.19 47.34C252.19 48.18 251.94 48.18 251.94 49.02C251.94 49.86 251.88 49.86 251.88 50.7C251.88 51.54 251.93 51.54 251.93 52.38C251.93 53.22 252.05 53.22 252.05 54.06C252.05 54.9 252.06 54.9 252.06 55.74C252.06 56.58 252 56.58 252 57.42C252 58.26 252.14 58.26 252.14 59.1C252.14 59.94 251.98 59.94 251.98 60.78C251.98 61.62 252.03 61.62 252.03 62.46C252.03 63.3 251.8 63.3 251.8 64.14C251.8 64.98 252.11 64.98 252.11 65.82C252.11 66.66 252.26 66.66 252.26 67.5C252.26 68.34 252.12 68.34 252.12 69.18C252.12 70.02 252.23 70.02 252.23 70.86C252.23 71.7 252 71.7 252 72.54C252 73.38 252 73.38 252 74.22C252 75.06 252.26 75.06 252.26 75.9C252.26 76.74 252.26 76.74 252.26 77.58C252.26 78.42 252 78.42 252 79.26C252 80.1 252.15 80.1 252.15 80.94C252.15 81.78 252.29 81.78 252.29 82.62C252.29 83.46 251.86 83.46 251.86 84.3C251.86 85.14 252.24 85.14 252.24 85.98C252.24 86.82 251.92 86.82 251.92 87.66C251.92 88.5 251.83 88.5 251.83 89.34C251.83 90.18 251.96 90.18 251.96 91.02C251.96 91.86 252.29 91.86 252.29 92.7C252.29 93.54 251.93 93.54 251.93 94.38C251.93 95.22 252.27 95.22 252.27 96.06C252.27 96.9 252.01 96.9 252.01 97.74C252.01 98.58 252.16 98.58 252.16 99.42C252.16 100.26 252.24 100.26 252.24 101.1C252.24 101.94 252.27 101.94 252.27 102.78C252.27 103.62 251.88 103.62 251.88 104.46C251.88 105.3 252.15 105.3 252.15 106.14C252.15 106.98 251.83 106.98 251.83 107.82C251.83 108.66 251.83 108.66 251.83 109.5C251.83 110.34 252.08 110.34 252.08 111.18C252.08 112.02 252.26 112.02 252.26 112.86C252.26 113.7 252.28 113.7 252.28 114.54C252.28 115.38 252.18 115.38 252.18 116.22C252.18 117.06 252.06 117.06 252.06 117.9C252.06 118.74 252.12 118.74 252.12 119.58C252.12 120.42 252.09 120.42 252.09 121.26C252.09 122.1 251.81 122.1 251.81 122.94C251.81 123.78 252.22 123.78 252.22 124.62C252.22 125.46 252.21 125.46 252.21 126.3C252.21 127.14 252.18 127.14 252.18 127.98C252.18 128.82 252.14 128.82 252.14 129.66C252.14 130.5 252.25 130.5 252.25 131.34C252.25 132.18 252.19 132.18 252.19 133.02C252.19 133.86 252.04 133.86 252.04 134.7C252.04 135.54 252.14 135.54 252.14 136.38C252.14 137.22 251.88 137.22 251.88 138.06C251.88 138.9 252.19 138.9 252.19 139.74C252.19 140.58 252.11 140.58 252.11 141.42C252.11 142.26 252.17 142.26 252.17 143.1C252.17 143.94 251.84 143.94 251.84 144.78C251.84 145.62 251.87 145.62 251.87 146.46C251.87 147.3 251.82 147.3 251.82 148.15C251.82 149 252.05 148.99 252.05 149.83C252.05 150.67 251.93 150.67 251.93 151.52C251.93 152.37 252.05 152.36 252.05 153.21C252.05 154.06 251.92 154.05 251.92 154.89C251.92 155.73 251.82 155.73 251.82 156.58C251.82 157.43 252.18 157.43 252.18 158.27C252.18 159.11 251.9 159.12 251.9 159.96C251.9 160.52 251.97 161.06 251.86 161.59C251.75 162.12 251.69 162.69 251.48 163.19C251.27 163.69 250.75 164.03 250.45 164.48C250.15 164.93 250.1 165.6 249.71 165.99C249.32 166.38 248.7 166.48 248.24 166.79C247.78 167.1 247.43 167.57 246.92 167.78C246.41 167.99 245.87 168.1 245.32 168.21C244.77 168.32 244.24 168.34 243.68 168.34L243.76 168.29Z" fill="#669AFF"/>
<path d="M86.23 36.31C84.17 37.51 82.2 38.93 80.36 40.58C73.56 46.68 69.66 54.81 68.77 63.24L104.05 67L86.23 36.31Z" fill="#B7D8F9"/>
<path d="M104.05 67C104.05 67 127.72 58.26 137.34 54.69C135.83 50.61 133.55 46.74 130.47 43.31C119.04 30.56 100.47 28.02 86.23 36.31L104.05 67Z" fill="white"/>
<path d="M68.77 63.24C67.75 72.88 70.65 82.9 77.63 90.69C79.44 92.71 81.42 94.47 83.54 95.97L104.04 67L68.76 63.24H68.77Z" fill="#005FF7"/>
<path d="M83.5498 95.97C96.7698 105.34 115.17 104.7 127.74 93.42C138.9 83.42 142.24 67.94 137.34 54.69C127.73 58.26 104.05 67 104.05 67L83.5498 95.97Z" fill="#002A9E"/>
<path d="M216.21 72.32H112.52C109.604 72.32 107.24 74.6839 107.24 77.6V143.86C107.24 146.776 109.604 149.14 112.52 149.14H216.21C219.126 149.14 221.49 146.776 221.49 143.86V77.6C221.49 74.6839 219.126 72.32 216.21 72.32Z" fill="white"/>
<path d="M196.04 83.31H129.54C127.856 83.31 126.49 84.6733 126.49 86.355C126.49 88.0367 127.856 89.4 129.54 89.4H196.04C197.725 89.4 199.09 88.0367 199.09 86.355C199.09 84.6733 197.725 83.31 196.04 83.31Z" fill="#005FF7"/>
<path d="M173.6 104.49H129.54C127.856 104.49 126.49 105.853 126.49 107.535C126.49 109.217 127.856 110.58 129.54 110.58H173.6C175.285 110.58 176.65 109.217 176.65 107.535C176.65 105.853 175.285 104.49 173.6 104.49Z" fill="#002A9E"/>
<path d="M153.69 125.67H129.54C127.856 125.67 126.49 127.033 126.49 128.715C126.49 130.397 127.856 131.76 129.54 131.76H153.69C155.375 131.76 156.74 130.397 156.74 128.715C156.74 127.033 155.375 125.67 153.69 125.67Z" fill="#669AFF"/>
<path d="M70.9001 98.91H47.3001C41.9208 98.91 37.5601 103.271 37.5601 108.65V115.68C37.5601 121.059 41.9208 125.42 47.3001 125.42H70.9001C76.2793 125.42 80.6401 121.059 80.6401 115.68V108.65C80.6401 103.271 76.2793 98.91 70.9001 98.91Z" fill="#002A9E"/>
<path d="M60.1699 101.15C60.1699 100.41 69.8999 91.42 69.8999 91.42V101.15H60.1699Z" fill="#002A9E"/>
<g opacity="0.75">
<path d="M135.11 35.34H148C150.938 35.34 153.32 32.9581 153.32 30.02V26.18C153.32 23.2418 150.938 20.86 148 20.86H135.11C132.172 20.86 129.79 23.2418 129.79 26.18V30.02C129.79 32.9581 132.172 35.34 135.11 35.34Z" fill="white"/>
<path d="M140.98 34.12C140.98 34.52 135.67 39.43 135.67 39.43V34.12H140.98Z" fill="white"/>
</g>
<g opacity="0.75">
<path d="M69.6102 32.97H62.7402C61.1772 32.97 59.9102 34.237 59.9102 35.8V37.85C59.9102 39.4129 61.1772 40.68 62.7402 40.68H69.6102C71.1731 40.68 72.4402 39.4129 72.4402 37.85V35.8C72.4402 34.237 71.1731 32.97 69.6102 32.97Z" fill="#005FF7"/>
<path d="M66.4902 40.03C66.4902 40.25 69.3202 42.86 69.3202 42.86V40.03H66.4902Z" fill="#005FF7"/>
</g>
<g opacity="0.69">
<path d="M52.2202 108.41C52.2202 106.62 53.7102 105.23 55.5002 105.23C57.2902 105.23 58.7802 106.62 58.7802 108.41C58.7802 110.2 57.2902 111.59 55.5002 111.59C53.7102 111.59 52.2202 110.2 52.2202 108.41ZM57.0002 108.41C57.0002 107.61 56.3002 106.92 55.5102 106.92C54.7202 106.92 54.0202 107.62 54.0202 108.41C54.0202 109.2 54.7202 109.9 55.5102 109.9C56.3002 109.9 57.0002 109.2 57.0002 108.41ZM62.7702 105.43H64.8602L56.2002 119.36H54.1102L62.7702 105.43ZM60.1802 116.37C60.1802 114.58 61.6702 113.19 63.4602 113.19C65.2502 113.19 66.7402 114.58 66.7402 116.37C66.7402 118.16 65.2502 119.55 63.4602 119.55C61.6702 119.55 60.1802 118.16 60.1802 116.37ZM64.9602 116.37C64.9602 115.57 64.2602 114.88 63.4702 114.88C62.6802 114.88 61.9802 115.58 61.9802 116.37C61.9802 117.16 62.6802 117.86 63.4702 117.86C64.2602 117.86 64.9602 117.16 64.9602 116.37Z" fill="#669AFF"/>
</g>
<path opacity="0.72" d="M141.51 31.89C140.1 31.7 139.43 30.87 139.43 30.87L140.4 29.9C140.4 29.9 140.98 30.63 142 30.63C142.78 30.63 143.12 30.29 143.12 29.85C143.12 28.69 139.73 29.22 139.73 26.84C139.73 25.87 140.41 25.19 141.52 24.9V24.03H142.78V24.9C143.8 25.05 144.48 25.77 144.48 25.77L143.51 26.74C143.51 26.74 143.03 26.16 142.25 26.16C141.52 26.16 141.23 26.45 141.23 26.84C141.23 28 144.62 27.47 144.62 29.85C144.62 30.87 143.84 31.64 142.78 31.89V32.76H141.52V31.89H141.51Z" fill="#669AFF"/>
<path d="M127.81 93.65H191.04" stroke="#E4E7EF" stroke-width="1.59" stroke-miterlimit="10" stroke-linecap="round"/>
<path d="M127.81 97.12H156.1" stroke="#E4E7EF" stroke-width="1.59" stroke-miterlimit="10" stroke-linecap="round"/>
<path d="M127.81 114.7H180.63" stroke="#E4E7EF" stroke-width="1.59" stroke-miterlimit="10" stroke-linecap="round"/>
<path d="M127.81 118.17H168.15" stroke="#E4E7EF" stroke-width="1.59" stroke-miterlimit="10" stroke-linecap="round"/>
<path d="M127.81 136.07H188.11" stroke="#E4E7EF" stroke-width="1.59" stroke-miterlimit="10" stroke-linecap="round"/>
<path d="M127.81 139.54H179.87" stroke="#E4E7EF" stroke-width="1.59" stroke-miterlimit="10" stroke-linecap="round"/>
<path d="M121.63 104.67H116.58V109.72H121.63V104.67Z" fill="#002A9E"/>
<path d="M121.63 125.94H116.58V130.99H121.63V125.94Z" fill="#669AFF"/>
<path d="M121.63 83.84H116.58V88.89H121.63V83.84Z" fill="#005FF7"/>
</svg>
