<svg width="256" height="172" viewBox="0 0 256 172" fill="none" xmlns="http://www.w3.org/2000/svg">
<g clip-path="url(#clip0_569_3002)">
<rect width="256" height="172" fill="white"/>
<path d="M243.87 168.94C243.04 168.94 243.04 168.88 242.2 168.88C241.36 168.88 241.37 169.09 240.53 169.09C239.69 169.09 239.7 169.15 238.86 169.15C238.02 169.15 238.02 168.75 237.19 168.75C236.36 168.75 236.35 168.85 235.52 168.85C234.69 168.85 234.68 169 233.85 169C233.02 169 233.01 168.68 232.18 168.68C231.35 168.68 231.34 168.72 230.51 168.72C229.68 168.72 229.67 169.12 228.84 169.12C228.01 169.12 228.01 169.15 227.17 169.15C226.33 169.15 226.34 168.98 225.5 168.98C224.66 168.98 224.67 168.79 223.83 168.79C222.99 168.79 223 168.89 222.16 168.89C221.32 168.89 221.33 169.05 220.49 169.05C219.65 169.05 219.66 169.05 218.82 169.05C217.98 169.05 217.99 169.05 217.15 169.05C216.31 169.05 216.32 169.13 215.48 169.13C214.64 169.13 214.65 168.99 213.81 168.99C212.97 168.99 212.98 169.19 212.14 169.19C211.3 169.19 211.31 168.9 210.47 168.9C209.63 168.9 209.63 168.82 208.8 168.82C207.97 168.82 207.96 169.13 207.13 169.13C206.29 169.13 206.29 168.95 205.46 168.95C204.63 168.95 204.62 168.74 203.79 168.74C202.96 168.74 202.95 169.1 202.12 169.1C201.29 169.1 201.28 168.83 200.45 168.83C199.62 168.83 199.61 169.08 198.78 169.08C197.94 169.08 197.94 168.98 197.11 168.98C196.28 168.98 196.28 169.07 195.44 169.07C194.6 169.07 194.61 169.2 193.77 169.2C192.93 169.2 192.94 168.94 192.1 168.94C191.27 168.94 191.27 169.07 190.43 169.07C189.6 169.07 189.6 168.87 188.76 168.87C187.92 168.87 187.93 169.19 187.09 169.19C186.25 169.19 186.26 168.99 185.42 168.99C184.58 168.99 184.59 168.73 183.75 168.73C182.91 168.73 182.92 168.75 182.08 168.75C181.24 168.75 181.25 169.01 180.41 169.01C179.57 169.01 179.58 168.73 178.74 168.73C177.9 168.73 177.91 169.1 177.07 169.1C176.23 169.1 176.24 169.1 175.4 169.1C174.57 169.1 174.57 169.17 173.73 169.17C172.89 169.17 172.9 168.7 172.06 168.7C171.22 168.7 171.23 168.99 170.39 168.99C169.55 168.99 169.56 168.75 168.72 168.75C167.89 168.75 167.89 169.09 167.05 169.09C166.21 169.09 166.22 169.06 165.38 169.06C164.54 169.06 164.55 168.93 163.71 168.93C162.87 168.93 162.87 169.1 162.04 169.1C161.21 169.1 161.2 168.98 160.37 168.98C159.53 168.98 159.53 168.74 158.7 168.74C157.87 168.74 157.86 168.8 157.03 168.8C156.2 168.8 156.19 168.75 155.36 168.75C154.53 168.75 154.53 168.92 153.69 168.92C152.85 168.92 152.86 169.1 152.02 169.1C151.18 169.1 151.19 169.1 150.35 169.1C149.51 169.1 149.52 168.69 148.68 168.69C147.84 168.69 147.85 168.86 147.01 168.86C146.17 168.86 146.18 168.84 145.34 168.84C144.5 168.84 144.51 168.75 143.67 168.75C142.83 168.75 142.84 168.86 142 168.86C141.16 168.86 141.17 168.99 140.33 168.99C139.49 168.99 139.5 168.87 138.66 168.87C137.82 168.87 137.83 168.93 136.99 168.93C136.16 168.93 136.16 169.06 135.32 169.06C134.48 169.06 134.49 168.72 133.65 168.72C132.81 168.72 132.81 168.94 131.98 168.94C131.15 168.94 131.14 168.78 130.31 168.78C129.48 168.78 129.47 168.88 128.64 168.88C127.81 168.88 127.8 169.14 126.97 169.14C126.14 169.14 126.13 168.83 125.3 168.83C124.46 168.83 124.46 169.17 123.63 169.17C122.8 169.17 122.79 168.87 121.96 168.87C121.13 168.87 121.13 168.74 120.29 168.74C119.45 168.74 119.46 168.77 118.62 168.77C117.78 168.77 117.79 169.16 116.95 169.16C116.11 169.16 116.12 169.02 115.28 169.02C114.44 169.02 114.45 168.78 113.61 168.78C112.77 168.78 112.77 168.97 111.94 168.97C111.11 168.97 111.1 168.91 110.27 168.91C109.44 168.91 109.43 168.7 108.6 168.7C107.77 168.7 107.76 169.1 106.93 169.1C106.1 169.1 106.09 168.94 105.26 168.94C104.43 168.94 104.42 168.8 103.59 168.8C102.75 168.8 102.75 168.73 101.92 168.73C101.09 168.73 101.08 168.76 100.25 168.76C99.4199 168.76 99.4099 168.92 98.5799 168.92C97.7499 168.92 97.7399 168.78 96.9099 168.78C96.0799 168.78 96.0699 169.18 95.2399 169.18C94.4099 169.18 94.3999 169.16 93.5699 169.16C92.7399 169.16 92.7299 169.14 91.8999 169.14C91.0699 169.14 91.0599 168.93 90.2299 168.93C89.3999 168.93 89.3899 169.1 88.5599 169.1C87.7299 169.1 87.7199 168.77 86.8899 168.77C86.0599 168.77 86.0499 168.73 85.2199 168.73C84.3899 168.73 84.3799 169.1 83.5499 169.1C82.7099 169.1 82.7099 168.73 81.8799 168.73C81.0499 168.73 81.0399 168.94 80.2099 168.94C79.3799 168.94 79.3699 168.94 78.5399 168.94C77.6999 168.94 77.6999 169.12 76.8699 169.12C76.0399 169.12 76.0299 168.89 75.1999 168.89C74.3699 168.89 74.3599 168.92 73.5299 168.92C72.6999 168.92 72.6899 169.13 71.8599 169.13C71.0299 169.13 71.0199 169.16 70.1899 169.16C69.3599 169.16 69.3499 168.72 68.5199 168.72C67.6899 168.72 67.6799 168.79 66.8499 168.79C66.0199 168.79 66.0099 169.04 65.1799 169.04C64.3499 169.04 64.3399 168.94 63.5099 168.94C62.6799 168.94 62.6699 168.89 61.8399 168.89C61.0099 168.89 60.9999 169.1 60.1699 169.1C59.3399 169.1 59.3299 168.88 58.4999 168.88C57.6699 168.88 57.6599 168.98 56.8299 168.98C55.9999 168.98 55.9999 168.81 55.1599 168.81C54.3199 168.81 54.3299 169.07 53.4899 169.07C52.6499 169.07 52.6499 168.69 51.8199 168.69C50.9899 168.69 50.9799 169.15 50.1499 169.15C49.3199 169.15 49.3099 169.15 48.4699 169.15C47.6299 169.15 47.6299 168.76 46.7999 168.76C45.9699 168.76 45.9599 169.14 45.1299 169.14C44.2999 169.14 44.2899 168.72 43.4599 168.72C42.6299 168.72 42.6199 168.78 41.7799 168.78C40.9399 168.78 40.9399 168.95 40.1099 168.95C39.2799 168.95 39.2699 169.1 38.4399 169.1C37.6099 169.1 37.5999 169.04 36.7699 169.04C35.9399 169.04 35.9299 169.07 35.0899 169.07C34.2499 169.07 34.2499 168.98 33.4199 168.98C32.5899 168.98 32.5799 169.04 31.7399 169.04C30.8999 169.04 30.8999 169.08 30.0599 169.08C29.2199 169.08 29.2199 169.01 28.3799 169.01C27.5399 169.01 27.5399 169.14 26.7099 169.14C25.8799 169.14 25.8699 168.96 25.0399 168.96C24.2099 168.96 24.1999 169.15 23.3599 169.15C22.5199 169.15 22.5199 169.05 21.6799 169.05C20.8399 169.05 20.8399 168.7 19.9999 168.7C19.1599 168.7 19.1599 169.08 18.3199 169.08C17.4799 169.08 17.4799 168.82 16.6399 168.82C15.7999 168.82 15.7999 168.89 14.9599 168.89C14.1199 168.89 14.1199 168.92 13.2799 168.92C12.4399 168.92 12.4399 169.01 11.5999 169.01C11.0399 169.01 10.5099 168.79 9.97993 168.68C9.44993 168.57 8.92993 168.42 8.42993 168.21C7.92993 168 7.33993 167.91 6.88993 167.6C6.43993 167.29 6.13993 166.78 5.75993 166.39C5.37993 166 5.07993 165.56 4.76993 165.11C4.45993 164.66 4.08993 164.26 3.86993 163.75C3.64993 163.24 3.51993 162.72 3.41993 162.18C3.31993 161.64 3.02993 161.11 3.02993 160.55C3.02993 159.71 3.10993 159.71 3.10993 158.87C3.10993 158.03 3.33993 158.03 3.33993 157.19C3.33993 156.35 3.00993 156.35 3.00993 155.51C3.00993 154.67 3.13993 154.67 3.13993 153.83C3.13993 152.99 3.11993 152.99 3.11993 152.15C3.11993 151.31 3.33993 151.31 3.33993 150.47C3.33993 149.63 3.42993 149.63 3.42993 148.79C3.42993 147.95 3.07993 147.95 3.07993 147.11C3.07993 146.27 3.13993 146.27 3.13993 145.43C3.13993 144.59 3.24993 144.59 3.24993 143.75C3.24993 142.91 3.06993 142.91 3.06993 142.07C3.06993 141.23 3.33993 141.23 3.33993 140.39C3.33993 139.55 3.08993 139.55 3.08993 138.71C3.08993 137.87 2.99993 137.87 2.99993 137.03C2.99993 136.19 3.18993 136.19 3.18993 135.35C3.18993 134.51 3.45993 134.51 3.45993 133.67C3.45993 132.83 3.43993 132.83 3.43993 131.99C3.43993 131.15 3.13993 131.15 3.13993 130.31C3.13993 129.47 3.26993 129.47 3.26993 128.63C3.26993 127.79 3.07993 127.79 3.07993 126.95C3.07993 126.11 3.13993 126.11 3.13993 125.27C3.13993 124.43 2.97993 124.43 2.97993 123.59C2.97993 122.75 3.20993 122.75 3.20993 121.91C3.20993 121.07 3.35993 121.07 3.35993 120.23C3.35993 119.39 2.99993 119.39 2.99993 118.55C2.99993 117.71 3.04993 117.71 3.04993 116.87C3.04993 116.03 3.15993 116.03 3.15993 115.19C3.15993 114.35 3.43993 114.35 3.43993 113.51C3.43993 112.67 3.19993 112.67 3.19993 111.83C3.19993 110.99 3.15993 110.99 3.15993 110.15C3.15993 109.31 3.40993 109.31 3.40993 108.47C3.40993 107.63 3.20993 107.63 3.20993 106.79C3.20993 105.95 3.24993 105.95 3.24993 105.11C3.24993 104.27 2.99993 104.27 2.99993 103.43C2.99993 102.59 3.20993 102.59 3.20993 101.75C3.20993 100.91 3.09993 100.91 3.09993 100.07C3.09993 99.23 3.33993 99.23 3.33993 98.39C3.33993 97.55 3.13993 97.55 3.13993 96.71C3.13993 95.87 3.05993 95.87 3.05993 95.03C3.05993 94.19 3.19993 94.19 3.19993 93.35C3.19993 92.51 3.10993 92.51 3.10993 91.67C3.10993 90.83 3.21993 90.83 3.21993 89.99C3.21993 89.15 3.19993 89.15 3.19993 88.31C3.19993 87.47 3.28993 87.47 3.28993 86.63C3.28993 85.79 3.42993 85.79 3.42993 84.95C3.42993 84.11 3.28993 84.11 3.28993 83.27C3.28993 82.43 3.01993 82.43 3.01993 81.59C3.01993 80.75 3.25993 80.75 3.25993 79.91C3.25993 79.07 3.25993 79.07 3.25993 78.23C3.25993 77.39 3.02993 77.39 3.02993 76.55C3.02993 75.71 3.38993 75.71 3.38993 74.87C3.38993 74.03 3.29993 74.03 3.29993 73.19C3.29993 72.35 3.01993 72.35 3.01993 71.51C3.01993 70.67 3.32993 70.67 3.32993 69.83C3.32993 68.99 3.30993 68.99 3.30993 68.15C3.30993 67.31 3.02993 67.31 3.02993 66.47C3.02993 65.63 3.16993 65.63 3.16993 64.79C3.16993 63.95 3.02993 63.95 3.02993 63.11C3.02993 62.27 3.35993 62.27 3.35993 61.43C3.35993 60.59 3.35993 60.59 3.35993 59.75C3.35993 58.91 3.41993 58.91 3.41993 58.07C3.41993 57.23 3.19993 57.23 3.19993 56.39C3.19993 55.55 3.22993 55.55 3.22993 54.71C3.22993 53.87 3.19993 53.87 3.19993 53.03C3.19993 52.19 3.19993 52.19 3.19993 51.35C3.19993 50.51 3.26993 50.51 3.26993 49.67C3.26993 48.83 2.99993 48.83 2.99993 47.99C2.99993 47.15 2.97993 47.15 2.97993 46.31C2.97993 45.47 2.92993 45.47 2.92993 44.63C2.92993 43.79 3.00993 43.79 3.00993 42.95C3.00993 42.11 3.25993 42.11 3.25993 41.27C3.25993 40.43 3.35993 40.43 3.35993 39.59C3.35993 38.75 3.02993 38.75 3.02993 37.91C3.02993 37.07 3.42993 37.07 3.42993 36.23C3.42993 35.39 3.29993 35.39 3.29993 34.55C3.29993 33.71 3.28993 33.71 3.28993 32.87C3.28993 32.03 3.35993 32.03 3.35993 31.19C3.35993 30.35 3.35993 30.35 3.35993 29.51C3.35993 28.67 3.09993 28.67 3.09993 27.83C3.09993 26.99 3.22993 26.99 3.22993 26.15C3.22993 25.31 3.09993 25.31 3.09993 24.46C3.09993 23.61 3.22993 23.62 3.22993 22.78C3.22993 21.94 3.13993 21.94 3.13993 21.09C3.13993 20.24 3.15993 20.25 3.15993 19.4C3.15993 18.55 3.03993 18.56 3.03993 17.72C3.03993 16.88 3.05993 16.88 3.05993 16.03C3.05993 15.18 3.37993 15.18 3.37993 14.34C3.37993 13.5 3.28993 13.49 3.28993 12.65C3.28993 12.09 3.44993 11.59 3.54993 11.06C3.64993 10.53 3.45993 9.87999 3.65993 9.37999C3.85993 8.87999 4.48993 8.58999 4.78993 8.12999C5.08993 7.66999 5.40993 7.27999 5.78993 6.88999C6.16993 6.49999 6.45993 6.01999 6.91993 5.71999C7.37993 5.41999 7.90993 5.28999 8.40993 5.07999C8.90993 4.86999 9.35993 4.51999 9.89993 4.40999C10.4399 4.29999 10.9799 4.10999 11.5399 4.10999C12.3699 4.10999 12.3699 4.46999 13.2099 4.46999C14.0499 4.46999 14.0399 4.27999 14.8799 4.27999C15.7199 4.27999 15.7099 4.50999 16.5499 4.50999C17.3899 4.50999 17.3899 4.04999 18.2199 4.04999C19.0499 4.04999 19.0599 4.21999 19.8899 4.21999C20.7199 4.21999 20.7299 4.25999 21.5599 4.25999C22.3899 4.25999 22.3999 4.08999 23.2299 4.08999C24.0599 4.08999 24.0699 4.45999 24.8999 4.45999C25.7299 4.45999 25.7399 4.11999 26.5699 4.11999C27.3999 4.11999 27.3999 4.06999 28.2399 4.06999C29.0799 4.06999 29.0699 4.15999 29.9099 4.15999C30.7499 4.15999 30.7399 4.27999 31.5799 4.27999C32.4199 4.27999 32.4099 4.07999 33.2499 4.07999C34.0899 4.07999 34.0799 4.51999 34.9199 4.51999C35.7599 4.51999 35.7499 4.30999 36.5899 4.30999C37.4299 4.30999 37.4199 4.35999 38.2599 4.35999C39.0999 4.35999 39.0899 4.24999 39.9299 4.24999C40.7699 4.24999 40.7599 4.39999 41.5999 4.39999C42.4399 4.39999 42.4299 4.34999 43.2699 4.34999C44.1099 4.34999 44.0999 4.17999 44.9399 4.17999C45.7799 4.17999 45.7799 4.17999 46.6099 4.17999C47.4399 4.17999 47.4499 4.42999 48.2799 4.42999C49.1099 4.42999 49.1199 4.08999 49.9499 4.08999C50.7799 4.08999 50.7899 4.18999 51.6199 4.18999C52.4499 4.18999 52.4599 4.47999 53.2899 4.47999C54.1199 4.47999 54.1299 4.07999 54.9599 4.07999C55.7899 4.07999 55.7999 4.18999 56.6299 4.18999C57.4599 4.18999 57.4699 4.13999 58.2999 4.13999C59.1299 4.13999 59.1299 4.30999 59.9699 4.30999C60.8099 4.30999 60.7999 4.25999 61.6399 4.25999C62.4799 4.25999 62.4699 4.49999 63.3099 4.49999C64.1499 4.49999 64.1399 4.09999 64.9799 4.09999C65.8199 4.09999 65.8099 4.40999 66.6499 4.40999C67.4899 4.40999 67.4799 4.50999 68.3199 4.50999C69.1599 4.50999 69.1499 4.06999 69.9899 4.06999C70.8299 4.06999 70.8199 4.34999 71.6599 4.34999C72.4999 4.34999 72.4899 4.10999 73.3299 4.10999C74.1699 4.10999 74.1599 4.33999 74.9999 4.33999C75.8399 4.33999 75.8299 4.55999 76.6699 4.55999C77.5099 4.55999 77.4999 4.40999 78.3399 4.40999C79.1799 4.40999 79.1699 4.45999 80.0099 4.45999C80.8499 4.45999 80.8399 4.27999 81.6799 4.27999C82.5199 4.27999 82.5099 4.31999 83.3499 4.31999C84.1899 4.31999 84.1799 4.53999 85.0199 4.53999C85.8599 4.53999 85.8499 4.44999 86.6899 4.44999C87.5299 4.44999 87.5199 4.29999 88.3599 4.29999C89.1999 4.29999 89.1899 4.08999 90.0299 4.08999C90.8699 4.08999 90.8599 4.24999 91.6999 4.24999C92.5399 4.24999 92.5399 4.39999 93.3699 4.39999C94.1999 4.39999 94.2099 4.16999 95.0399 4.16999C95.8699 4.16999 95.8799 4.14999 96.7099 4.14999C97.5399 4.14999 97.5499 4.22999 98.3799 4.22999C99.2099 4.22999 99.2199 4.07999 100.05 4.07999C100.88 4.07999 100.88 4.37999 101.72 4.37999C102.56 4.37999 102.55 4.07999 103.39 4.07999C104.23 4.07999 104.22 4.31999 105.06 4.31999C105.9 4.31999 105.89 4.08999 106.73 4.08999C107.57 4.08999 107.56 4.21999 108.4 4.21999C109.24 4.21999 109.23 4.21999 110.07 4.21999C110.91 4.21999 110.9 4.34999 111.74 4.34999C112.58 4.34999 112.57 4.46999 113.41 4.46999C114.25 4.46999 114.24 4.12999 115.08 4.12999C115.92 4.12999 115.91 4.07999 116.75 4.07999C117.59 4.07999 117.58 4.46999 118.42 4.46999C119.26 4.46999 119.25 4.34999 120.09 4.34999C120.93 4.34999 120.92 4.52999 121.76 4.52999C122.6 4.52999 122.6 4.38999 123.43 4.38999C124.26 4.38999 124.27 4.36999 125.1 4.36999C125.93 4.36999 125.94 4.27999 126.77 4.27999C127.6 4.27999 127.61 4.51999 128.44 4.51999C129.27 4.51999 129.28 4.30999 130.11 4.30999C130.94 4.30999 130.95 4.31999 131.78 4.31999C132.61 4.31999 132.62 4.13999 133.45 4.13999C134.28 4.13999 134.28 4.24999 135.12 4.24999C135.96 4.24999 135.95 4.20999 136.79 4.20999C137.63 4.20999 137.62 4.27999 138.46 4.27999C139.3 4.27999 139.29 4.54999 140.13 4.54999C140.97 4.54999 140.96 4.52999 141.8 4.52999C142.64 4.52999 142.64 4.44999 143.47 4.44999C144.3 4.44999 144.31 4.15999 145.14 4.15999C145.97 4.15999 145.98 4.25999 146.81 4.25999C147.64 4.25999 147.65 4.25999 148.48 4.25999C149.31 4.25999 149.32 4.54999 150.15 4.54999C150.98 4.54999 150.99 4.10999 151.82 4.10999C152.65 4.10999 152.66 4.14999 153.49 4.14999C154.32 4.14999 154.33 4.20999 155.16 4.20999C155.99 4.20999 156 4.18999 156.83 4.18999C157.66 4.18999 157.67 4.48999 158.5 4.48999C159.33 4.48999 159.34 4.38999 160.17 4.38999C161 4.38999 161.01 4.48999 161.84 4.48999C162.67 4.48999 162.68 4.45999 163.51 4.45999C164.34 4.45999 164.35 4.30999 165.18 4.30999C166.01 4.30999 166.02 4.25999 166.85 4.25999C167.68 4.25999 167.69 4.54999 168.52 4.54999C169.35 4.54999 169.36 4.31999 170.19 4.31999C171.02 4.31999 171.03 4.32999 171.86 4.32999C172.69 4.32999 172.7 4.21999 173.53 4.21999C174.36 4.21999 174.37 4.53999 175.2 4.53999C176.03 4.53999 176.04 4.12999 176.87 4.12999C177.7 4.12999 177.71 4.57999 178.54 4.57999C179.37 4.57999 179.38 4.18999 180.21 4.18999C181.04 4.18999 181.05 4.42999 181.88 4.42999C182.71 4.42999 182.72 4.16999 183.55 4.16999C184.38 4.16999 184.39 4.53999 185.22 4.53999C186.05 4.53999 186.06 4.27999 186.89 4.27999C187.72 4.27999 187.73 4.27999 188.56 4.27999C189.39 4.27999 189.4 4.16999 190.23 4.16999C191.06 4.16999 191.07 4.16999 191.9 4.16999C192.73 4.16999 192.74 4.26999 193.57 4.26999C194.4 4.26999 194.41 4.40999 195.24 4.40999C196.07 4.40999 196.08 4.11999 196.91 4.11999C197.74 4.11999 197.75 4.09999 198.58 4.09999C199.41 4.09999 199.41 4.55999 200.25 4.55999C201.09 4.55999 201.08 4.44999 201.92 4.44999C202.76 4.44999 202.76 4.45999 203.59 4.45999C204.42 4.45999 204.43 4.08999 205.26 4.08999C206.09 4.08999 206.1 4.53999 206.94 4.53999C207.78 4.53999 207.78 4.51999 208.61 4.51999C209.44 4.51999 209.45 4.35999 210.28 4.35999C211.11 4.35999 211.12 4.21999 211.95 4.21999C212.78 4.21999 212.79 4.10999 213.63 4.10999C214.47 4.10999 214.47 4.56999 215.3 4.56999C216.13 4.56999 216.14 4.25999 216.97 4.25999C217.8 4.25999 217.81 4.25999 218.64 4.25999C219.47 4.25999 219.48 4.53999 220.32 4.53999C221.16 4.53999 221.16 4.47999 221.99 4.47999C222.82 4.47999 222.83 4.33999 223.67 4.33999C224.51 4.33999 224.51 4.10999 225.35 4.10999C226.19 4.10999 226.19 4.58999 227.03 4.58999C227.87 4.58999 227.87 4.45999 228.7 4.45999C229.53 4.45999 229.54 4.48999 230.37 4.48999C231.2 4.48999 231.21 4.09999 232.05 4.09999C232.89 4.09999 232.89 4.26999 233.73 4.26999C234.57 4.26999 234.57 4.22999 235.41 4.22999C236.25 4.22999 236.25 4.27999 237.09 4.27999C237.93 4.27999 237.93 4.31999 238.77 4.31999C239.61 4.31999 239.61 4.23999 240.45 4.23999C241.29 4.23999 241.29 4.44999 242.13 4.44999C242.97 4.44999 242.97 4.10999 243.81 4.10999C244.37 4.10999 244.87 4.60999 245.4 4.71999C245.93 4.82999 246.47 4.87999 246.97 5.08999C247.47 5.29999 248.12 5.28999 248.57 5.58999C249.02 5.88999 249.5 6.24999 249.89 6.63999C250.28 7.02999 250.39 7.65999 250.69 8.11999C250.99 8.57999 251.44 8.95999 251.65 9.46999C251.86 9.97999 251.96 10.53 252.06 11.07C252.16 11.61 252.16 12.15 252.16 12.71C252.16 13.55 251.93 13.55 251.93 14.39C251.93 15.23 252.11 15.23 252.11 16.07C252.11 16.91 252.04 16.91 252.04 17.75C252.04 18.59 252.11 18.59 252.11 19.43C252.11 20.27 252.07 20.27 252.07 21.11C252.07 21.95 252.34 21.95 252.34 22.79C252.34 23.63 252.11 23.63 252.11 24.47C252.11 25.31 251.93 25.31 251.93 26.15C251.93 26.99 251.94 26.99 251.94 27.83C251.94 28.67 251.94 28.67 251.94 29.51C251.94 30.35 252.19 30.35 252.19 31.19C252.19 32.03 251.98 32.03 251.98 32.87C251.98 33.71 251.92 33.71 251.92 34.55C251.92 35.39 252.29 35.39 252.29 36.23C252.29 37.07 252.06 37.07 252.06 37.91C252.06 38.75 252.3 38.75 252.3 39.59C252.3 40.43 252.39 40.43 252.39 41.27C252.39 42.11 252.18 42.11 252.18 42.95C252.18 43.79 252 43.79 252 44.63C252 45.47 251.95 45.47 251.95 46.31C251.95 47.15 252.3 47.15 252.3 47.99C252.3 48.83 252.05 48.83 252.05 49.67C252.05 50.51 251.99 50.51 251.99 51.35C251.99 52.19 252.04 52.19 252.04 53.03C252.04 53.87 252.16 53.87 252.16 54.71C252.16 55.55 252.17 55.55 252.17 56.39C252.17 57.23 252.11 57.23 252.11 58.07C252.11 58.91 252.25 58.91 252.25 59.75C252.25 60.59 252.09 60.59 252.09 61.43C252.09 62.27 252.14 62.27 252.14 63.11C252.14 63.95 251.91 63.95 251.91 64.79C251.91 65.63 252.22 65.63 252.22 66.47C252.22 67.31 252.37 67.31 252.37 68.15C252.37 68.99 252.23 68.99 252.23 69.83C252.23 70.67 252.34 70.67 252.34 71.51C252.34 72.35 252.11 72.35 252.11 73.19C252.11 74.03 252.11 74.03 252.11 74.87C252.11 75.71 252.37 75.71 252.37 76.55C252.37 77.39 252.37 77.39 252.37 78.23C252.37 79.07 252.11 79.07 252.11 79.91C252.11 80.75 252.26 80.75 252.26 81.59C252.26 82.43 252.4 82.43 252.4 83.27C252.4 84.11 251.97 84.11 251.97 84.95C251.97 85.79 252.35 85.79 252.35 86.63C252.35 87.47 252.03 87.47 252.03 88.31C252.03 89.15 251.94 89.15 251.94 89.99C251.94 90.83 252.07 90.83 252.07 91.67C252.07 92.51 252.4 92.51 252.4 93.35C252.4 94.19 252.04 94.19 252.04 95.03C252.04 95.87 252.38 95.87 252.38 96.71C252.38 97.55 252.12 97.55 252.12 98.39C252.12 99.23 252.27 99.23 252.27 100.07C252.27 100.91 252.35 100.91 252.35 101.75C252.35 102.59 252.38 102.59 252.38 103.43C252.38 104.27 251.99 104.27 251.99 105.11C251.99 105.95 252.26 105.95 252.26 106.79C252.26 107.63 251.94 107.63 251.94 108.47C251.94 109.31 251.94 109.31 251.94 110.15C251.94 110.99 252.19 110.99 252.19 111.83C252.19 112.67 252.37 112.67 252.37 113.51C252.37 114.35 252.39 114.35 252.39 115.19C252.39 116.03 252.29 116.03 252.29 116.87C252.29 117.71 252.17 117.71 252.17 118.55C252.17 119.39 252.23 119.39 252.23 120.23C252.23 121.07 252.2 121.07 252.2 121.91C252.2 122.75 251.92 122.75 251.92 123.59C251.92 124.43 252.33 124.43 252.33 125.27C252.33 126.11 252.32 126.11 252.32 126.95C252.32 127.79 252.29 127.79 252.29 128.63C252.29 129.47 252.25 129.47 252.25 130.31C252.25 131.15 252.36 131.15 252.36 131.99C252.36 132.83 252.3 132.83 252.3 133.67C252.3 134.51 252.15 134.51 252.15 135.35C252.15 136.19 252.25 136.19 252.25 137.03C252.25 137.87 251.99 137.87 251.99 138.71C251.99 139.55 252.3 139.55 252.3 140.39C252.3 141.23 252.22 141.23 252.22 142.07C252.22 142.91 252.28 142.91 252.28 143.75C252.28 144.59 251.95 144.59 251.95 145.43C251.95 146.27 251.98 146.27 251.98 147.11C251.98 147.95 251.93 147.95 251.93 148.8C251.93 149.65 252.16 149.64 252.16 150.48C252.16 151.32 252.04 151.32 252.04 152.17C252.04 153.02 252.16 153.01 252.16 153.86C252.16 154.71 252.03 154.7 252.03 155.54C252.03 156.38 251.93 156.38 251.93 157.23C251.93 158.08 252.29 158.08 252.29 158.92C252.29 159.76 252.01 159.77 252.01 160.61C252.01 161.17 252.08 161.71 251.97 162.24C251.86 162.77 251.8 163.34 251.59 163.84C251.38 164.34 250.86 164.68 250.56 165.13C250.26 165.58 250.21 166.25 249.82 166.64C249.43 167.03 248.81 167.13 248.35 167.44C247.89 167.75 247.54 168.22 247.03 168.43C246.52 168.64 245.98 168.75 245.43 168.86C244.88 168.97 244.35 168.99 243.79 168.99L243.87 168.94Z" fill="#FB94AF"/>
<path d="M108.32 33.08H48.5299C41.7147 33.08 36.1899 38.6048 36.1899 45.42V80.77C36.1899 87.5852 41.7147 93.11 48.5299 93.11H108.32C115.135 93.11 120.66 87.5852 120.66 80.77V45.42C120.66 38.6048 115.135 33.08 108.32 33.08Z" fill="#9E204C"/>
<path d="M182.85 48.88H73.55C70.634 48.88 68.27 51.2439 68.27 54.16V124.19C68.27 127.106 70.634 129.47 73.55 129.47H182.85C185.766 129.47 188.13 127.106 188.13 124.19V54.16C188.13 51.2439 185.766 48.88 182.85 48.88Z" fill="white"/>
<path d="M128.55 82.44H135.97" stroke="#E4E7EF" stroke-width="0.78" stroke-miterlimit="10" stroke-linecap="round"/>
<path d="M131.64 90.76H135.97" stroke="#E4E7EF" stroke-width="0.78" stroke-miterlimit="10" stroke-linecap="round"/>
<path d="M133.1 98.89H135.97" stroke="#E4E7EF" stroke-width="0.78" stroke-miterlimit="10" stroke-linecap="round"/>
<path d="M131.64 108H135.97" stroke="#E4E7EF" stroke-width="0.78" stroke-miterlimit="10" stroke-linecap="round"/>
<path d="M130.74 116.13H135.97" stroke="#E4E7EF" stroke-width="0.78" stroke-miterlimit="10" stroke-linecap="round"/>
<path d="M180.63 94.74H75.77" stroke="#E4E7EF" stroke-width="0.26" stroke-miterlimit="10" stroke-linecap="round"/>
<path d="M180.63 86.18H75.77" stroke="#E4E7EF" stroke-width="0.26" stroke-miterlimit="10" stroke-linecap="round"/>
<path d="M180.63 77.61H75.77" stroke="#E4E7EF" stroke-width="0.26" stroke-miterlimit="10" stroke-linecap="round"/>
<path d="M180.63 103.31H75.77" stroke="#E4E7EF" stroke-width="0.26" stroke-miterlimit="10" stroke-linecap="round"/>
<path d="M180.63 111.87H75.77" stroke="#E4E7EF" stroke-width="0.26" stroke-miterlimit="10" stroke-linecap="round"/>
<path d="M180.63 120.44H75.77" stroke="#E4E7EF" stroke-width="0.26" stroke-miterlimit="10" stroke-linecap="round"/>
<path d="M78.3401 73.45H90.9201" stroke="#B6C1DD" stroke-width="0.78" stroke-miterlimit="10" stroke-linecap="round"/>
<path d="M78.3401 81.97H85.6801" stroke="#B6C1DD" stroke-width="0.78" stroke-miterlimit="10" stroke-linecap="round"/>
<path d="M78.3401 90.48H83.2001" stroke="#B6C1DD" stroke-width="0.78" stroke-miterlimit="10" stroke-linecap="round"/>
<path d="M78.3401 99H89.2101" stroke="#B6C1DD" stroke-width="0.78" stroke-miterlimit="10" stroke-linecap="round"/>
<path d="M78.3401 107.62H85.6801" stroke="#B6C1DD" stroke-width="0.78" stroke-miterlimit="10" stroke-linecap="round"/>
<path d="M78.3401 116.13H87.2101" stroke="#B6C1DD" stroke-width="0.78" stroke-miterlimit="10" stroke-linecap="round"/>
<path d="M119.5 83.23V80.71C119.5 79.9423 118.878 79.32 118.11 79.32H100.87C100.102 79.32 99.48 79.9423 99.48 80.71V83.23C99.48 83.9977 100.102 84.62 100.87 84.62H118.11C118.878 84.62 119.5 83.9977 119.5 83.23Z" fill="#F84D79"/>
<path d="M115.49 91.67V89.15C115.49 88.3823 114.868 87.76 114.1 87.76H100.87C100.102 87.76 99.48 88.3823 99.48 89.15V91.67C99.48 92.4377 100.102 93.06 100.87 93.06H114.1C114.868 93.06 115.49 92.4377 115.49 91.67Z" fill="#F84D79"/>
<path d="M113.71 100.11V97.59C113.71 96.8223 113.088 96.2 112.32 96.2H100.87C100.102 96.2 99.48 96.8223 99.48 97.59V100.11C99.48 100.878 100.102 101.5 100.87 101.5H112.32C113.088 101.5 113.71 100.878 113.71 100.11Z" fill="#F84D79"/>
<path d="M110.69 108.87V106.35C110.69 105.582 110.068 104.96 109.3 104.96H100.88C100.112 104.96 99.4899 105.582 99.4899 106.35V108.87C99.4899 109.638 100.112 110.26 100.88 110.26H109.3C110.068 110.26 110.69 109.638 110.69 108.87Z" fill="#F84D79"/>
<path d="M106.4 117.39V114.87C106.4 114.102 105.778 113.48 105.01 113.48H100.87C100.102 113.48 99.4799 114.102 99.4799 114.87V117.39C99.4799 118.158 100.102 118.78 100.87 118.78H105.01C105.778 118.78 106.4 118.158 106.4 117.39Z" fill="#F84D79"/>
<path d="M171.28 82.44H178.7" stroke="#E4E7EF" stroke-width="0.78" stroke-miterlimit="10" stroke-linecap="round"/>
<path d="M174.37 90.76H178.7" stroke="#E4E7EF" stroke-width="0.78" stroke-miterlimit="10" stroke-linecap="round"/>
<path d="M175.83 98.89H178.7" stroke="white" stroke-width="0.78" stroke-miterlimit="10" stroke-linecap="round"/>
<path d="M174.37 108H178.7" stroke="white" stroke-width="0.78" stroke-miterlimit="10" stroke-linecap="round"/>
<path d="M173.47 116.13H178.7" stroke="white" stroke-width="0.78" stroke-miterlimit="10" stroke-linecap="round"/>
<path d="M162.23 83.23V80.71C162.23 79.9423 161.608 79.32 160.84 79.32H143.6C142.832 79.32 142.21 79.9423 142.21 80.71V83.23C142.21 83.9977 142.832 84.62 143.6 84.62H160.84C161.608 84.62 162.23 83.9977 162.23 83.23Z" fill="#E4E7EF"/>
<path d="M158.22 91.67V89.15C158.22 88.3823 157.598 87.76 156.83 87.76H143.6C142.832 87.76 142.21 88.3823 142.21 89.15V91.67C142.21 92.4377 142.832 93.06 143.6 93.06H156.83C157.598 93.06 158.22 92.4377 158.22 91.67Z" fill="#E4E7EF"/>
<path d="M156.44 100.11V97.59C156.44 96.8224 155.818 96.2 155.05 96.2H143.6C142.832 96.2 142.21 96.8224 142.21 97.59V100.11C142.21 100.878 142.832 101.5 143.6 101.5H155.05C155.818 101.5 156.44 100.878 156.44 100.11Z" fill="#E4E7EF"/>
<path d="M153.42 108.88V106.36C153.42 105.592 152.798 104.97 152.03 104.97H143.61C142.842 104.97 142.22 105.592 142.22 106.36V108.88C142.22 109.648 142.842 110.27 143.61 110.27H152.03C152.798 110.27 153.42 109.648 153.42 108.88Z" fill="#E4E7EF"/>
<path d="M149.13 117.39V114.87C149.13 114.102 148.508 113.48 147.74 113.48H143.6C142.832 113.48 142.21 114.102 142.21 114.87V117.39C142.21 118.158 142.832 118.78 143.6 118.78H147.74C148.508 118.78 149.13 118.158 149.13 117.39Z" fill="#E4E7EF"/>
<path d="M80.6201 59.47H88.4201" stroke="#E4E7EF" stroke-width="1.25" stroke-miterlimit="10" stroke-linecap="round"/>
<path d="M117.9 59.47H126.65" stroke="#E4E7EF" stroke-width="1.25" stroke-miterlimit="10" stroke-linecap="round"/>
<path d="M78.1001 58.23H75.6201V60.71H78.1001V58.23Z" fill="#F84D79"/>
<path d="M115.37 58.23H112.89V60.71H115.37V58.23Z" fill="#E4E7EF"/>
<path d="M161.93 120.4C161.93 103.08 179.33 86.4 196.65 86.4C213.97 86.4 225.98 100.38 225.98 117.7C225.98 135.02 211.94 149.06 194.62 149.06C177.3 149.06 161.93 137.72 161.93 120.39V120.4Z" fill="#F84D79"/>
<path d="M198.21 131.73C196.72 131.73 195.51 130.52 195.51 129.03C195.51 128.31 195.79 127.63 196.3 127.12C196.81 126.61 197.49 126.33 198.21 126.33H209.67C211.16 126.33 212.37 127.54 212.37 129.03C212.37 130.52 211.16 131.73 209.67 131.73H198.21Z" fill="#9E204C"/>
<path d="M182.3 131.73C180.81 131.73 179.6 130.52 179.6 129.03C179.6 128.31 179.88 127.63 180.39 127.12C180.9 126.61 181.58 126.33 182.3 126.33H202.58V131.74H182.3V131.73Z" fill="#9E204C"/>
<path d="M204.02 120.42C202.53 120.42 201.32 119.21 201.32 117.72C201.32 117 201.6 116.32 202.11 115.81C202.62 115.3 203.3 115.02 204.02 115.02H209.67C211.16 115.02 212.37 116.23 212.37 117.72C212.37 119.21 211.16 120.42 209.67 120.42H204.02Z" fill="#9E204C"/>
<path d="M190.81 109.12C189.32 109.12 188.11 107.91 188.11 106.42C188.11 105.7 188.39 105.02 188.9 104.51C189.41 104 190.09 103.72 190.81 103.72H209.67C211.16 103.72 212.37 104.93 212.37 106.42C212.37 107.91 211.16 109.12 209.67 109.12H190.81Z" fill="#9E204C"/>
<path d="M182.3 120.42C180.81 120.42 179.6 119.21 179.6 117.72C179.6 117 179.88 116.32 180.39 115.81C180.9 115.3 181.58 115.02 182.3 115.02H202.14V120.43H182.3V120.42Z" fill="#9E204C"/>
<path d="M182.3 109.12C180.81 109.12 179.6 107.91 179.6 106.42C179.6 105.7 179.88 105.02 180.39 104.51C180.9 104 181.58 103.72 182.3 103.72H194.94V109.13H182.3V109.12Z" fill="#9E204C"/>
<path d="M193.85 110.24C191.74 110.24 190.02 108.52 190.02 106.41C190.02 104.3 191.74 102.58 193.85 102.58C195.96 102.58 197.68 104.3 197.68 106.41C197.68 108.52 195.96 110.24 193.85 110.24Z" fill="white"/>
<path d="M193.85 103.04C195.71 103.04 197.22 104.55 197.22 106.41C197.22 108.27 195.71 109.78 193.85 109.78C191.99 109.78 190.48 108.27 190.48 106.41C190.48 104.55 191.99 103.04 193.85 103.04ZM193.85 102.13C191.49 102.13 189.57 104.05 189.57 106.41C189.57 108.77 191.49 110.69 193.85 110.69C196.21 110.69 198.13 108.77 198.13 106.41C198.13 104.05 196.21 102.13 193.85 102.13Z" fill="#F84D79"/>
<path d="M202.81 121.43C200.7 121.43 198.98 119.71 198.98 117.6C198.98 115.49 200.7 113.77 202.81 113.77C204.92 113.77 206.64 115.49 206.64 117.6C206.64 119.71 204.92 121.43 202.81 121.43Z" fill="white"/>
<path d="M202.81 114.23C204.67 114.23 206.18 115.74 206.18 117.6C206.18 119.46 204.67 120.97 202.81 120.97C200.95 120.97 199.44 119.46 199.44 117.6C199.44 115.74 200.95 114.23 202.81 114.23ZM202.81 113.32C200.45 113.32 198.53 115.24 198.53 117.6C198.53 119.96 200.45 121.88 202.81 121.88C205.17 121.88 207.09 119.96 207.09 117.6C207.09 115.24 205.17 113.32 202.81 113.32Z" fill="#F84D79"/>
<path d="M188.93 132.89C186.82 132.89 185.1 131.17 185.1 129.06C185.1 126.95 186.82 125.23 188.93 125.23C191.04 125.23 192.76 126.95 192.76 129.06C192.76 131.17 191.04 132.89 188.93 132.89Z" fill="white"/>
<path d="M188.93 125.69C190.79 125.69 192.3 127.2 192.3 129.06C192.3 130.92 190.79 132.43 188.93 132.43C187.07 132.43 185.56 130.92 185.56 129.06C185.56 127.2 187.07 125.69 188.93 125.69ZM188.93 124.78C186.57 124.78 184.65 126.7 184.65 129.06C184.65 131.42 186.57 133.34 188.93 133.34C191.29 133.34 193.21 131.42 193.21 129.06C193.21 126.7 191.29 124.78 188.93 124.78Z" fill="#F84D79"/>
</g>
<defs>
<clipPath id="clip0_569_3002">
<rect width="256" height="172" fill="white"/>
</clipPath>
</defs>
</svg>
