<svg width="256" height="172" viewBox="0 0 256 172" fill="none" xmlns="http://www.w3.org/2000/svg">
<g clip-path="url(#clip0_569_3069)">
<rect width="256" height="172" fill="white"/>
<path d="M11.4599 3.7C12.2899 3.7 12.2899 3.76 13.1299 3.76C13.9699 3.76 13.9599 3.55 14.7999 3.55C15.6399 3.55 15.6299 3.49 16.4699 3.49C17.3099 3.49 17.3099 3.89 18.1399 3.89C18.9699 3.89 18.9799 3.79 19.8099 3.79C20.6399 3.79 20.6499 3.64 21.4799 3.64C22.3099 3.64 22.3199 3.96 23.1499 3.96C23.9799 3.96 23.9899 3.92 24.8199 3.92C25.6499 3.92 25.6599 3.52 26.4899 3.52C27.3199 3.52 27.3199 3.49 28.1599 3.49C28.9999 3.49 28.9899 3.66 29.8299 3.66C30.6699 3.66 30.6599 3.85 31.4999 3.85C32.3399 3.85 32.3299 3.75 33.1699 3.75C34.0099 3.75 33.9999 3.59 34.8399 3.59C35.6799 3.59 35.6699 3.59 36.5099 3.59C37.3499 3.59 37.3399 3.59 38.1799 3.59C39.0199 3.59 39.0099 3.51 39.8499 3.51C40.6899 3.51 40.6799 3.65 41.5199 3.65C42.3599 3.65 42.3499 3.45 43.1899 3.45C44.0299 3.45 44.0199 3.74 44.8599 3.74C45.6999 3.74 45.6999 3.82 46.5299 3.82C47.3599 3.82 47.3699 3.51 48.1999 3.51C49.0299 3.51 49.0399 3.69 49.8699 3.69C50.6999 3.69 50.7099 3.9 51.5399 3.9C52.3699 3.9 52.3799 3.54 53.2099 3.54C54.0399 3.54 54.0499 3.81 54.8799 3.81C55.7099 3.81 55.7199 3.56 56.5499 3.56C57.3799 3.56 57.3899 3.66 58.2199 3.66C59.0499 3.66 59.0499 3.57 59.8899 3.57C60.7299 3.57 60.7199 3.44 61.5599 3.44C62.3999 3.44 62.3899 3.7 63.2299 3.7C64.0699 3.7 64.0599 3.57 64.8999 3.57C65.7399 3.57 65.7299 3.77 66.5699 3.77C67.4099 3.77 67.3999 3.45 68.2399 3.45C69.0799 3.45 69.0699 3.65 69.9099 3.65C70.7499 3.65 70.7399 3.91 71.5799 3.91C72.4199 3.91 72.4099 3.89 73.2499 3.89C74.0899 3.89 74.0799 3.63 74.9199 3.63C75.7599 3.63 75.7499 3.91 76.5899 3.91C77.4299 3.91 77.4199 3.54 78.2599 3.54C79.0999 3.54 79.0899 3.54 79.9299 3.54C80.7699 3.54 80.7599 3.47 81.5999 3.47C82.4399 3.47 82.4299 3.94 83.2699 3.94C84.1099 3.94 84.0999 3.65 84.9399 3.65C85.7799 3.65 85.7699 3.89 86.6099 3.89C87.4499 3.89 87.4399 3.55 88.2799 3.55C89.1199 3.55 89.1099 3.58 89.9499 3.58C90.7899 3.58 90.7799 3.71 91.6199 3.71C92.4599 3.71 92.4599 3.54 93.2899 3.54C94.1199 3.54 94.1299 3.66 94.9599 3.66C95.7899 3.66 95.7999 3.9 96.6299 3.9C97.4599 3.9 97.4699 3.84 98.2999 3.84C99.1299 3.84 99.1399 3.89 99.9699 3.89C100.8 3.89 100.8 3.72 101.64 3.72C102.48 3.72 102.47 3.54 103.31 3.54C104.15 3.54 104.14 3.54 104.98 3.54C105.82 3.54 105.81 3.95 106.65 3.95C107.49 3.95 107.48 3.78 108.32 3.78C109.16 3.78 109.15 3.8 109.99 3.8C110.83 3.8 110.82 3.89 111.66 3.89C112.5 3.89 112.49 3.78 113.33 3.78C114.17 3.78 114.16 3.65 115 3.65C115.84 3.65 115.83 3.77 116.67 3.77C117.51 3.77 117.5 3.71 118.34 3.71C119.18 3.71 119.17 3.58 120.01 3.58C120.85 3.58 120.84 3.92 121.68 3.92C122.52 3.92 122.52 3.7 123.35 3.7C124.18 3.7 124.19 3.86 125.02 3.86C125.85 3.86 125.86 3.76 126.69 3.76C127.52 3.76 127.53 3.5 128.36 3.5C129.19 3.5 129.2 3.81 130.03 3.81C130.86 3.81 130.87 3.47 131.7 3.47C132.53 3.47 132.54 3.77 133.37 3.77C134.2 3.77 134.2 3.9 135.04 3.9C135.88 3.9 135.87 3.87 136.71 3.87C137.55 3.87 137.54 3.48 138.38 3.48C139.22 3.48 139.21 3.62 140.05 3.62C140.89 3.62 140.88 3.86 141.72 3.86C142.56 3.86 142.56 3.67 143.39 3.67C144.22 3.67 144.23 3.73 145.06 3.73C145.89 3.73 145.9 3.94 146.73 3.94C147.56 3.94 147.57 3.54 148.4 3.54C149.23 3.54 149.24 3.7 150.07 3.7C150.9 3.7 150.91 3.84 151.74 3.84C152.57 3.84 152.58 3.91 153.41 3.91C154.24 3.91 154.25 3.88 155.08 3.88C155.91 3.88 155.92 3.72 156.75 3.72C157.58 3.72 157.59 3.86 158.42 3.86C159.25 3.86 159.26 3.46 160.09 3.46C160.92 3.46 160.93 3.48 161.76 3.48C162.59 3.48 162.6 3.5 163.43 3.5C164.26 3.5 164.27 3.71 165.1 3.71C165.93 3.71 165.94 3.54 166.77 3.54C167.6 3.54 167.61 3.87 168.44 3.87C169.27 3.87 169.28 3.91 170.11 3.91C170.94 3.91 170.95 3.54 171.78 3.54C172.61 3.54 172.62 3.91 173.45 3.91C174.28 3.91 174.29 3.7 175.12 3.7C175.95 3.7 175.96 3.7 176.79 3.7C177.62 3.7 177.63 3.52 178.46 3.52C179.29 3.52 179.3 3.75 180.13 3.75C180.96 3.75 180.97 3.72 181.8 3.72C182.63 3.72 182.64 3.51 183.47 3.51C184.3 3.51 184.31 3.48 185.14 3.48C185.97 3.48 185.98 3.92 186.81 3.92C187.64 3.92 187.65 3.85 188.48 3.85C189.31 3.85 189.32 3.6 190.15 3.6C190.98 3.6 190.99 3.7 191.82 3.7C192.65 3.7 192.66 3.75 193.49 3.75C194.32 3.75 194.33 3.54 195.16 3.54C195.99 3.54 196 3.76 196.83 3.76C197.66 3.76 197.67 3.66 198.5 3.66C199.33 3.66 199.33 3.83 200.17 3.83C201.01 3.83 201 3.57 201.84 3.57C202.68 3.57 202.68 3.95 203.51 3.95C204.34 3.95 204.35 3.49 205.18 3.49C206.01 3.49 206.02 3.49 206.86 3.49C207.7 3.49 207.7 3.88 208.53 3.88C209.36 3.88 209.37 3.5 210.2 3.5C211.03 3.5 211.04 3.92 211.87 3.92C212.7 3.92 212.71 3.86 213.55 3.86C214.39 3.86 214.39 3.69 215.22 3.69C216.05 3.69 216.06 3.54 216.89 3.54C217.72 3.54 217.73 3.6 218.56 3.6C219.39 3.6 219.4 3.57 220.24 3.57C221.08 3.57 221.08 3.66 221.91 3.66C222.74 3.66 222.75 3.6 223.59 3.6C224.43 3.6 224.43 3.56 225.27 3.56C226.11 3.56 226.11 3.63 226.95 3.63C227.79 3.63 227.79 3.5 228.62 3.5C229.45 3.5 229.46 3.68 230.29 3.68C231.12 3.68 231.13 3.49 231.97 3.49C232.81 3.49 232.81 3.59 233.65 3.59C234.49 3.59 234.49 3.94 235.33 3.94C236.17 3.94 236.17 3.56 237.01 3.56C237.85 3.56 237.85 3.82 238.69 3.82C239.53 3.82 239.53 3.75 240.37 3.75C241.21 3.75 241.21 3.72 242.05 3.72C242.89 3.72 242.89 3.63 243.73 3.63C244.29 3.63 244.82 3.85 245.35 3.96C245.88 4.07 246.4 4.22 246.9 4.43C247.4 4.64 247.99 4.73 248.44 5.04C248.89 5.35 249.19 5.86 249.57 6.25C249.95 6.64 250.25 7.08 250.56 7.53C250.87 7.98 251.24 8.38 251.46 8.89C251.68 9.4 251.81 9.92 251.91 10.46C252.01 11 252.3 11.53 252.3 12.09C252.3 12.93 252.22 12.93 252.22 13.77C252.22 14.61 251.99 14.61 251.99 15.45C251.99 16.29 252.32 16.29 252.32 17.13C252.32 17.97 252.19 17.97 252.19 18.81C252.19 19.65 252.21 19.65 252.21 20.49C252.21 21.33 251.99 21.33 251.99 22.17C251.99 23.01 251.9 23.01 251.9 23.85C251.9 24.69 252.25 24.69 252.25 25.53C252.25 26.37 252.19 26.37 252.19 27.21C252.19 28.05 252.08 28.05 252.08 28.89C252.08 29.73 252.26 29.73 252.26 30.57C252.26 31.41 251.99 31.41 251.99 32.25C251.99 33.09 252.24 33.09 252.24 33.93C252.24 34.77 252.33 34.77 252.33 35.61C252.33 36.45 252.14 36.45 252.14 37.29C252.14 38.13 251.87 38.13 251.87 38.97C251.87 39.81 251.89 39.81 251.89 40.65C251.89 41.49 252.19 41.49 252.19 42.33C252.19 43.17 252.06 43.17 252.06 44.01C252.06 44.85 252.25 44.85 252.25 45.69C252.25 46.53 252.19 46.53 252.19 47.37C252.19 48.21 252.35 48.21 252.35 49.05C252.35 49.89 252.12 49.89 252.12 50.73C252.12 51.57 251.97 51.57 251.97 52.41C251.97 53.25 252.33 53.25 252.33 54.09C252.33 54.93 252.28 54.93 252.28 55.77C252.28 56.61 252.17 56.61 252.17 57.45C252.17 58.29 251.89 58.29 251.89 59.13C251.89 59.97 252.13 59.97 252.13 60.81C252.13 61.65 252.17 61.65 252.17 62.49C252.17 63.33 251.92 63.33 251.92 64.17C251.92 65.01 252.12 65.01 252.12 65.85C252.12 66.69 252.08 66.69 252.08 67.53C252.08 68.37 252.33 68.37 252.33 69.21C252.33 70.05 252.12 70.05 252.12 70.89C252.12 71.73 252.23 71.73 252.23 72.57C252.23 73.41 251.99 73.41 251.99 74.25C251.99 75.09 252.19 75.09 252.19 75.93C252.19 76.77 252.27 76.77 252.27 77.61C252.27 78.45 252.13 78.45 252.13 79.29C252.13 80.13 252.22 80.13 252.22 80.97C252.22 81.81 252.11 81.81 252.11 82.65C252.11 83.49 252.13 83.49 252.13 84.33C252.13 85.17 252.04 85.17 252.04 86.01C252.04 86.85 251.9 86.85 251.9 87.69C251.9 88.53 252.04 88.53 252.04 89.37C252.04 90.21 252.31 90.21 252.31 91.05C252.31 91.89 252.07 91.89 252.07 92.73C252.07 93.57 252.07 93.57 252.07 94.41C252.07 95.25 252.3 95.25 252.3 96.09C252.3 96.93 251.94 96.93 251.94 97.77C251.94 98.61 252.03 98.61 252.03 99.45C252.03 100.29 252.31 100.29 252.31 101.13C252.31 101.97 252 101.97 252 102.81C252 103.65 252.02 103.65 252.02 104.49C252.02 105.33 252.3 105.33 252.3 106.17C252.3 107.01 252.16 107.01 252.16 107.85C252.16 108.69 252.3 108.69 252.3 109.53C252.3 110.37 251.97 110.37 251.97 111.21C251.97 112.05 251.97 112.05 251.97 112.89C251.97 113.73 251.91 113.73 251.91 114.57C251.91 115.41 252.13 115.41 252.13 116.25C252.13 117.09 252.1 117.09 252.1 117.93C252.1 118.77 252.13 118.77 252.13 119.61C252.13 120.45 252.13 120.45 252.13 121.29C252.13 122.13 252.06 122.13 252.06 122.97C252.06 123.81 252.33 123.81 252.33 124.65C252.33 125.49 252.35 125.49 252.35 126.33C252.35 127.17 252.4 127.17 252.4 128.01C252.4 128.85 252.32 128.85 252.32 129.69C252.32 130.53 252.07 130.53 252.07 131.37C252.07 132.21 251.97 132.21 251.97 133.05C251.97 133.89 252.3 133.89 252.3 134.73C252.3 135.57 251.9 135.57 251.9 136.41C251.9 137.25 252.03 137.25 252.03 138.09C252.03 138.93 252.04 138.93 252.04 139.77C252.04 140.61 251.97 140.61 251.97 141.45C251.97 142.29 251.97 142.29 251.97 143.13C251.97 143.97 252.23 143.97 252.23 144.81C252.23 145.65 252.1 145.65 252.1 146.49C252.1 147.33 252.23 147.33 252.23 148.18C252.23 149.03 252.1 149.02 252.1 149.86C252.1 150.7 252.19 150.7 252.19 151.55C252.19 152.4 252.17 152.39 252.17 153.24C252.17 154.09 252.29 154.08 252.29 154.92C252.29 155.76 252.27 155.76 252.27 156.61C252.27 157.46 251.95 157.46 251.95 158.3C251.95 159.14 252.04 159.15 252.04 159.99C252.04 160.55 251.88 161.05 251.78 161.58C251.68 162.11 251.87 162.76 251.67 163.26C251.47 163.76 250.84 164.05 250.54 164.51C250.24 164.97 249.92 165.36 249.54 165.75C249.16 166.14 248.87 166.62 248.41 166.92C247.95 167.22 247.42 167.35 246.92 167.56C246.42 167.77 245.97 168.12 245.43 168.23C244.89 168.34 244.35 168.53 243.79 168.53C242.96 168.53 242.96 168.17 242.12 168.17C241.28 168.17 241.29 168.36 240.45 168.36C239.61 168.36 239.62 168.13 238.78 168.13C237.94 168.13 237.94 168.59 237.11 168.59C236.27 168.59 236.27 168.42 235.44 168.42C234.61 168.42 234.6 168.38 233.77 168.38C232.93 168.38 232.93 168.55 232.1 168.55C231.27 168.55 231.26 168.18 230.43 168.18C229.6 168.18 229.59 168.52 228.76 168.52C227.93 168.52 227.93 168.57 227.09 168.57C226.25 168.57 226.26 168.48 225.42 168.48C224.58 168.48 224.59 168.36 223.75 168.36C222.91 168.36 222.92 168.56 222.08 168.56C221.24 168.56 221.25 168.12 220.41 168.12C219.57 168.12 219.58 168.33 218.74 168.33C217.9 168.33 217.91 168.28 217.07 168.28C216.23 168.28 216.24 168.39 215.4 168.39C214.56 168.39 214.57 168.24 213.73 168.24C212.89 168.24 212.9 168.29 212.06 168.29C211.22 168.29 211.23 168.46 210.39 168.46C209.55 168.46 209.55 168.46 208.72 168.46C207.89 168.46 207.88 168.21 207.05 168.21C206.21 168.21 206.21 168.55 205.38 168.55C204.55 168.55 204.54 168.45 203.71 168.45C202.87 168.45 202.87 168.16 202.04 168.16C201.21 168.16 201.2 168.56 200.37 168.56C199.54 168.56 199.53 168.45 198.7 168.45C197.87 168.45 197.86 168.5 197.03 168.5C196.2 168.5 196.2 168.33 195.36 168.33C194.52 168.33 194.53 168.38 193.69 168.38C192.85 168.38 192.86 168.14 192.02 168.14C191.19 168.14 191.19 168.54 190.35 168.54C189.51 168.54 189.52 168.23 188.68 168.23C187.84 168.23 187.85 168.13 187.01 168.13C186.17 168.13 186.18 168.57 185.34 168.57C184.51 168.57 184.51 168.29 183.67 168.29C182.83 168.29 182.84 168.53 182 168.53C181.16 168.53 181.17 168.3 180.33 168.3C179.49 168.3 179.5 168.08 178.66 168.08C177.83 168.08 177.83 168.23 176.99 168.23C176.15 168.23 176.16 168.18 175.32 168.18C174.48 168.18 174.49 168.36 173.65 168.36C172.81 168.36 172.82 168.32 171.98 168.32C171.14 168.32 171.15 168.1 170.31 168.1C169.47 168.1 169.48 168.19 168.64 168.19C167.81 168.19 167.81 168.34 166.97 168.34C166.13 168.34 166.14 168.55 165.3 168.55C164.46 168.55 164.47 168.39 163.63 168.39C162.79 168.39 162.79 168.24 161.96 168.24C161.13 168.24 161.12 168.47 160.29 168.47C159.46 168.47 159.45 168.49 158.62 168.49C157.78 168.49 157.78 168.41 156.95 168.41C156.11 168.41 156.11 168.56 155.28 168.56C154.45 168.56 154.45 168.26 153.61 168.26C152.77 168.26 152.78 168.56 151.94 168.56C151.1 168.56 151.11 168.32 150.27 168.32C149.43 168.32 149.44 168.55 148.6 168.55C147.76 168.55 147.77 168.42 146.93 168.42C146.09 168.42 146.1 168.42 145.26 168.42C144.42 168.42 144.43 168.29 143.59 168.29C142.75 168.29 142.76 168.17 141.92 168.17C141.08 168.17 141.09 168.51 140.25 168.51C139.41 168.51 139.42 168.56 138.58 168.56C137.74 168.56 137.75 168.17 136.91 168.17C136.07 168.17 136.08 168.29 135.24 168.29C134.41 168.29 134.41 168.11 133.57 168.11C132.73 168.11 132.73 168.25 131.9 168.25C131.07 168.25 131.06 168.27 130.23 168.27C129.4 168.27 129.39 168.36 128.56 168.36C127.73 168.36 127.72 168.12 126.89 168.12C126.06 168.12 126.05 168.33 125.22 168.33C124.39 168.33 124.38 168.32 123.55 168.32C122.72 168.32 122.71 168.5 121.88 168.5C121.05 168.5 121.05 168.39 120.21 168.39C119.37 168.39 119.38 168.43 118.54 168.43C117.7 168.43 117.71 168.36 116.87 168.36C116.03 168.36 116.04 168.09 115.2 168.09C114.36 168.09 114.37 168.11 113.53 168.11C112.69 168.11 112.69 168.19 111.86 168.19C111.03 168.19 111.02 168.48 110.19 168.48C109.36 168.48 109.35 168.38 108.52 168.38C107.69 168.38 107.68 168.38 106.85 168.38C106.02 168.38 106.01 168.09 105.18 168.09C104.35 168.09 104.34 168.53 103.51 168.53C102.68 168.53 102.67 168.49 101.84 168.49C101.01 168.49 101 168.43 100.17 168.43C99.3399 168.43 99.3299 168.45 98.4999 168.45C97.6699 168.45 97.6599 168.15 96.8299 168.15C95.9999 168.15 95.9899 168.25 95.1599 168.25C94.3299 168.25 94.3199 168.15 93.4899 168.15C92.6599 168.15 92.6499 168.18 91.8199 168.18C90.9899 168.18 90.9799 168.33 90.1499 168.33C89.3199 168.33 89.3099 168.38 88.4799 168.38C87.6499 168.38 87.6399 168.09 86.8099 168.09C85.9799 168.09 85.9699 168.32 85.1399 168.32C84.3099 168.32 84.2999 168.31 83.4699 168.31C82.6399 168.31 82.6299 168.42 81.7999 168.42C80.9699 168.42 80.9599 168.1 80.1299 168.1C79.2999 168.1 79.2899 168.51 78.4599 168.51C77.6299 168.51 77.6199 168.06 76.7899 168.06C75.9599 168.06 75.9499 168.45 75.1199 168.45C74.2899 168.45 74.2799 168.21 73.4499 168.21C72.6199 168.21 72.6099 168.47 71.7799 168.47C70.9499 168.47 70.9399 168.1 70.1099 168.1C69.2799 168.1 69.2699 168.36 68.4399 168.36C67.6099 168.36 67.5999 168.36 66.7699 168.36C65.9299 168.36 65.9299 168.47 65.0999 168.47C64.2599 168.47 64.2599 168.47 63.4299 168.47C62.5999 168.47 62.5899 168.37 61.7599 168.37C60.9299 168.37 60.9199 168.23 60.0899 168.23C59.2599 168.23 59.2499 168.52 58.4199 168.52C57.5899 168.52 57.5799 168.54 56.7499 168.54C55.9199 168.54 55.9199 168.08 55.0799 168.08C54.2399 168.08 54.2499 168.19 53.4099 168.19C52.5699 168.19 52.5699 168.18 51.7399 168.18C50.9099 168.18 50.8999 168.55 50.0699 168.55C49.2399 168.55 49.2299 168.1 48.3899 168.1C47.5499 168.1 47.5499 168.12 46.7199 168.12C45.8899 168.12 45.8799 168.28 45.0499 168.28C44.2199 168.28 44.2099 168.42 43.3799 168.42C42.5499 168.42 42.5399 168.53 41.6999 168.53C40.8599 168.53 40.8599 168.07 40.0299 168.07C39.1999 168.07 39.1899 168.38 38.3599 168.38C37.5299 168.38 37.5199 168.38 36.6899 168.38C35.8599 168.38 35.8499 168.1 35.0099 168.1C34.1699 168.1 34.1699 168.16 33.3399 168.16C32.5099 168.16 32.4999 168.3 31.6599 168.3C30.8199 168.3 30.8199 168.53 29.9799 168.53C29.1399 168.53 29.1399 168.05 28.2999 168.05C27.4599 168.05 27.4599 168.18 26.6299 168.18C25.7999 168.18 25.7899 168.15 24.9599 168.15C24.1299 168.15 24.1199 168.54 23.2799 168.54C22.4399 168.54 22.4399 168.37 21.5999 168.37C20.7599 168.37 20.7599 168.41 19.9199 168.41C19.0799 168.41 19.0799 168.36 18.2399 168.36C17.3999 168.36 17.3999 168.32 16.5599 168.32C15.7199 168.32 15.7199 168.4 14.8799 168.4C14.0399 168.4 14.0399 168.19 13.1999 168.19C12.3599 168.19 12.3599 168.53 11.5199 168.53C10.9599 168.53 10.4599 168.03 9.92993 167.92C9.39993 167.81 8.85993 167.76 8.35993 167.55C7.85993 167.34 7.20993 167.35 6.75993 167.05C6.30993 166.75 5.82993 166.39 5.43993 166C5.04993 165.61 4.93993 164.98 4.63993 164.52C4.33993 164.06 3.88993 163.68 3.67993 163.17C3.46993 162.66 3.36993 162.11 3.26993 161.57C3.16993 161.03 3.16993 160.49 3.16993 159.93C3.16993 159.09 3.39993 159.09 3.39993 158.25C3.39993 157.41 3.21993 157.41 3.21993 156.57C3.21993 155.73 3.28993 155.73 3.28993 154.89C3.28993 154.05 3.21993 154.05 3.21993 153.21C3.21993 152.37 3.25993 152.37 3.25993 151.53C3.25993 150.69 2.98993 150.69 2.98993 149.85C2.98993 149.01 3.21993 149.01 3.21993 148.17C3.21993 147.33 3.39993 147.33 3.39993 146.49C3.39993 145.65 3.38993 145.65 3.38993 144.81C3.38993 143.97 3.38993 143.97 3.38993 143.13C3.38993 142.29 3.13993 142.29 3.13993 141.45C3.13993 140.61 3.34993 140.61 3.34993 139.77C3.34993 138.93 3.40993 138.93 3.40993 138.09C3.40993 137.25 3.03993 137.25 3.03993 136.41C3.03993 135.57 3.26993 135.57 3.26993 134.73C3.26993 133.89 3.02993 133.89 3.02993 133.05C3.02993 132.21 2.93993 132.21 2.93993 131.37C2.93993 130.53 3.14993 130.53 3.14993 129.69C3.14993 128.85 3.32993 128.85 3.32993 128.01C3.32993 127.17 3.37993 127.17 3.37993 126.33C3.37993 125.49 3.02993 125.49 3.02993 124.65C3.02993 123.81 3.27993 123.81 3.27993 122.97C3.27993 122.13 3.33993 122.13 3.33993 121.29C3.33993 120.45 3.28993 120.45 3.28993 119.61C3.28993 118.77 3.16993 118.77 3.16993 117.93C3.16993 117.09 3.15993 117.09 3.15993 116.25C3.15993 115.41 3.21993 115.41 3.21993 114.57C3.21993 113.73 3.07993 113.73 3.07993 112.89C3.07993 112.05 3.23993 112.05 3.23993 111.21C3.23993 110.37 3.18993 110.37 3.18993 109.53C3.18993 108.69 3.41993 108.69 3.41993 107.85C3.41993 107.01 3.10993 107.01 3.10993 106.17C3.10993 105.33 2.95993 105.33 2.95993 104.49C2.95993 103.65 3.09993 103.65 3.09993 102.81C3.09993 101.97 2.98993 101.97 2.98993 101.13C2.98993 100.29 3.21993 100.29 3.21993 99.45C3.21993 98.61 3.21993 98.61 3.21993 97.77C3.21993 96.93 2.95993 96.93 2.95993 96.09C2.95993 95.25 2.95993 95.25 2.95993 94.41C2.95993 93.57 3.21993 93.57 3.21993 92.73C3.21993 91.89 3.06993 91.89 3.06993 91.05C3.06993 90.21 2.92993 90.21 2.92993 89.37C2.92993 88.53 3.35993 88.53 3.35993 87.69C3.35993 86.85 2.97993 86.85 2.97993 86.01C2.97993 85.17 3.29993 85.17 3.29993 84.33C3.29993 83.49 3.38993 83.49 3.38993 82.65C3.38993 81.81 3.25993 81.81 3.25993 80.97C3.25993 80.13 2.92993 80.13 2.92993 79.29C2.92993 78.45 3.28993 78.45 3.28993 77.61C3.28993 76.77 2.94993 76.77 2.94993 75.93C2.94993 75.09 3.20993 75.09 3.20993 74.25C3.20993 73.41 3.05993 73.41 3.05993 72.57C3.05993 71.73 2.97993 71.73 2.97993 70.89C2.97993 70.05 2.94993 70.05 2.94993 69.21C2.94993 68.37 3.33993 68.37 3.33993 67.53C3.33993 66.69 3.06993 66.69 3.06993 65.85C3.06993 65.01 3.38993 65.01 3.38993 64.17C3.38993 63.33 3.38993 63.33 3.38993 62.49C3.38993 61.65 3.13993 61.65 3.13993 60.81C3.13993 59.97 2.95993 59.97 2.95993 59.13C2.95993 58.29 2.93993 58.29 2.93993 57.45C2.93993 56.61 3.03993 56.61 3.03993 55.77C3.03993 54.93 3.15993 54.93 3.15993 54.09C3.15993 53.25 3.09993 53.25 3.09993 52.41C3.09993 51.57 3.12993 51.57 3.12993 50.73C3.12993 49.89 3.40993 49.89 3.40993 49.05C3.40993 48.21 2.99993 48.21 2.99993 47.37C2.99993 46.53 3.00993 46.53 3.00993 45.69C3.00993 44.85 3.03993 44.85 3.03993 44.01C3.03993 43.17 3.07993 43.17 3.07993 42.33C3.07993 41.49 2.96993 41.49 2.96993 40.65C2.96993 39.81 3.02993 39.81 3.02993 38.97C3.02993 38.13 3.17993 38.13 3.17993 37.29C3.17993 36.45 3.07993 36.45 3.07993 35.61C3.07993 34.77 3.33993 34.77 3.33993 33.93C3.33993 33.09 3.02993 33.09 3.02993 32.25C3.02993 31.41 3.10993 31.41 3.10993 30.57C3.10993 29.73 3.04993 29.73 3.04993 28.89C3.04993 28.05 3.37993 28.05 3.37993 27.21C3.37993 26.37 3.34993 26.37 3.34993 25.53C3.34993 24.69 3.39993 24.69 3.39993 23.84C3.39993 22.99 3.16993 23 3.16993 22.16C3.16993 21.32 3.28993 21.32 3.28993 20.47C3.28993 19.62 3.16993 19.63 3.16993 18.78C3.16993 17.93 3.29993 17.94 3.29993 17.1C3.29993 16.26 3.39993 16.26 3.39993 15.41C3.39993 14.56 3.03993 14.56 3.03993 13.72C3.03993 12.88 3.31993 12.87 3.31993 12.03C3.31993 11.47 3.24993 10.93 3.35993 10.4C3.46993 9.87 3.52993 9.3 3.73993 8.8C3.94993 8.3 4.46993 7.96 4.76993 7.51C5.06993 7.06 5.11993 6.39 5.50993 6C5.89993 5.61 6.51993 5.51 6.97993 5.2C7.43993 4.89 7.78993 4.42 8.29993 4.21C8.79993 4 9.34993 3.89 9.89993 3.78C10.4499 3.67 10.9799 3.65 11.5399 3.65L11.4599 3.7Z" fill="#66DAC9"/>
<g opacity="0.75">
<path d="M181.29 143.23H191.14C193.388 143.23 195.21 141.408 195.21 139.16V136.23C195.21 133.982 193.388 132.16 191.14 132.16H181.29C179.042 132.16 177.22 133.982 177.22 136.23V139.16C177.22 141.408 179.042 143.23 181.29 143.23Z" fill="#E7F7F4"/>
<path d="M185.78 133.09C185.78 132.78 181.72 129.03 181.72 129.03V133.09H185.78Z" fill="#E7F7F4"/>
</g>
<path d="M135.82 141.4C166.185 141.4 190.8 116.785 190.8 86.42C190.8 56.0554 166.185 31.44 135.82 31.44C105.455 31.44 80.8401 56.0554 80.8401 86.42C80.8401 116.785 105.455 141.4 135.82 141.4Z" fill="#00C2A4"/>
<g opacity="0.75">
<mask id="mask0_569_3069" style="mask-type:alpha" maskUnits="userSpaceOnUse" x="80" y="31" width="111" height="111">
<path d="M135.82 141.4C166.185 141.4 190.8 116.785 190.8 86.42C190.8 56.0554 166.185 31.44 135.82 31.44C105.455 31.44 80.8401 56.0554 80.8401 86.42C80.8401 116.785 105.455 141.4 135.82 141.4Z" fill="#00C2A4"/>
</mask>
<g mask="url(#mask0_569_3069)">
<path d="M79.12 100.16C79.12 100.16 72 87.64 80.84 89.36C89.68 91.08 96.55 95.58 98.76 87.4C99.34 85.25 99.99 73.41 109.31 80.77C118.64 88.13 124.36 84.29 130.25 90.34C134.69 94.9 126.49 102.94 132.62 108.26C144.52 118.57 150.78 124.13 149.06 130.76C147.34 137.39 129.42 132.81 132.86 143.6C136.3 154.4 127.71 156.12 118.38 152.44C109.05 148.76 79.11 100.16 79.11 100.16H79.12Z" fill="#E7F7F4"/>
<path d="M140 79.43C143.68 88.27 154.48 82.46 157.43 100.37C160.38 118.29 175.1 112.31 180.17 100.21C185.88 86.57 172.4 86.55 177.06 79.18C181.72 71.82 178.62 61.98 167 58.07C148.76 51.93 136.32 70.59 140 79.42V79.43Z" fill="#E7F7F4"/>
<path d="M141.13 33.71C137.49 37.14 134.52 37.54 127.7 39.12C124.12 39.95 120.78 41.8 119.06 47.52C115.29 60.09 128.88 62.49 135.75 59.3C142.62 56.11 143.85 40.89 149.99 39.42C156.13 37.95 166.68 56.44 169.87 45.88C173.06 35.33 147.53 28.37 146.8 28.62C146.47 28.73 143.89 31.11 141.13 33.71Z" fill="#E7F7F4"/>
<path d="M102.96 59.86C105.75 58.33 109.19 59.12 110.08 63.66C110.97 68.2 113.97 72.3 111.62 74.23C109.26 76.16 103.42 72.18 101.58 67.88C100.94 66.38 99.7301 61.62 102.96 59.85V59.86Z" fill="#E7F7F4"/>
</g>
</g>
<path d="M172.39 63.31L199.89 63.31C206.164 63.31 211.25 58.224 211.25 51.95V43.76C211.25 37.486 206.164 32.4 199.89 32.4H172.39C166.116 32.4 161.03 37.486 161.03 43.76V51.95C161.03 58.224 166.116 63.31 172.39 63.31Z" fill="white"/>
<path d="M184.9 60.7C184.9 61.56 173.56 72.04 173.56 72.04V60.7H184.9Z" fill="white"/>
<path d="M182.33 44.85C183.313 44.85 184.11 44.0531 184.11 43.07C184.11 42.0869 183.313 41.29 182.33 41.29C181.347 41.29 180.55 42.0869 180.55 43.07C180.55 44.0531 181.347 44.85 182.33 44.85Z" fill="#00C2A4"/>
<path d="M191.63 44.85C192.613 44.85 193.41 44.0531 193.41 43.07C193.41 42.0869 192.613 41.29 191.63 41.29C190.647 41.29 189.85 42.0869 189.85 43.07C189.85 44.0531 190.647 44.85 191.63 44.85Z" fill="#00C2A4"/>
<path d="M179.19 49.87C180.33 53.04 183.35 55.32 186.92 55.32C190.49 55.32 193.51 53.05 194.65 49.87H179.19Z" fill="#00C2A4"/>
<path d="M81.57 34.94H66.85C63.4866 34.94 60.76 37.6666 60.76 41.03V45.41C60.76 48.7734 63.4866 51.5 66.85 51.5H81.57C84.9334 51.5 87.66 48.7734 87.66 45.41V41.03C87.66 37.6666 84.9334 34.94 81.57 34.94Z" fill="#00C2A4"/>
<path d="M74.8701 50.1C74.8701 50.56 80.9401 56.17 80.9401 56.17V50.1H74.8701Z" fill="#00C2A4"/>
<path d="M87.1001 107.57H67.8701C62.894 107.57 58.8601 111.604 58.8601 116.58V124.8C58.8601 129.776 62.894 133.81 67.8701 133.81H87.1001C92.0762 133.81 96.1101 129.776 96.1101 124.8V116.58C96.1101 111.604 92.0762 107.57 87.1001 107.57Z" fill="#005C5B"/>
<path d="M93.4802 123.72C94.2102 123.72 103.11 114.09 103.11 114.09H93.4802V123.72Z" fill="#005C5B"/>
<path d="M73.7601 118.59C74.5223 118.59 75.1401 117.972 75.1401 117.21C75.1401 116.448 74.5223 115.83 73.7601 115.83C72.998 115.83 72.3801 116.448 72.3801 117.21C72.3801 117.972 72.998 118.59 73.7601 118.59Z" fill="#00C2A4"/>
<path d="M80.9601 118.59C81.7222 118.59 82.3401 117.972 82.3401 117.21C82.3401 116.448 81.7222 115.83 80.9601 115.83C80.1979 115.83 79.5801 116.448 79.5801 117.21C79.5801 117.972 80.1979 118.59 80.9601 118.59Z" fill="#00C2A4"/>
<path d="M71.3301 122.47C72.2101 124.93 74.5501 126.69 77.3101 126.69C80.0701 126.69 82.4101 124.93 83.2901 122.47H71.3201H71.3301Z" fill="#00C2A4"/>
</g>
<defs>
<clipPath id="clip0_569_3069">
<rect width="256" height="172" fill="white"/>
</clipPath>
</defs>
</svg>
