<svg width="256" height="172" viewBox="0 0 256 172" fill="none" xmlns="http://www.w3.org/2000/svg">
<g clip-path="url(#clip0_569_2936)">
<rect width="256" height="172" fill="white"/>
<path d="M243.87 168.66C243.04 168.66 243.04 168.6 242.2 168.6C241.36 168.6 241.37 168.81 240.53 168.81C239.69 168.81 239.7 168.87 238.86 168.87C238.02 168.87 238.02 168.47 237.19 168.47C236.36 168.47 236.35 168.57 235.52 168.57C234.69 168.57 234.68 168.72 233.85 168.72C233.02 168.72 233.01 168.4 232.18 168.4C231.35 168.4 231.34 168.44 230.51 168.44C229.68 168.44 229.67 168.84 228.84 168.84C228.01 168.84 228.01 168.87 227.17 168.87C226.33 168.87 226.34 168.7 225.5 168.7C224.66 168.7 224.67 168.51 223.83 168.51C222.99 168.51 223 168.61 222.16 168.61C221.32 168.61 221.33 168.77 220.49 168.77C219.65 168.77 219.66 168.77 218.82 168.77C217.98 168.77 217.99 168.77 217.15 168.77C216.31 168.77 216.32 168.85 215.48 168.85C214.64 168.85 214.65 168.71 213.81 168.71C212.97 168.71 212.98 168.91 212.14 168.91C211.3 168.91 211.31 168.62 210.47 168.62C209.63 168.62 209.63 168.54 208.8 168.54C207.97 168.54 207.96 168.85 207.13 168.85C206.3 168.85 206.29 168.67 205.46 168.67C204.63 168.67 204.62 168.46 203.79 168.46C202.96 168.46 202.95 168.82 202.12 168.82C201.29 168.82 201.28 168.55 200.45 168.55C199.62 168.55 199.61 168.8 198.78 168.8C197.95 168.8 197.94 168.7 197.11 168.7C196.28 168.7 196.28 168.79 195.44 168.79C194.61 168.79 194.61 168.92 193.77 168.92C192.93 168.92 192.94 168.66 192.1 168.66C191.26 168.66 191.27 168.79 190.43 168.79C189.59 168.79 189.6 168.59 188.76 168.59C187.92 168.59 187.93 168.91 187.09 168.91C186.25 168.91 186.26 168.71 185.42 168.71C184.58 168.71 184.59 168.45 183.75 168.45C182.92 168.45 182.92 168.47 182.08 168.47C181.24 168.47 181.25 168.73 180.41 168.73C179.57 168.73 179.58 168.45 178.74 168.45C177.91 168.45 177.91 168.82 177.07 168.82C176.23 168.82 176.24 168.82 175.4 168.82C174.56 168.82 174.57 168.89 173.73 168.89C172.89 168.89 172.9 168.42 172.06 168.42C171.22 168.42 171.23 168.71 170.39 168.71C169.55 168.71 169.56 168.47 168.72 168.47C167.88 168.47 167.89 168.81 167.05 168.81C166.22 168.81 166.22 168.78 165.38 168.78C164.54 168.78 164.55 168.65 163.71 168.65C162.87 168.65 162.87 168.82 162.04 168.82C161.2 168.82 161.2 168.7 160.37 168.7C159.53 168.7 159.53 168.46 158.7 168.46C157.87 168.46 157.86 168.52 157.03 168.52C156.2 168.52 156.19 168.47 155.36 168.47C154.53 168.47 154.53 168.64 153.69 168.64C152.85 168.64 152.86 168.82 152.02 168.82C151.18 168.82 151.19 168.82 150.35 168.82C149.51 168.82 149.52 168.41 148.68 168.41C147.84 168.41 147.85 168.58 147.01 168.58C146.17 168.58 146.18 168.56 145.34 168.56C144.51 168.56 144.51 168.47 143.67 168.47C142.83 168.47 142.84 168.58 142 168.58C141.16 168.58 141.17 168.71 140.33 168.71C139.49 168.71 139.5 168.59 138.66 168.59C137.82 168.59 137.83 168.65 136.99 168.65C136.15 168.65 136.16 168.78 135.32 168.78C134.48 168.78 134.49 168.44 133.65 168.44C132.81 168.44 132.81 168.66 131.98 168.66C131.15 168.66 131.14 168.5 130.31 168.5C129.48 168.5 129.47 168.6 128.64 168.6C127.81 168.6 127.8 168.86 126.97 168.86C126.14 168.86 126.13 168.55 125.3 168.55C124.47 168.55 124.46 168.89 123.63 168.89C122.8 168.89 122.79 168.59 121.96 168.59C121.13 168.59 121.13 168.46 120.29 168.46C119.45 168.46 119.46 168.49 118.62 168.49C117.78 168.49 117.79 168.88 116.95 168.88C116.11 168.88 116.12 168.74 115.28 168.74C114.44 168.74 114.45 168.5 113.61 168.5C112.77 168.5 112.77 168.69 111.94 168.69C111.11 168.69 111.1 168.63 110.27 168.63C109.44 168.63 109.43 168.42 108.6 168.42C107.77 168.42 107.76 168.82 106.93 168.82C106.1 168.82 106.09 168.66 105.26 168.66C104.43 168.66 104.42 168.52 103.59 168.52C102.76 168.52 102.75 168.45 101.92 168.45C101.09 168.45 101.08 168.48 100.25 168.48C99.4202 168.48 99.4102 168.64 98.5802 168.64C97.7502 168.64 97.7402 168.5 96.9102 168.5C96.0802 168.5 96.0702 168.9 95.2402 168.9C94.4102 168.9 94.4002 168.88 93.5702 168.88C92.7402 168.88 92.7302 168.86 91.9002 168.86C91.0702 168.86 91.0602 168.65 90.2302 168.65C89.4002 168.65 89.3902 168.82 88.5602 168.82C87.7302 168.82 87.7202 168.49 86.8902 168.49C86.0602 168.49 86.0502 168.45 85.2202 168.45C84.3902 168.45 84.3802 168.82 83.5502 168.82C82.7202 168.82 82.7102 168.45 81.8802 168.45C81.0402 168.45 81.0402 168.66 80.2102 168.66C79.3802 168.66 79.3702 168.66 78.5402 168.66C77.7102 168.66 77.7002 168.84 76.8702 168.84C76.0402 168.84 76.0302 168.61 75.2002 168.61C74.3702 168.61 74.3602 168.64 73.5302 168.64C72.7002 168.64 72.6902 168.85 71.8602 168.85C71.0302 168.85 71.0202 168.88 70.1902 168.88C69.3602 168.88 69.3502 168.44 68.5202 168.44C67.6902 168.44 67.6802 168.51 66.8502 168.51C66.0202 168.51 66.0102 168.76 65.1802 168.76C64.3502 168.76 64.3402 168.66 63.5102 168.66C62.6802 168.66 62.6702 168.61 61.8402 168.61C61.0102 168.61 61.0002 168.82 60.1702 168.82C59.3402 168.82 59.3302 168.6 58.5002 168.6C57.6702 168.6 57.6602 168.7 56.8302 168.7C56.0002 168.7 56.0002 168.53 55.1602 168.53C54.3202 168.53 54.3302 168.79 53.4902 168.79C52.6502 168.79 52.6502 168.41 51.8202 168.41C50.9902 168.41 50.9802 168.87 50.1502 168.87C49.3202 168.87 49.3102 168.87 48.4702 168.87C47.6302 168.87 47.6302 168.48 46.8002 168.48C45.9702 168.48 45.9602 168.86 45.1302 168.86C44.3002 168.86 44.2902 168.44 43.4602 168.44C42.6302 168.44 42.6202 168.5 41.7802 168.5C40.9402 168.5 40.9402 168.67 40.1102 168.67C39.2802 168.67 39.2702 168.82 38.4402 168.82C37.6102 168.82 37.6002 168.76 36.7702 168.76C35.9402 168.76 35.9302 168.79 35.0902 168.79C34.2502 168.79 34.2502 168.7 33.4202 168.7C32.5902 168.7 32.5802 168.76 31.7402 168.76C30.9002 168.76 30.9002 168.8 30.0602 168.8C29.2202 168.8 29.2202 168.73 28.3802 168.73C27.5402 168.73 27.5402 168.86 26.7102 168.86C25.8802 168.86 25.8702 168.68 25.0402 168.68C24.2102 168.68 24.2002 168.87 23.3602 168.87C22.5202 168.87 22.5202 168.77 21.6802 168.77C20.8402 168.77 20.8402 168.42 20.0002 168.42C19.1602 168.42 19.1602 168.8 18.3202 168.8C17.4802 168.8 17.4802 168.54 16.6402 168.54C15.8002 168.54 15.8002 168.61 14.9602 168.61C14.1202 168.61 14.1202 168.64 13.2802 168.64C12.4402 168.64 12.4402 168.73 11.6002 168.73C11.0402 168.73 10.5102 168.51 9.98018 168.4C9.45018 168.29 8.93018 168.14 8.43018 167.93C7.93018 167.72 7.34018 167.63 6.89018 167.32C6.44018 167.01 6.14018 166.5 5.76018 166.11C5.38018 165.72 5.08018 165.28 4.77018 164.83C4.46018 164.38 4.09018 163.98 3.87018 163.47C3.65018 162.96 3.52018 162.44 3.42018 161.9C3.32018 161.36 3.03018 160.83 3.03018 160.27C3.03018 159.43 3.11018 159.43 3.11018 158.59C3.11018 157.75 3.34018 157.75 3.34018 156.91C3.34018 156.07 3.01018 156.07 3.01018 155.23C3.01018 154.39 3.14018 154.39 3.14018 153.55C3.14018 152.71 3.12018 152.71 3.12018 151.87C3.12018 151.03 3.34018 151.03 3.34018 150.19C3.34018 149.35 3.43018 149.35 3.43018 148.51C3.43018 147.67 3.08018 147.67 3.08018 146.83C3.08018 145.99 3.14018 145.99 3.14018 145.15C3.14018 144.31 3.25018 144.31 3.25018 143.47C3.25018 142.63 3.07018 142.63 3.07018 141.79C3.07018 140.95 3.34018 140.95 3.34018 140.11C3.34018 139.27 3.09018 139.27 3.09018 138.43C3.09018 137.59 3.00018 137.59 3.00018 136.75C3.00018 135.91 3.19018 135.91 3.19018 135.07C3.19018 134.23 3.46018 134.23 3.46018 133.39C3.46018 132.55 3.44018 132.55 3.44018 131.71C3.44018 130.87 3.14018 130.87 3.14018 130.03C3.14018 129.19 3.27018 129.19 3.27018 128.35C3.27018 127.51 3.08018 127.51 3.08018 126.67C3.08018 125.83 3.14018 125.83 3.14018 124.99C3.14018 124.15 2.98018 124.15 2.98018 123.31C2.98018 122.47 3.21018 122.47 3.21018 121.63C3.21018 120.79 3.36018 120.79 3.36018 119.95C3.36018 119.11 3.00018 119.11 3.00018 118.27C3.00018 117.43 3.05018 117.43 3.05018 116.59C3.05018 115.75 3.16018 115.75 3.16018 114.91C3.16018 114.07 3.44018 114.07 3.44018 113.23C3.44018 112.39 3.20018 112.39 3.20018 111.55C3.20018 110.71 3.16018 110.71 3.16018 109.87C3.16018 109.03 3.41018 109.03 3.41018 108.19C3.41018 107.35 3.21018 107.35 3.21018 106.51C3.21018 105.67 3.25018 105.67 3.25018 104.83C3.25018 103.99 3.00018 103.99 3.00018 103.15C3.00018 102.31 3.21018 102.31 3.21018 101.47C3.21018 100.63 3.10018 100.63 3.10018 99.79C3.10018 98.95 3.34018 98.95 3.34018 98.11C3.34018 97.27 3.14018 97.27 3.14018 96.43C3.14018 95.59 3.06018 95.59 3.06018 94.75C3.06018 93.91 3.20018 93.91 3.20018 93.07C3.20018 92.23 3.11018 92.23 3.11018 91.39C3.11018 90.55 3.22018 90.55 3.22018 89.71C3.22018 88.87 3.20018 88.87 3.20018 88.03C3.20018 87.19 3.29018 87.19 3.29018 86.35C3.29018 85.51 3.43018 85.51 3.43018 84.67C3.43018 83.83 3.29018 83.83 3.29018 82.99C3.29018 82.15 3.02018 82.15 3.02018 81.31C3.02018 80.47 3.26018 80.47 3.26018 79.63C3.26018 78.79 3.26018 78.79 3.26018 77.95C3.26018 77.11 3.03018 77.11 3.03018 76.27C3.03018 75.43 3.39018 75.43 3.39018 74.59C3.39018 73.75 3.30018 73.75 3.30018 72.91C3.30018 72.07 3.02018 72.07 3.02018 71.23C3.02018 70.39 3.33018 70.39 3.33018 69.55C3.33018 68.71 3.31018 68.71 3.31018 67.87C3.31018 67.03 3.03018 67.03 3.03018 66.19C3.03018 65.35 3.17018 65.35 3.17018 64.51C3.17018 63.67 3.03018 63.67 3.03018 62.83C3.03018 61.99 3.36018 61.99 3.36018 61.15C3.36018 60.31 3.36018 60.31 3.36018 59.47C3.36018 58.63 3.42018 58.63 3.42018 57.79C3.42018 56.95 3.20018 56.95 3.20018 56.11C3.20018 55.27 3.23018 55.27 3.23018 54.43C3.23018 53.59 3.20018 53.59 3.20018 52.75C3.20018 51.91 3.20018 51.91 3.20018 51.07C3.20018 50.23 3.27018 50.23 3.27018 49.39C3.27018 48.55 3.00018 48.55 3.00018 47.71C3.00018 46.87 2.98018 46.87 2.98018 46.03C2.98018 45.19 2.93018 45.19 2.93018 44.35C2.93018 43.51 3.01018 43.51 3.01018 42.67C3.01018 41.83 3.26018 41.83 3.26018 40.99C3.26018 40.15 3.36018 40.15 3.36018 39.31C3.36018 38.47 3.03018 38.47 3.03018 37.63C3.03018 36.79 3.43018 36.79 3.43018 35.95C3.43018 35.11 3.30018 35.11 3.30018 34.27C3.30018 33.43 3.29018 33.43 3.29018 32.59C3.29018 31.75 3.36018 31.75 3.36018 30.91C3.36018 30.07 3.36018 30.07 3.36018 29.23C3.36018 28.39 3.10018 28.39 3.10018 27.55C3.10018 26.71 3.23018 26.71 3.23018 25.87C3.23018 25.03 3.10018 25.03 3.10018 24.18C3.10018 23.33 3.23018 23.34 3.23018 22.5C3.23018 21.66 3.14018 21.66 3.14018 20.81C3.14018 19.96 3.16018 19.97 3.16018 19.12C3.16018 18.28 3.04018 18.28 3.04018 17.44C3.04018 16.6 3.06018 16.6 3.06018 15.75C3.06018 14.9 3.38018 14.9 3.38018 14.06C3.38018 13.22 3.29018 13.21 3.29018 12.37C3.29018 11.81 3.45018 11.31 3.55018 10.78C3.65018 10.25 3.46018 9.59999 3.66018 9.09999C3.86018 8.59999 4.49018 8.30999 4.79018 7.84999C5.09018 7.38999 5.41018 6.99999 5.79018 6.60999C6.17018 6.21999 6.46018 5.73999 6.92018 5.43999C7.38018 5.13999 7.91018 5.00999 8.41018 4.79999C8.91018 4.58999 9.36018 4.23999 9.90018 4.12999C10.4402 4.01999 10.9802 3.82999 11.5402 3.82999C12.3702 3.82999 12.3702 4.18999 13.2102 4.18999C14.0502 4.18999 14.0402 3.99999 14.8802 3.99999C15.7202 3.99999 15.7102 4.22999 16.5502 4.22999C17.3902 4.22999 17.3902 3.76999 18.2202 3.76999C19.0502 3.76999 19.0602 3.93999 19.8902 3.93999C20.7202 3.93999 20.7302 3.97999 21.5602 3.97999C22.3902 3.97999 22.4002 3.80999 23.2302 3.80999C24.0602 3.80999 24.0702 4.17999 24.9002 4.17999C25.7302 4.17999 25.7402 3.83999 26.5702 3.83999C27.4002 3.83999 27.4002 3.78999 28.2402 3.78999C29.0802 3.78999 29.0702 3.87999 29.9102 3.87999C30.7502 3.87999 30.7402 3.99999 31.5802 3.99999C32.4202 3.99999 32.4102 3.79999 33.2502 3.79999C34.0902 3.79999 34.0802 4.23999 34.9202 4.23999C35.7602 4.23999 35.7502 4.02999 36.5902 4.02999C37.4302 4.02999 37.4202 4.07999 38.2602 4.07999C39.1002 4.07999 39.0902 3.96999 39.9302 3.96999C40.7702 3.96999 40.7602 4.11999 41.6002 4.11999C42.4402 4.11999 42.4302 4.06999 43.2702 4.06999C44.1102 4.06999 44.1002 3.89999 44.9402 3.89999C45.7802 3.89999 45.7802 3.89999 46.6102 3.89999C47.4402 3.89999 47.4502 4.14999 48.2802 4.14999C49.1102 4.14999 49.1202 3.80999 49.9502 3.80999C50.7802 3.80999 50.7902 3.90999 51.6202 3.90999C52.4502 3.90999 52.4602 4.19999 53.2902 4.19999C54.1202 4.19999 54.1302 3.79999 54.9602 3.79999C55.7902 3.79999 55.8002 3.90999 56.6302 3.90999C57.4602 3.90999 57.4702 3.85999 58.3002 3.85999C59.1302 3.85999 59.1302 4.02999 59.9702 4.02999C60.8102 4.02999 60.8002 3.97999 61.6402 3.97999C62.4802 3.97999 62.4702 4.21999 63.3102 4.21999C64.1502 4.21999 64.1402 3.81999 64.9802 3.81999C65.8202 3.81999 65.8102 4.12999 66.6502 4.12999C67.4902 4.12999 67.4802 4.22999 68.3202 4.22999C69.1602 4.22999 69.1502 3.78999 69.9902 3.78999C70.8302 3.78999 70.8202 4.06999 71.6602 4.06999C72.5002 4.06999 72.4902 3.82999 73.3302 3.82999C74.1702 3.82999 74.1602 4.05999 75.0002 4.05999C75.8402 4.05999 75.8302 4.27999 76.6702 4.27999C77.5102 4.27999 77.5002 4.12999 78.3402 4.12999C79.1802 4.12999 79.1702 4.17999 80.0102 4.17999C80.8502 4.17999 80.8402 3.99999 81.6802 3.99999C82.5202 3.99999 82.5102 4.03999 83.3502 4.03999C84.1902 4.03999 84.1802 4.25999 85.0202 4.25999C85.8602 4.25999 85.8502 4.16999 86.6902 4.16999C87.5302 4.16999 87.5202 4.01999 88.3602 4.01999C89.2002 4.01999 89.1902 3.80999 90.0302 3.80999C90.8702 3.80999 90.8602 3.96999 91.7002 3.96999C92.5402 3.96999 92.5402 4.11999 93.3702 4.11999C94.2002 4.11999 94.2102 3.88999 95.0402 3.88999C95.8702 3.88999 95.8802 3.86999 96.7102 3.86999C97.5402 3.86999 97.5502 3.94999 98.3802 3.94999C99.2102 3.94999 99.2202 3.79999 100.05 3.79999C100.88 3.79999 100.88 4.09999 101.72 4.09999C102.56 4.09999 102.55 3.79999 103.39 3.79999C104.23 3.79999 104.22 4.03999 105.06 4.03999C105.9 4.03999 105.89 3.80999 106.73 3.80999C107.57 3.80999 107.56 3.93999 108.4 3.93999C109.24 3.93999 109.23 3.93999 110.07 3.93999C110.91 3.93999 110.9 4.06999 111.74 4.06999C112.58 4.06999 112.57 4.18999 113.41 4.18999C114.25 4.18999 114.24 3.84999 115.08 3.84999C115.92 3.84999 115.91 3.79999 116.75 3.79999C117.59 3.79999 117.58 4.18999 118.42 4.18999C119.26 4.18999 119.25 4.06999 120.09 4.06999C120.93 4.06999 120.92 4.24999 121.76 4.24999C122.6 4.24999 122.6 4.10999 123.43 4.10999C124.26 4.10999 124.27 4.08999 125.1 4.08999C125.93 4.08999 125.94 3.99999 126.77 3.99999C127.6 3.99999 127.61 4.23999 128.44 4.23999C129.27 4.23999 129.28 4.02999 130.11 4.02999C130.94 4.02999 130.95 4.03999 131.78 4.03999C132.61 4.03999 132.62 3.85999 133.45 3.85999C134.28 3.85999 134.28 3.96999 135.12 3.96999C135.96 3.96999 135.95 3.92999 136.79 3.92999C137.63 3.92999 137.62 3.99999 138.46 3.99999C139.3 3.99999 139.29 4.26999 140.13 4.26999C140.97 4.26999 140.96 4.24999 141.8 4.24999C142.64 4.24999 142.64 4.16999 143.47 4.16999C144.3 4.16999 144.31 3.87999 145.14 3.87999C145.97 3.87999 145.98 3.97999 146.81 3.97999C147.64 3.97999 147.65 3.97999 148.48 3.97999C149.31 3.97999 149.32 4.26999 150.15 4.26999C150.98 4.26999 150.99 3.82999 151.82 3.82999C152.65 3.82999 152.66 3.86999 153.49 3.86999C154.32 3.86999 154.33 3.92999 155.16 3.92999C155.99 3.92999 156 3.90999 156.83 3.90999C157.66 3.90999 157.67 4.20999 158.5 4.20999C159.33 4.20999 159.34 4.10999 160.17 4.10999C161 4.10999 161.01 4.20999 161.84 4.20999C162.67 4.20999 162.68 4.17999 163.51 4.17999C164.34 4.17999 164.35 4.02999 165.18 4.02999C166.01 4.02999 166.02 3.97999 166.85 3.97999C167.68 3.97999 167.69 4.26999 168.52 4.26999C169.35 4.26999 169.36 4.03999 170.19 4.03999C171.02 4.03999 171.03 4.04999 171.86 4.04999C172.69 4.04999 172.7 3.93999 173.53 3.93999C174.36 3.93999 174.37 4.25999 175.2 4.25999C176.03 4.25999 176.04 3.84999 176.87 3.84999C177.7 3.84999 177.71 4.29999 178.54 4.29999C179.37 4.29999 179.38 3.90999 180.21 3.90999C181.04 3.90999 181.05 4.14999 181.88 4.14999C182.71 4.14999 182.72 3.88999 183.55 3.88999C184.38 3.88999 184.39 4.25999 185.22 4.25999C186.05 4.25999 186.06 3.99999 186.89 3.99999C187.72 3.99999 187.73 3.99999 188.56 3.99999C189.39 3.99999 189.4 3.88999 190.23 3.88999C191.06 3.88999 191.07 3.88999 191.9 3.88999C192.73 3.88999 192.74 3.98999 193.57 3.98999C194.4 3.98999 194.41 4.12999 195.24 4.12999C196.07 4.12999 196.08 3.83999 196.91 3.83999C197.74 3.83999 197.75 3.81999 198.58 3.81999C199.41 3.81999 199.41 4.27999 200.25 4.27999C201.09 4.27999 201.08 4.16999 201.92 4.16999C202.76 4.16999 202.76 4.17999 203.59 4.17999C204.42 4.17999 204.43 3.80999 205.26 3.80999C206.09 3.80999 206.1 4.25999 206.94 4.25999C207.78 4.25999 207.78 4.23999 208.61 4.23999C209.44 4.23999 209.45 4.07999 210.28 4.07999C211.11 4.07999 211.12 3.93999 211.95 3.93999C212.78 3.93999 212.79 3.82999 213.63 3.82999C214.47 3.82999 214.47 4.28999 215.3 4.28999C216.13 4.28999 216.14 3.97999 216.97 3.97999C217.8 3.97999 217.81 3.97999 218.64 3.97999C219.47 3.97999 219.48 4.25999 220.32 4.25999C221.16 4.25999 221.16 4.19999 221.99 4.19999C222.82 4.19999 222.83 4.05999 223.67 4.05999C224.51 4.05999 224.51 3.82999 225.35 3.82999C226.19 3.82999 226.19 4.30999 227.03 4.30999C227.87 4.30999 227.87 4.17999 228.7 4.17999C229.53 4.17999 229.54 4.20999 230.37 4.20999C231.2 4.20999 231.21 3.81999 232.05 3.81999C232.89 3.81999 232.89 3.98999 233.73 3.98999C234.57 3.98999 234.57 3.94999 235.41 3.94999C236.25 3.94999 236.25 3.99999 237.09 3.99999C237.93 3.99999 237.93 4.03999 238.77 4.03999C239.61 4.03999 239.61 3.95999 240.45 3.95999C241.29 3.95999 241.29 4.16999 242.13 4.16999C242.97 4.16999 242.97 3.82999 243.81 3.82999C244.37 3.82999 244.87 4.32999 245.4 4.43999C245.93 4.54999 246.47 4.59999 246.97 4.80999C247.47 5.01999 248.12 5.00999 248.57 5.30999C249.02 5.60999 249.5 5.96999 249.89 6.35999C250.28 6.74999 250.39 7.37999 250.69 7.83999C250.99 8.29999 251.44 8.67999 251.65 9.18999C251.86 9.69999 251.96 10.25 252.06 10.79C252.16 11.33 252.16 11.87 252.16 12.43C252.16 13.27 251.93 13.27 251.93 14.11C251.93 14.95 252.11 14.95 252.11 15.79C252.11 16.63 252.04 16.63 252.04 17.47C252.04 18.31 252.11 18.31 252.11 19.15C252.11 19.99 252.07 19.99 252.07 20.83C252.07 21.67 252.34 21.67 252.34 22.51C252.34 23.35 252.11 23.35 252.11 24.19C252.11 25.03 251.93 25.03 251.93 25.87C251.93 26.71 251.94 26.71 251.94 27.55C251.94 28.39 251.94 28.39 251.94 29.23C251.94 30.07 252.19 30.07 252.19 30.91C252.19 31.75 251.98 31.75 251.98 32.59C251.98 33.43 251.92 33.43 251.92 34.27C251.92 35.11 252.29 35.11 252.29 35.95C252.29 36.79 252.06 36.79 252.06 37.63C252.06 38.47 252.3 38.47 252.3 39.31C252.3 40.15 252.39 40.15 252.39 40.99C252.39 41.83 252.18 41.83 252.18 42.67C252.18 43.51 252 43.51 252 44.35C252 45.19 251.95 45.19 251.95 46.03C251.95 46.87 252.3 46.87 252.3 47.71C252.3 48.55 252.05 48.55 252.05 49.39C252.05 50.23 251.99 50.23 251.99 51.07C251.99 51.91 252.04 51.91 252.04 52.75C252.04 53.59 252.16 53.59 252.16 54.43C252.16 55.27 252.17 55.27 252.17 56.11C252.17 56.95 252.11 56.95 252.11 57.79C252.11 58.63 252.25 58.63 252.25 59.47C252.25 60.31 252.09 60.31 252.09 61.15C252.09 61.99 252.14 61.99 252.14 62.83C252.14 63.67 251.91 63.67 251.91 64.51C251.91 65.35 252.22 65.35 252.22 66.19C252.22 67.03 252.37 67.03 252.37 67.87C252.37 68.71 252.23 68.71 252.23 69.55C252.23 70.39 252.34 70.39 252.34 71.23C252.34 72.07 252.11 72.07 252.11 72.91C252.11 73.75 252.11 73.75 252.11 74.59C252.11 75.43 252.37 75.43 252.37 76.27C252.37 77.11 252.37 77.11 252.37 77.95C252.37 78.79 252.11 78.79 252.11 79.63C252.11 80.47 252.26 80.47 252.26 81.31C252.26 82.15 252.4 82.15 252.4 82.99C252.4 83.83 251.97 83.83 251.97 84.67C251.97 85.51 252.35 85.51 252.35 86.35C252.35 87.19 252.03 87.19 252.03 88.03C252.03 88.87 251.94 88.87 251.94 89.71C251.94 90.55 252.07 90.55 252.07 91.39C252.07 92.23 252.4 92.23 252.4 93.07C252.4 93.91 252.04 93.91 252.04 94.75C252.04 95.59 252.38 95.59 252.38 96.43C252.38 97.27 252.12 97.27 252.12 98.11C252.12 98.95 252.27 98.95 252.27 99.79C252.27 100.63 252.35 100.63 252.35 101.47C252.35 102.31 252.38 102.31 252.38 103.15C252.38 103.99 251.99 103.99 251.99 104.83C251.99 105.67 252.26 105.67 252.26 106.51C252.26 107.35 251.94 107.35 251.94 108.19C251.94 109.03 251.94 109.03 251.94 109.87C251.94 110.71 252.19 110.71 252.19 111.55C252.19 112.39 252.37 112.39 252.37 113.23C252.37 114.07 252.39 114.07 252.39 114.91C252.39 115.75 252.29 115.75 252.29 116.59C252.29 117.43 252.17 117.43 252.17 118.27C252.17 119.11 252.23 119.11 252.23 119.95C252.23 120.79 252.2 120.79 252.2 121.63C252.2 122.47 251.92 122.47 251.92 123.31C251.92 124.15 252.33 124.15 252.33 124.99C252.33 125.83 252.32 125.83 252.32 126.67C252.32 127.51 252.29 127.51 252.29 128.35C252.29 129.19 252.25 129.19 252.25 130.03C252.25 130.87 252.36 130.87 252.36 131.71C252.36 132.55 252.3 132.55 252.3 133.39C252.3 134.23 252.15 134.23 252.15 135.07C252.15 135.91 252.25 135.91 252.25 136.75C252.25 137.59 251.99 137.59 251.99 138.43C251.99 139.27 252.3 139.27 252.3 140.11C252.3 140.95 252.22 140.95 252.22 141.79C252.22 142.63 252.28 142.63 252.28 143.47C252.28 144.31 251.95 144.31 251.95 145.15C251.95 145.99 251.98 145.99 251.98 146.83C251.98 147.67 251.93 147.67 251.93 148.52C251.93 149.37 252.16 149.36 252.16 150.2C252.16 151.04 252.04 151.04 252.04 151.89C252.04 152.74 252.16 152.73 252.16 153.58C252.16 154.43 252.03 154.42 252.03 155.26C252.03 156.1 251.93 156.1 251.93 156.95C251.93 157.8 252.29 157.8 252.29 158.64C252.29 159.48 252.01 159.49 252.01 160.33C252.01 160.89 252.08 161.43 251.97 161.96C251.86 162.49 251.8 163.06 251.59 163.56C251.38 164.06 250.86 164.4 250.56 164.85C250.26 165.3 250.21 165.97 249.82 166.36C249.43 166.75 248.81 166.85 248.35 167.16C247.89 167.47 247.54 167.94 247.03 168.15C246.52 168.36 245.98 168.47 245.43 168.58C244.88 168.69 244.35 168.71 243.79 168.71L243.87 168.66Z" fill="#D4ACFD"/>
<path d="M91.1599 70.84H47.0299C41.9986 70.84 37.9199 74.9187 37.9199 79.95V106.04C37.9199 111.071 41.9986 115.15 47.0299 115.15H91.1599C96.1912 115.15 100.27 111.071 100.27 106.04V79.95C100.27 74.9187 96.1912 70.84 91.1599 70.84Z" fill="#7615CC"/>
<path opacity="0.5" d="M85.4398 127.63H77.2898C71.7725 127.63 67.2998 132.103 67.2998 137.62V137.63C67.2998 143.147 71.7725 147.62 77.2898 147.62H85.4398C90.9571 147.62 95.4298 143.147 95.4298 137.63V137.62C95.4298 132.103 90.9571 127.63 85.4398 127.63Z" fill="#F7E2F2"/>
<path d="M160.83 23.82H137.17C131.432 23.82 126.78 28.4718 126.78 34.21V45.02C126.78 50.7582 131.432 55.41 137.17 55.41H160.83C166.568 55.41 171.22 50.7582 171.22 45.02V34.21C171.22 28.4718 166.568 23.82 160.83 23.82Z" fill="#B874FC"/>
<path d="M141.19 40.04H73.28C70.3529 40.04 67.98 42.4129 67.98 45.34V95.4C67.98 98.3271 70.3529 100.7 73.28 100.7H141.19C144.117 100.7 146.49 98.3271 146.49 95.4V45.34C146.49 42.4129 144.117 40.04 141.19 40.04Z" fill="#E4E7EF"/>
<path d="M127.38 47.82H76.8802C75.9413 47.82 75.1802 48.5811 75.1802 49.52C75.1802 50.4589 75.9413 51.22 76.8802 51.22H127.38C128.319 51.22 129.08 50.4589 129.08 49.52C129.08 48.5811 128.319 47.82 127.38 47.82Z" fill="white"/>
<path d="M128.36 52.45H76.8802C75.9413 52.45 75.1802 53.2111 75.1802 54.15C75.1802 55.0889 75.9413 55.85 76.8802 55.85H128.36C129.299 55.85 130.06 55.0889 130.06 54.15C130.06 53.2111 129.299 52.45 128.36 52.45Z" fill="#B874FC"/>
<path d="M98.9702 60.64H76.8802C75.9413 60.64 75.1802 61.4011 75.1802 62.34C75.1802 63.2789 75.9413 64.04 76.8802 64.04H98.9702C99.9091 64.04 100.67 63.2789 100.67 62.34C100.67 61.4011 99.9091 60.64 98.9702 60.64Z" fill="white"/>
<path d="M112.82 65.27H76.8802C75.9413 65.27 75.1802 66.0311 75.1802 66.97C75.1802 67.9089 75.9413 68.67 76.8802 68.67H112.82C113.759 68.67 114.52 67.9089 114.52 66.97C114.52 66.0311 113.759 65.27 112.82 65.27Z" fill="#B874FC"/>
<path d="M134.74 73.46H76.8802C75.9413 73.46 75.1802 74.2211 75.1802 75.16C75.1802 76.0989 75.9413 76.86 76.8802 76.86H134.74C135.679 76.86 136.44 76.0989 136.44 75.16C136.44 74.2211 135.679 73.46 134.74 73.46Z" fill="white"/>
<path d="M94.6202 78.1H76.8802C75.9413 78.1 75.1802 78.8612 75.1802 79.8C75.1802 80.7389 75.9413 81.5 76.8802 81.5H94.6202C95.5591 81.5 96.3202 80.7389 96.3202 79.8C96.3202 78.8612 95.5591 78.1 94.6202 78.1Z" fill="#B874FC"/>
<path d="M103.68 86.28H76.8802C75.9413 86.28 75.1802 87.0411 75.1802 87.98C75.1802 88.9189 75.9413 89.68 76.8802 89.68H103.68C104.619 89.68 105.38 88.9189 105.38 87.98C105.38 87.0411 104.619 86.28 103.68 86.28Z" fill="white"/>
<path d="M116.91 90.92H76.8802C75.9413 90.92 75.1802 91.6811 75.1802 92.62C75.1802 93.5589 75.9413 94.32 76.8802 94.32H116.91C117.849 94.32 118.61 93.5589 118.61 92.62C118.61 91.6811 117.849 90.92 116.91 90.92Z" fill="#B874FC"/>
<path d="M215.47 60.93H114.6C110.977 60.93 108.04 63.867 108.04 67.49V136.01C108.04 139.633 110.977 142.57 114.6 142.57H215.47C219.093 142.57 222.03 139.633 222.03 136.01V67.49C222.03 63.867 219.093 60.93 215.47 60.93Z" fill="white"/>
<path d="M120.59 132.44V85" stroke="#E4E7EF" stroke-width="0.4" stroke-miterlimit="10" stroke-linecap="round"/>
<path d="M135.8 132.44V85" stroke="#E4E7EF" stroke-width="0.4" stroke-miterlimit="10" stroke-linecap="round"/>
<path d="M150.57 132.44V85" stroke="#E4E7EF" stroke-width="0.4" stroke-miterlimit="10" stroke-linecap="round"/>
<path d="M165.56 132.44V85" stroke="#E4E7EF" stroke-width="0.4" stroke-miterlimit="10" stroke-linecap="round"/>
<path d="M180.33 132.44V85" stroke="#E4E7EF" stroke-width="0.4" stroke-miterlimit="10" stroke-linecap="round"/>
<path d="M194.88 132.44V85" stroke="#E4E7EF" stroke-width="0.4" stroke-miterlimit="10" stroke-linecap="round"/>
<path d="M210.35 132.44V85" stroke="#E4E7EF" stroke-width="0.4" stroke-miterlimit="10" stroke-linecap="round"/>
<path d="M120.81 129.44L136.25 126.03L150.97 114.8L165.81 117.2L180.29 115.69L195.37 101.62L209.97 99.4" stroke="#B874FC" stroke-width="0.85" stroke-miterlimit="10" stroke-linecap="round"/>
<path d="M120.81 103.03L136.25 107.69L195.25 106.43L209.97 101.73" stroke="#B874FC" stroke-width="0.85" stroke-miterlimit="10" stroke-linecap="round"/>
<path d="M120.59 119.56L136.25 104.14L165.81 99.55L180.53 111.01L195.25 116.29L210.09 114.11" stroke="#B874FC" stroke-width="0.85" stroke-miterlimit="10" stroke-linecap="round"/>
<path d="M120.59 132.44L136.25 131.99L150.97 119.95L165.69 113.88L180.65 97.03L195.25 96.46L210.09 86.72" stroke="#7615CC" stroke-width="0.85" stroke-miterlimit="10" stroke-linecap="round"/>
<path d="M125.29 72.29H134.98" stroke="#E4E7EF" stroke-width="1.35" stroke-miterlimit="10" stroke-linecap="round"/>
<path d="M149.4 72.29H160.27" stroke="#E4E7EF" stroke-width="1.35" stroke-miterlimit="10" stroke-linecap="round"/>
<path d="M122.17 70.74H119.08V73.83H122.17V70.74Z" fill="#7615CC"/>
<path d="M146.28 70.74H143.19V73.83H146.28V70.74Z" fill="#B874FC"/>
<path d="M173.97 72.29H184.84" stroke="#E4E7EF" stroke-width="1.35" stroke-miterlimit="10" stroke-linecap="round"/>
<path d="M170.85 70.74H167.76V73.83H170.85V70.74Z" fill="#B874FC"/>
<path d="M198.13 72.29H209" stroke="#E4E7EF" stroke-width="1.35" stroke-miterlimit="10" stroke-linecap="round"/>
<path d="M195.01 70.74H191.92V73.83H195.01V70.74Z" fill="#B874FC"/>
</g>
<defs>
<clipPath id="clip0_569_2936">
<rect width="256" height="172" fill="white"/>
</clipPath>
</defs>
</svg>
