<svg width="200" height="86" viewBox="0 0 200 86" fill="none" xmlns="http://www.w3.org/2000/svg">
<path d="M52.1162 50.5908C49.8308 50.5908 48.6988 49.286 48.6988 47.1089V41.3613H46.6306V39.1179H48.6988V36.2456L51.4204 35.5702V39.1179H54.2727V41.3613H51.4203V46.8681C51.4203 47.7399 51.8122 48.1103 52.6821 48.1103C53.2484 48.1103 53.7062 48.0883 54.4468 48.0006V50.2874C53.6844 50.4825 52.9226 50.5908 52.1162 50.5908Z" fill="white"/>
<path d="M62.5868 50.4395V43.4509C62.5868 42.1452 62.1523 41.3396 60.7159 41.3396C59.0809 41.3396 58.3859 43.0809 58.3859 44.4742V50.4395H55.6648V34.7222H58.3859V40.3158C59.0397 39.3578 60.3013 38.8353 61.476 38.8353C63.8932 38.8353 65.3091 40.5552 65.3091 42.8859V50.4395H62.5868Z" fill="white"/>
<path d="M76.9969 45.6282H69.4221C69.401 46.4984 69.7046 47.3261 70.2477 47.8481C70.6388 48.2184 71.1843 48.546 71.9248 48.546C72.7082 48.546 73.1868 48.3931 73.5806 48.0003C73.8179 47.7611 74.0148 47.457 74.1235 47.0427H76.735C76.6698 47.7186 76.2133 48.6117 75.7772 49.1335C74.8216 50.2648 73.4048 50.7219 71.9695 50.7219C70.4236 50.7219 69.2898 50.1783 68.3983 49.3282C67.2668 48.2404 66.6567 46.651 66.6567 44.8018C66.6567 42.9931 67.2008 41.3837 68.2897 40.2717C69.1386 39.4023 70.3568 38.8357 71.9024 38.8357C73.5806 38.8357 75.103 39.5108 76.0378 40.9252C76.8661 42.1663 77.0617 43.4509 77.0188 44.8661C77.0188 44.8661 76.9969 45.3898 76.9969 45.6282ZM73.6015 41.6668C73.2308 41.2741 72.6645 41.0127 71.8802 41.0127C71.0532 41.0127 70.3801 41.361 69.9861 41.8843C69.5968 42.3843 69.422 42.9074 69.4008 43.6466H74.2978C74.2772 42.7984 74.0364 42.1449 73.6015 41.6668Z" fill="white"/>
<path d="M82.7226 37.6162V50.4393H79.9149V37.6162H75.3438V35.0041H87.2935V37.6162H82.7226Z" fill="white"/>
<path d="M91.9489 41.5349C90.035 41.5349 89.0326 42.9069 89.0326 44.7358V50.4395H86.2915V39.118H88.598L88.837 40.817C89.3591 39.511 90.7082 38.9671 92.0372 38.9671C92.3198 38.9671 92.6036 38.9888 92.8861 39.0319V41.6441C92.5814 41.5786 92.2549 41.5349 91.9489 41.5349Z" fill="white"/>
<path d="M102.093 50.6133C100.918 50.6133 100.266 49.8729 100.178 49.025C99.6554 49.9384 98.3493 50.7221 96.7385 50.7221C94.0404 50.7221 92.646 49.025 92.646 47.1738C92.646 45.0186 94.3226 43.7786 96.477 43.6264L99.8092 43.385V42.6895C99.8092 41.622 99.4372 40.9051 97.8921 40.9051C96.6294 40.9051 95.8897 41.4701 95.8243 42.5151H93.1907C93.3419 39.9662 95.3666 38.8359 97.8922 38.8359C99.8306 38.8359 101.485 39.4459 102.137 41.1435C102.42 41.8624 102.464 42.6678 102.464 43.4294V47.631C102.464 48.1533 102.638 48.3499 103.096 48.3499C103.269 48.3499 103.444 48.3057 103.444 48.3057V50.308C102.986 50.5053 102.747 50.6133 102.093 50.6133ZM99.8093 45.41L96.9343 45.6283C96.1071 45.6935 95.3023 46.195 95.3023 47.1089C95.3023 47.9793 96.0637 48.5233 96.9124 48.5233C98.6112 48.5233 99.8093 47.6094 99.8093 45.9329V45.41Z" fill="white"/>
<path d="M112.062 50.4395L111.889 49.199C111.213 50.2438 109.951 50.7007 108.71 50.7007C107.578 50.7007 106.642 50.3069 105.946 49.7438C104.595 48.6327 103.943 46.9344 103.943 44.8018C103.943 42.58 104.617 40.8612 105.967 39.7496C106.663 39.1846 107.578 38.8356 108.732 38.8356C110.169 38.8356 111.213 39.3148 111.693 39.9017V34.7219H114.413V50.4395H112.062ZM109.255 41.1226C108.407 41.1226 107.817 41.5129 107.426 42.0142C106.86 42.7548 106.708 43.7785 106.708 44.7591C106.708 45.7368 106.86 46.7814 107.426 47.5218C107.817 48.0216 108.407 48.4142 109.255 48.4142C111.388 48.4142 111.824 46.3891 111.824 44.7591C111.824 43.1237 111.388 41.1226 109.255 41.1226Z" fill="white"/>
<path d="M126.277 45.6283H118.702C118.68 46.4985 118.985 47.3262 119.529 47.8482C119.919 48.2185 120.464 48.5461 121.204 48.5461C121.988 48.5461 122.466 48.3931 122.859 48.0004C123.098 47.7612 123.295 47.4571 123.402 47.0427H126.016C125.95 47.7187 125.492 48.6118 125.058 49.1336C124.1 50.2649 122.686 50.7219 121.248 50.7219C119.703 50.7219 118.571 50.1784 117.678 49.3283C116.546 48.2405 115.937 46.6511 115.937 44.8019C115.937 42.9932 116.48 41.3838 117.57 40.2718C118.419 39.4024 119.637 38.8357 121.182 38.8357C122.859 38.8357 124.383 39.5109 125.319 40.9253C126.146 42.1664 126.341 43.4509 126.298 44.8662C126.298 44.8662 126.277 45.3899 126.277 45.6283ZM122.881 41.6669C122.511 41.2742 121.945 41.0127 121.16 41.0127C120.334 41.0127 119.659 41.3611 119.268 41.8844C118.875 42.3844 118.702 42.9075 118.68 43.6467H123.577C123.555 42.7985 123.316 42.145 122.881 41.6669Z" fill="white"/>
<path d="M138.206 48.7847C137.183 49.8522 135.638 50.4388 133.874 50.4388H127.867V35.0047H133.874C135.638 35.0047 137.183 35.5914 138.206 36.6589C139.794 38.2917 140.013 40.5782 140.013 42.7118C140.013 44.8452 139.794 47.1511 138.206 48.7847ZM136.051 38.4001C135.529 37.878 134.767 37.529 133.874 37.529H130.675V47.9135H133.874C134.767 47.9135 135.529 47.5658 136.051 47.0426C137.139 45.954 137.161 44.1262 137.161 42.7118C137.161 41.2951 137.139 39.488 136.051 38.4001Z" fill="white"/>
<path d="M151.113 45.6283H143.537C143.515 46.4985 143.82 47.3262 144.365 47.8482C144.757 48.2185 145.3 48.5461 146.041 48.5461C146.825 48.5461 147.303 48.3931 147.696 48.0004C147.935 47.7612 148.13 47.4571 148.24 47.0427H150.851C150.786 47.7187 150.329 48.6118 149.893 49.1336C148.936 50.2649 147.521 50.7219 146.084 50.7219C144.537 50.7219 143.407 50.1784 142.512 49.3283C141.381 48.2405 140.772 46.6511 140.772 44.8019C140.772 42.9932 141.317 41.3838 142.404 40.2718C143.253 39.4024 144.473 38.8357 146.018 38.8357C147.695 38.8357 149.218 39.5109 150.155 40.9253C150.981 42.1664 151.178 43.4509 151.134 44.8662C151.135 44.8662 151.113 45.3899 151.113 45.6283ZM147.718 41.6669C147.347 41.2742 146.78 41.0127 145.998 41.0127C145.171 41.0127 144.494 41.3611 144.103 41.8844C143.711 42.3844 143.537 42.9075 143.515 43.6467H148.413C148.392 42.7985 148.152 42.145 147.718 41.6669Z" fill="white"/>
<path d="M162.846 34.7223V50.4395H165.566V47.4574L167.373 45.4987L170.551 50.4395H173.707L169.223 43.4955L173.272 39.1178H169.855L165.566 43.7127V34.7223H162.846Z" fill="white"/>
<path d="M158.296 43.7339C157.185 43.5602 156.902 43.5387 155.879 43.4066C155.269 43.3201 154.573 43.081 154.573 42.2767C154.573 41.6871 154.966 41.2743 155.444 41.077C155.858 40.905 156.228 40.905 156.618 40.905C157.185 40.905 157.774 41.1 158.099 41.4272C158.361 41.7103 158.557 42.0589 158.557 42.4936H161.146C161.146 41.6669 160.757 40.8172 160.146 40.1627C159.319 39.2712 157.947 38.8354 156.597 38.8354C155.183 38.8354 153.985 39.2502 153.159 39.966C152.484 40.556 152.006 41.3611 152.006 42.5157C152.006 43.9518 153.05 45.2147 154.596 45.5419C155.596 45.7593 156.727 45.8243 157.729 45.9767C158.428 46.0861 158.862 46.5222 158.862 47.1733C158.862 48.4138 157.469 48.6118 156.554 48.6118C155.771 48.6118 155.269 48.4568 154.835 48.1104C154.543 47.874 154.324 47.4546 154.255 47.0317H151.693C151.772 47.9929 152.273 48.8342 152.875 49.4161C153.812 50.307 155.096 50.722 156.533 50.722C158.079 50.722 159.493 50.3318 160.407 49.4161C160.995 48.8288 161.387 48.0217 161.387 46.9346C161.387 45.1493 160.082 44.0172 158.296 43.7339Z" fill="white"/>
<path d="M28.46 34V36.925H31.4513V44.5588H34.3304V36.8792V34H28.46Z" fill="white"/>
<path d="M26.8803 43.8798C26.8803 41.6028 28.1455 39.6213 30.0113 38.6012V38.6009H25.7392C24.6466 40.0771 24 41.9022 24 43.8798C24 47.8036 26.5418 51.1329 30.0678 52.3133V49.1883C28.1713 48.1766 26.8803 46.1796 26.8803 43.8798Z" fill="white"/>
<path d="M35.7722 35.4668V38.6005C37.6383 39.6212 38.9051 41.6023 38.9051 43.8802C38.9051 47.1997 36.2122 49.8921 32.8918 49.8921C32.3966 49.8921 31.9154 49.8318 31.4551 49.7191V52.6562C31.9231 52.7316 32.4025 52.7723 32.8918 52.7723C37.8024 52.7723 41.7839 48.791 41.7839 43.8803C41.7838 39.9768 39.2691 36.6636 35.7722 35.4668Z" fill="white"/>
<path d="M174.952 39.8006C174.351 39.8006 173.904 39.3304 173.904 38.7354C173.904 38.1404 174.351 37.6673 174.952 37.6673C175.553 37.6673 176 38.1375 176 38.7325C176 39.3275 175.553 39.8006 174.952 39.8006ZM174.952 37.8531C174.438 37.8531 174.099 38.2274 174.099 38.7354C174.099 39.2433 174.438 39.6148 174.952 39.6148C175.466 39.6148 175.805 39.2405 175.805 38.7325C175.805 38.2246 175.466 37.8531 174.952 37.8531ZM175.187 39.2724L175.001 38.8631H174.784V39.2724H174.589V38.1608H174.998C175.21 38.1608 175.393 38.2827 175.393 38.5091C175.393 38.6542 175.329 38.7704 175.193 38.8312L175.399 39.2724H175.187V39.2724ZM174.998 38.3406H174.781V38.6832H174.998C175.115 38.6832 175.19 38.6309 175.19 38.509C175.19 38.3958 175.103 38.3406 174.998 38.3406Z" fill="white"/>
</svg>
