<svg width="200" height="86" viewBox="0 0 200 86" fill="none" xmlns="http://www.w3.org/2000/svg">
<path d="M42.1664 32C46.3783 32.0058 50.5902 32.0097 54.8021 32.0156C55.4113 32.1791 55.9115 32.5022 56.3553 32.9479C58.105 34.7054 59.8607 36.4591 61.6357 38.1933C62.3014 38.8434 62.6011 39.5907 62.5972 40.5153C62.5797 44.2367 62.5972 47.9581 62.5855 51.6795C62.5797 53.4468 61.5832 54.4277 59.8237 54.4316C56.038 54.4375 52.2524 54.4219 48.4667 54.4414C47.6006 54.4453 46.9077 54.1747 46.2985 53.5636C44.5487 51.8041 42.7912 50.0543 41.0083 48.3279C40.3135 47.6603 39.9924 46.911 40.0001 45.9378C40.0313 42.2495 40.0118 38.5592 40.0138 34.8709C40.0157 33.2281 40.5704 32.4944 42.1664 32ZM41.2692 40.4238C41.2692 42.2533 41.2439 44.0829 41.2789 45.9105C41.3003 47.0764 41.7324 47.4579 42.8885 47.4715C43.5036 47.4793 44.1225 47.4287 44.7317 47.4851C45.4674 47.5513 45.7438 47.3489 45.7204 46.5528C45.6601 44.5014 45.6913 42.446 45.7029 40.3926C45.7127 38.7266 46.7384 37.6931 48.4239 37.6678C49.944 37.6444 51.4661 37.6814 52.9862 37.6541C53.8172 37.6386 54.8936 38.0162 55.4113 37.4906C55.9251 36.969 55.5573 35.9044 55.567 35.0791C55.5845 33.6914 55.1758 33.2826 53.7958 33.2787C50.236 33.271 46.6761 33.271 43.1182 33.2787C41.6935 33.2807 41.2808 33.6894 41.2692 35.1317C41.2536 36.897 41.2653 38.6604 41.2692 40.4257V40.4238ZM54.1598 53.1295C56.0361 53.1295 57.9124 53.1393 59.7867 53.1256C60.8436 53.1179 61.262 52.7208 61.2659 51.6639C61.2815 47.9114 61.2834 44.1588 61.264 40.4063C61.2581 39.4273 60.8105 39.0088 59.8295 38.9796C59.1191 38.9582 58.4028 39.0146 57.6963 38.9621C57.0521 38.9154 56.873 39.1489 56.8847 39.7718C56.9197 41.8563 56.9158 43.9408 56.8925 46.0254C56.873 47.7615 55.8376 48.7658 54.0995 48.7794C52.6436 48.7892 51.1877 48.7522 49.7338 48.7931C48.8443 48.8184 47.6318 48.3746 47.1549 48.9897C46.7111 49.5619 46.9973 50.7083 47.0089 51.5997C47.0245 52.7461 47.4332 53.1198 48.6283 53.1256C50.4715 53.1334 52.3147 53.1256 54.1598 53.1256V53.1295ZM54.4537 47.4734C54.913 47.3898 55.2147 47.1776 55.4191 46.8175C55.6488 46.4107 55.3101 46.2317 55.096 46.0176C52.9064 43.8338 50.705 41.6578 48.5193 39.4681C48.1612 39.11 47.8478 38.8472 47.4021 39.3222C47.0245 39.7231 46.8921 40.0832 47.3709 40.5503C49.6054 42.738 51.8125 44.951 54.0333 47.1504C54.1656 47.2808 54.3311 47.38 54.4556 47.4734H54.4537ZM50.4364 38.9913C52.1278 40.6924 53.8834 42.4577 55.5573 44.1394C55.822 43.0825 55.4931 42.0899 54.442 41.3074C53.9321 40.9279 53.463 40.4588 53.0796 39.9528C52.3147 38.9446 51.3298 38.7966 50.4364 38.9913ZM47.0323 42.3137C46.9058 43.3783 46.8649 44.4313 47.9802 45.204C48.5018 45.566 48.9767 46.0448 49.3445 46.5587C50.1114 47.6331 51.1391 47.5533 52.1512 47.4326C50.4423 45.7237 48.7373 44.0187 47.0323 42.3137ZM58.7493 37.5938C58.1985 36.9807 57.5912 36.3073 56.9703 35.6183C56.8574 37.9636 56.5168 37.7398 58.7493 37.5938ZM45.6484 50.9827C45.8061 48.5576 45.5959 48.3688 43.3946 49.0052C44.0466 49.5872 44.6188 50.0991 45.1949 50.609C45.3059 50.7083 45.4246 50.7998 45.6504 50.9827H45.6484ZM55.4716 40.4082C55.7344 38.8959 55.6215 38.7869 54.2396 39.0711C54.625 39.4895 55.0396 39.9391 55.4716 40.4082ZM47.0965 46.2862C46.8688 47.5513 47.007 47.6798 48.1709 47.3372C47.8206 46.9966 47.4527 46.6346 47.0965 46.2862Z" fill="white"/>
<path d="M149.573 43.5302C149.573 44.9743 149.529 46.4205 149.589 47.8627C149.628 48.8125 148.997 48.5692 148.493 48.5887C147.977 48.6101 147.473 48.7113 147.493 47.8647C147.543 45.6186 147.489 43.3706 147.524 41.1245C147.534 40.4958 147.345 40.3167 146.71 40.3128C144.168 40.2953 144.168 40.2739 144.168 42.7633C144.168 44.4644 144.126 46.1674 144.186 47.8666C144.217 48.7191 143.703 48.5984 143.191 48.5926C142.668 48.5848 142.088 48.7736 142.111 47.8471C142.166 45.6653 142.103 43.4815 142.142 41.2996C142.154 40.5912 142.022 40.1941 141.206 40.3245C140.398 40.451 140.527 39.8632 140.537 39.3981C140.546 38.9523 140.356 38.3315 141.183 38.4482C141.971 38.5592 142.226 38.2264 142.136 37.4848C142.094 37.1384 142.115 36.7783 142.146 36.4279C142.259 35.1278 142.923 34.4524 144.227 34.3064C144.548 34.2714 144.873 34.2772 145.196 34.2753C146.138 34.2753 146.638 35.0597 146.214 35.9024C145.982 36.3618 145.5 36.1749 145.173 36.1263C144.102 35.9628 144.143 36.5875 144.155 37.3213C144.167 38.0064 144.096 38.5572 145.128 38.4677C146.381 38.3587 147.65 38.4599 148.914 38.4327C149.424 38.421 149.591 38.6001 149.583 39.1003C149.558 40.5756 149.573 42.0529 149.575 43.5302H149.573Z" fill="white"/>
<path d="M88.6706 48.8067C86.841 48.8398 85.3384 48.1605 84.1336 46.7942C83.8008 46.4166 83.7152 46.1733 84.1667 45.7918C85.1438 44.9666 85.1165 44.9413 86.0722 45.8191C87.1291 46.7883 88.3592 47.0959 89.7566 46.7416C90.7279 46.4944 91.2203 45.8424 91.3059 44.8809C91.3935 43.9058 90.903 43.2849 89.9921 43.0007C88.8827 42.6543 87.7344 42.4149 86.6483 42.0101C84.6358 41.2607 83.8028 39.6414 84.303 37.6425C84.5054 36.8328 84.9414 36.1846 85.6265 35.6903C87.7422 34.1741 91.4169 34.6392 93.0576 36.6362C93.3437 36.9846 93.6318 37.3719 93.0245 37.6094C92.5457 37.7962 92.2986 38.9446 91.5083 38.0162C90.5177 36.8522 89.2097 36.6557 87.7986 36.9145C87.0026 37.0605 86.4556 37.5237 86.3622 38.3879C86.2668 39.2735 86.6133 39.9138 87.4716 40.1844C88.6102 40.5425 89.7956 40.7663 90.9147 41.1751C93.6026 42.158 94.387 45.3986 92.4893 47.4851C91.6777 48.3785 90.4281 48.8106 88.6686 48.8067H88.6706Z" fill="white"/>
<path d="M114.391 44.1433C113.486 44.1433 112.577 44.188 111.676 44.1296C110.867 44.079 110.828 44.4858 110.989 45.0678C111.262 46.0507 111.894 46.6988 112.91 46.8857C113.971 47.0803 115.008 46.8681 115.551 45.9066C116.089 44.9568 116.468 45.4784 117.013 45.7996C117.794 46.2589 117.363 46.6949 117.046 47.1192C115.184 49.6125 111.001 49.3205 109.516 46.5626C108.513 44.6999 108.488 42.7302 109.313 40.8053C110.131 38.8978 112.069 37.9383 114.164 38.2789C116.036 38.5825 117.502 40.1805 117.753 42.193C117.915 43.4932 117.343 44.1433 116.038 44.1433C115.489 44.1433 114.938 44.1433 114.389 44.1433H114.391ZM113.243 42.4869C113.858 42.4869 114.473 42.4558 115.084 42.4947C115.721 42.5356 115.771 42.2534 115.643 41.7415C115.403 40.7878 114.674 40.1338 113.667 40.0267C112.605 39.9138 111.637 40.4491 111.213 41.3814C110.781 42.3332 110.87 42.4811 111.884 42.4869C112.336 42.4889 112.79 42.4869 113.241 42.4869H113.243Z" fill="white"/>
<path d="M121.916 39.1703C122.514 38.6662 123.121 38.3315 123.855 38.2614C126.036 38.0512 127.677 39.3475 127.782 41.5527C127.884 43.6975 127.812 45.8502 127.815 47.999C127.817 49.0072 127.045 48.4953 126.605 48.579C126.144 48.6666 125.723 48.6471 125.739 47.9367C125.778 46.0137 125.776 44.0868 125.743 42.1638C125.715 40.5678 124.695 39.8068 123.164 40.1961C122.286 40.4199 121.77 40.924 121.784 41.9011C121.809 43.826 121.745 45.7509 121.813 47.6739C121.842 48.4933 121.525 48.6101 120.811 48.6179C120.053 48.6276 119.726 48.4894 119.744 47.633C119.8 44.8751 119.758 42.1171 119.775 39.3591C119.777 39.0068 119.538 38.386 120.26 38.4658C120.849 38.5319 121.731 37.9636 121.918 39.1742L121.916 39.1703Z" fill="white"/>
<path d="M96.9502 43.3569C96.9502 43.7871 96.9385 44.1082 96.9502 44.4274C96.9988 45.6633 97.5749 46.4828 98.587 46.7689C99.7218 47.09 100.853 46.7494 101.466 45.7529C101.816 45.1826 102.075 45.1573 102.556 45.5427C102.986 45.8891 103.601 46.0332 103.099 46.8409C101.479 49.4412 97.2188 49.5327 95.6539 46.8779C94.3732 44.7038 94.379 42.3585 95.6305 40.1824C97.1798 37.4868 101.423 37.4984 102.931 40.1124C103.141 40.4763 103.443 40.9357 102.779 41.0778C102.301 41.1809 101.808 42.2397 101.257 41.1206C100.79 40.1708 99.9105 40.0053 98.9491 40.0929C98.0109 40.1785 97.4212 40.6885 97.1098 41.5643C96.8859 42.1911 96.9755 42.8314 96.9502 43.3589V43.3569Z" fill="white"/>
<path d="M153.665 43.4212C153.665 43.7734 153.653 44.1277 153.669 44.478C153.719 45.6653 154.276 46.4594 155.255 46.7591C156.37 47.1017 157.596 46.7883 158.143 45.7899C158.628 44.9062 158.976 45.4239 159.473 45.6731C160.158 46.0195 160.105 46.4069 159.728 46.9577C158.735 48.4096 156.9 49.1103 155.031 48.7055C153.159 48.3006 151.919 46.9557 151.606 44.8751C151.432 43.7306 151.454 42.5706 151.759 41.4398C152.479 38.7772 155.381 37.4186 157.927 38.5475C158.468 38.7869 158.943 39.1236 159.286 39.6024C159.554 39.98 160.097 40.4043 159.815 40.8325C159.568 41.2082 158.959 41.3541 158.501 41.5858C158.247 41.7142 158.194 41.4884 158.087 41.3308C157.287 40.163 156.45 39.8263 155.236 40.163C154.241 40.4394 153.692 41.3074 153.669 42.6504C153.665 42.9073 153.669 43.1623 153.669 43.4192L153.665 43.4212Z" fill="white"/>
<path d="M77.3273 41.8719C77.7652 43.1487 78.242 44.4391 78.7131 45.7996C79.55 43.4679 80.3246 41.2938 81.111 39.1236C81.3095 38.5748 82.6778 38.1816 83.1546 38.5144C83.3862 38.676 83.2422 38.855 83.1838 39.0185C82.1153 42.0431 81.035 45.0639 79.9723 48.0924C79.6823 48.9157 79.0089 48.5147 78.4912 48.5848C78.0396 48.6452 77.6406 48.6354 77.4363 48.0379C76.4222 45.0619 75.3712 42.0996 74.3065 39.1411C74.0885 38.5358 74.3104 38.4794 74.8554 38.4249C75.7974 38.3295 76.2899 38.5903 76.5799 39.5674C76.8095 40.3381 77.0606 41.105 77.3253 41.8738" fill="white"/>
<path d="M69.4211 43.8708C69.4211 42.9404 69.39 42.0101 69.4328 41.0816C69.4581 40.5075 69.2966 40.2194 68.6835 40.3284C67.901 40.4685 67.7784 40.0695 67.7998 39.4C67.8173 38.785 67.8212 38.3042 68.6543 38.4366C69.316 38.5417 69.6235 38.2419 69.5652 37.5724C69.5457 37.3505 69.5652 37.1247 69.5652 36.8989C69.5652 35.7701 69.9466 35.4956 71.0872 35.7564C71.3694 35.8207 71.4628 35.9569 71.4589 36.2138C71.457 36.4708 71.4589 36.7277 71.4589 36.9826C71.4589 38.384 71.4589 38.4405 72.8525 38.421C73.7498 38.4093 73.5162 38.9757 73.5435 39.4448C73.5727 39.945 73.6116 40.453 72.8311 40.3342C72.5781 40.2953 72.3114 40.3537 72.0565 40.3245C71.4765 40.2583 71.4531 40.6028 71.4551 41.033C71.4667 42.6679 71.4901 44.3028 71.4453 45.9378C71.4259 46.6034 71.6847 46.7377 72.2881 46.7241C73.3313 46.6988 73.7109 47.271 73.3917 48.2676C73.3372 48.4369 73.2613 48.579 73.0803 48.5751C72.1518 48.5537 71.1942 48.7756 70.3087 48.3512C69.6527 48.0379 69.4328 47.4404 69.425 46.7572C69.4153 45.7957 69.4231 44.8342 69.4231 43.8727L69.4211 43.8708Z" fill="white"/>
<path d="M130.914 43.9116C130.914 42.9813 130.879 42.0509 130.926 41.1225C130.959 40.488 130.747 40.2214 130.108 40.3284C129.31 40.4627 129.301 39.9664 129.328 39.4039C129.353 38.8998 129.207 38.3003 130.069 38.4405C130.891 38.5748 131.089 38.1329 131.019 37.4323C131 37.2415 131.015 37.0469 131.017 36.8561C131.017 35.8129 131.56 35.447 132.59 35.7642C132.823 35.8362 132.895 35.9647 132.899 36.173C132.903 36.3657 132.903 36.5583 132.903 36.7491C132.909 38.3159 132.907 38.3548 134.454 38.4249C135.326 38.4658 134.98 39.0575 135.021 39.4565C135.066 39.8866 135.153 40.3304 134.404 40.344C132.901 40.3732 132.901 40.4179 132.901 41.9633C132.901 43.246 132.942 44.5306 132.886 45.8093C132.853 46.5275 133.063 46.7669 133.8 46.7241C134.772 46.6677 135.21 47.3898 134.85 48.3045C134.783 48.4739 134.682 48.579 134.503 48.5751C133.666 48.5576 132.814 48.723 132 48.4408C131.282 48.1897 130.932 47.633 130.92 46.8895C130.904 45.8969 130.916 44.9023 130.916 43.9077H130.912L130.914 43.9116Z" fill="white"/>
<path d="M106.892 43.5321C106.892 44.9743 106.845 46.4205 106.908 47.8608C106.949 48.8067 106.324 48.5576 105.82 48.5926C105.255 48.6335 104.847 48.6198 104.858 47.8238C104.903 44.9374 104.907 42.0509 104.858 39.1645C104.843 38.2147 105.45 38.4755 105.952 38.4385C106.513 38.3957 106.945 38.4015 106.91 39.2015C106.847 40.6418 106.892 42.0879 106.892 43.5302V43.5321Z" fill="white"/>
<path d="M138.954 43.5321C138.954 44.9451 138.902 46.3601 138.974 47.7673C139.017 48.6062 138.588 48.6315 137.975 48.5965C137.44 48.5673 136.903 48.7347 136.92 47.8257C136.975 44.9374 136.973 42.047 136.92 39.1606C136.903 38.203 137.518 38.4794 138.01 38.4405C138.569 38.3957 139.005 38.3957 138.97 39.1995C138.906 40.6418 138.952 42.0879 138.952 43.5321H138.954Z" fill="white"/>
<path d="M148.505 34.2831C149.262 34.3064 149.716 34.647 149.735 35.4411C149.756 36.2859 149.357 36.7238 148.556 36.7374C147.771 36.751 147.355 36.3715 147.322 35.5949C147.288 34.7891 147.738 34.2947 148.505 34.2831Z" fill="white"/>
<path d="M104.712 35.4937C104.675 34.6957 105.101 34.3142 105.864 34.287C106.657 34.2578 107.075 34.7151 107.059 35.5521C107.044 36.3793 106.614 36.7938 105.8 36.7491C105.006 36.7043 104.652 36.2722 104.712 35.4937Z" fill="white"/>
<path d="M139.12 35.4664C139.118 36.3657 138.727 36.7666 137.905 36.7394C137.123 36.7141 136.745 36.3209 136.769 35.5287C136.794 34.6937 137.203 34.2402 137.991 34.287C138.746 34.3317 139.182 34.7074 139.12 35.4664Z" fill="white"/>
</svg>
