<svg width="102" height="134" viewBox="0 0 102 134" fill="none" xmlns="http://www.w3.org/2000/svg">
<path d="M8.78931 98.7426L51.651 120.82L92.885 98.7426V12.4115H8.78931V98.7426Z" fill="white"/>
<path d="M93.7533 12.741L7.92139 100.28L52.4107 122.577L93.7533 101.159V12.741Z" fill="#F2F3F2"/>
<path d="M5.96802 41.1886V100.61L7.48717 101.379L50.3489 123.456L51.651 124.115L52.9531 123.456L94.2957 101.379L95.8148 100.61V9.55579H5.96802V41.1886ZM8.78929 98.9623V12.4115H92.9935V98.9623L51.651 121.039L8.78929 98.9623Z" fill="#DCDEDC"/>
<path d="M50.8915 13.8394C51.3256 13.8394 51.7596 13.8394 52.1937 13.9492L50.8915 16.4755C48.9383 16.3656 47.2022 17.9033 47.0937 19.8804C46.9851 21.8574 48.5043 23.6148 50.4575 23.7246H50.8915C51.7596 23.7246 52.6277 23.3951 53.2788 22.8459L54.6894 25.2623C53.6043 26.0312 52.3022 26.4705 50.8915 26.4705C47.4192 26.5804 44.4894 23.9443 44.3809 20.4296C44.2724 16.9148 46.8766 13.9492 50.349 13.8394H50.8915ZM55.3405 19.2214L56.9681 21.9673L55.3405 24.6033L53.8213 21.9673H50.6745L52.3022 19.2214H55.3405ZM52.7362 18.2328C52.7362 17.7935 52.8447 17.3541 53.0617 17.0246C53.2788 16.6951 53.7128 16.3656 54.0383 16.146L54.2554 16.0361C54.6894 15.8164 54.7979 15.7066 54.7979 15.4869C54.7979 15.2673 54.4724 15.0476 54.2554 15.0476C53.8213 15.0476 53.4958 15.2673 53.2788 15.7066L52.7362 15.1574C52.8447 14.9378 53.0617 14.7181 53.2788 14.4984C53.6043 14.2787 53.9298 14.2787 54.2554 14.2787C54.5809 14.2787 55.0149 14.3886 55.232 14.6082C55.449 14.8279 55.666 15.1574 55.666 15.4869C55.666 16.0361 55.3405 16.4755 54.6894 16.6951L54.3639 16.9148C54.0383 17.1345 53.8213 17.2443 53.7128 17.5738H55.666V18.3427L52.7362 18.2328ZM50.8915 31.9623L61.2 26.0312V9.55579H40.4745V25.9214L50.8915 31.9623ZM97.8766 70.8443H3.90642L0.434082 78.5328L3.90642 86.2214H97.8766L101.24 78.5328L97.8766 70.8443Z" fill="#FF492C"/>
<path d="M20.7147 65.9016C20.6496 65.9016 20.5953 65.8796 20.5519 65.8357C20.5085 65.7844 20.4868 65.7259 20.4868 65.66V52.3039C20.4868 52.238 20.5085 52.1794 20.5519 52.1282C20.5953 52.0842 20.6496 52.0623 20.7147 52.0623H23.0043C23.0694 52.0623 23.1236 52.0842 23.167 52.1282C23.2177 52.1794 23.243 52.238 23.243 52.3039V63.4083C23.243 63.4742 23.2755 63.5072 23.3406 63.5072H29.7211C29.7862 63.5072 29.8441 63.5291 29.8947 63.5731C29.9381 63.6243 29.9598 63.6829 29.9598 63.7488V65.66C29.9598 65.7259 29.9381 65.7844 29.8947 65.8357C29.8441 65.8796 29.7862 65.9016 29.7211 65.9016H20.7147ZM40.366 59.7727C40.4455 60.2707 40.4709 60.8308 40.4419 61.4532C40.4347 61.6143 40.3515 61.6949 40.1924 61.6949H34.1592C34.0796 61.6949 34.0543 61.7278 34.0832 61.7937C34.1194 62.0573 34.1881 62.3209 34.2894 62.5845C34.6294 63.3168 35.3202 63.6829 36.3619 63.6829C37.1938 63.6756 37.8521 63.3351 38.3368 62.6614C38.3875 62.5809 38.4453 62.5406 38.5104 62.5406C38.5538 62.5406 38.6009 62.5662 38.6515 62.6175L40.0513 64.0234C40.1164 64.0893 40.1489 64.1479 40.1489 64.1991C40.1489 64.2284 40.1236 64.2833 40.073 64.3639C39.6462 64.8984 39.0928 65.3158 38.4128 65.616C37.74 65.9089 36.9985 66.0554 36.1883 66.0554C35.067 66.0554 34.1194 65.7991 33.3453 65.2865C32.5713 64.7739 32.0143 64.0564 31.6743 63.1337C31.3994 62.4747 31.2619 61.6107 31.2619 60.5416C31.2619 59.8167 31.3596 59.1796 31.5549 58.6305C31.8587 57.6932 32.3832 56.9463 33.1283 56.3898C33.8806 55.8406 34.7704 55.566 35.7977 55.566C37.0998 55.566 38.1451 55.9468 38.9336 56.7083C39.7221 57.4699 40.1996 58.4913 40.366 59.7727ZM35.8194 57.9714C34.9947 57.9714 34.4521 58.3595 34.1917 59.1357C34.1411 59.3114 34.0977 59.5238 34.0615 59.7727C34.0615 59.8386 34.0941 59.8716 34.1592 59.8716H37.5338C37.6134 59.8716 37.6387 59.8386 37.6098 59.7727C37.5447 59.392 37.5121 59.2089 37.5121 59.2236C37.3964 58.8282 37.1938 58.5206 36.9045 58.3009C36.6079 58.0813 36.2462 57.9714 35.8194 57.9714ZM46.0519 55.577C46.8983 55.577 47.6543 55.7271 48.3198 56.0273C48.9853 56.3202 49.5026 56.7266 49.8715 57.2465C50.2404 57.7591 50.4249 58.3302 50.4249 58.96V65.66C50.4249 65.7259 50.4032 65.7844 50.3598 65.8357C50.3164 65.8796 50.2621 65.9016 50.197 65.9016H47.9075C47.8424 65.9016 47.7881 65.8796 47.7447 65.8357C47.6941 65.7844 47.6687 65.7259 47.6687 65.66V65.0119C47.6687 64.9753 47.6579 64.9497 47.6362 64.935C47.6072 64.9204 47.5819 64.9314 47.5602 64.968C47.0104 65.6929 46.1315 66.0554 44.9234 66.0554C43.9034 66.0554 43.0823 65.8064 42.4602 65.3085C41.8309 64.8106 41.5162 64.071 41.5162 63.0898C41.5162 62.0793 41.8706 61.2921 42.5796 60.7283C43.2813 60.1718 44.2832 59.8936 45.5853 59.8936H47.5711C47.6362 59.8936 47.6687 59.8606 47.6687 59.7947V59.3554C47.6687 58.9233 47.5385 58.5829 47.2781 58.3339C47.0177 58.0923 46.627 57.9714 46.1062 57.9714C45.7083 57.9714 45.3755 58.0447 45.1079 58.1911C44.8402 58.3376 44.6666 58.5426 44.587 58.8062C44.5509 58.9526 44.4677 59.0185 44.3375 59.0039L41.9719 58.6854C41.8128 58.6561 41.7404 58.5975 41.7549 58.5096C41.8055 57.9531 42.0226 57.4515 42.406 57.0049C42.7894 56.5582 43.2994 56.2104 43.936 55.9614C44.5653 55.7052 45.2706 55.577 46.0519 55.577ZM45.6613 63.9795C46.2183 63.9795 46.6921 63.8294 47.0828 63.5291C47.4734 63.2289 47.6687 62.8408 47.6687 62.3649V61.6509C47.6687 61.585 47.6362 61.5521 47.5711 61.5521H46.1713C45.5853 61.5521 45.126 61.6656 44.7932 61.8926C44.4604 62.1123 44.2941 62.4271 44.2941 62.8372C44.2941 63.196 44.417 63.4742 44.663 63.6719C44.9089 63.877 45.2417 63.9795 45.6613 63.9795ZM58.5958 52.3039C58.5958 52.238 58.6175 52.1794 58.6609 52.1282C58.7043 52.0842 58.7585 52.0623 58.8236 52.0623H61.1132C61.1783 52.0623 61.2326 52.0842 61.276 52.1282C61.3194 52.1794 61.3411 52.238 61.3411 52.3039V65.66C61.3411 65.7259 61.3194 65.7844 61.276 65.8357C61.2326 65.8796 61.1783 65.9016 61.1132 65.9016H58.8236C58.7585 65.9016 58.7043 65.8796 58.6609 65.8357C58.6175 65.7844 58.5958 65.7259 58.5958 65.66V65.0119C58.5958 64.9753 58.5813 64.9533 58.5523 64.946C58.5234 64.9387 58.4981 64.946 58.4764 64.968C57.9266 65.6929 57.1779 66.0554 56.2302 66.0554C55.3187 66.0554 54.5338 65.7991 53.8755 65.2865C53.2172 64.7739 52.7434 64.071 52.4541 63.1777C52.237 62.4894 52.1285 61.6912 52.1285 60.7832C52.1285 59.846 52.2443 59.0295 52.4758 58.3339C52.7796 57.4845 53.2534 56.8145 53.8972 56.3239C54.5411 55.826 55.3368 55.577 56.2845 55.577C57.2249 55.577 57.9555 55.9065 58.4764 56.5655C58.4981 56.6095 58.5234 56.6241 58.5523 56.6095C58.5813 56.5948 58.5958 56.5692 58.5958 56.5326V52.3039ZM58.1834 62.8152C58.4438 62.3319 58.574 61.6656 58.574 60.8162C58.574 59.9375 58.4294 59.2455 58.14 58.7403C57.8434 58.2277 57.4094 57.9714 56.8379 57.9714C56.223 57.9714 55.76 58.2277 55.4489 58.7403C55.1234 59.2602 54.9606 59.9595 54.9606 60.8382C54.9606 61.629 55.0981 62.288 55.373 62.8152C55.6985 63.3864 56.1796 63.6719 56.8162 63.6719C57.4021 63.6719 57.8579 63.3864 58.1834 62.8152ZM72.3006 59.7727C72.3802 60.2707 72.4055 60.8308 72.3766 61.4532C72.3694 61.6143 72.2862 61.6949 72.127 61.6949H66.0938C66.0143 61.6949 65.9889 61.7278 66.0179 61.7937C66.0541 62.0573 66.1228 62.3209 66.2241 62.5845C66.5641 63.3168 67.2549 63.6829 68.2966 63.6829C69.1285 63.6756 69.7868 63.3351 70.2715 62.6614C70.3221 62.5809 70.38 62.5406 70.4451 62.5406C70.4885 62.5406 70.5355 62.5662 70.5862 62.6175L71.986 64.0234C72.0511 64.0893 72.0836 64.1479 72.0836 64.1991C72.0836 64.2284 72.0583 64.2833 72.0077 64.3639C71.5809 64.8984 71.0275 65.3158 70.3475 65.616C69.6747 65.9089 68.9332 66.0554 68.123 66.0554C67.0017 66.0554 66.0541 65.7991 65.28 65.2865C64.506 64.7739 63.9489 64.0564 63.6089 63.1337C63.334 62.4747 63.1966 61.6107 63.1966 60.5416C63.1966 59.8167 63.2943 59.1796 63.4896 58.6305C63.7934 57.6932 64.3179 56.9463 65.063 56.3898C65.8153 55.8406 66.7051 55.566 67.7323 55.566C69.0345 55.566 70.0798 55.9468 70.8683 56.7083C71.6568 57.4699 72.1343 58.4913 72.3006 59.7727ZM67.754 57.9714C66.9294 57.9714 66.3868 58.3595 66.1264 59.1357C66.0757 59.3114 66.0324 59.5238 65.9962 59.7727C65.9962 59.8386 66.0287 59.8716 66.0938 59.8716H69.4685C69.5481 59.8716 69.5734 59.8386 69.5445 59.7727C69.4794 59.392 69.4468 59.2089 69.4468 59.2236C69.3311 58.8282 69.1285 58.5206 68.8392 58.3009C68.5426 58.0813 68.1809 57.9714 67.754 57.9714ZM79.0826 55.599C79.5528 55.599 79.9217 55.6905 80.1894 55.8736C80.2979 55.9321 80.3377 56.031 80.3087 56.1701L79.8964 58.4327C79.8892 58.5865 79.7987 58.6305 79.6251 58.5645C79.4298 58.4986 79.2019 58.4657 78.9415 58.4657C78.8402 58.4657 78.6992 58.4803 78.5183 58.5096C78.0481 58.5462 77.6502 58.7183 77.3247 59.0259C76.9992 59.3407 76.8364 59.7544 76.8364 60.267V65.66C76.8364 65.7259 76.8147 65.7844 76.7713 65.8357C76.7206 65.8796 76.6628 65.9016 76.5977 65.9016H74.3189C74.2538 65.9016 74.196 65.8796 74.1453 65.8357C74.1019 65.7844 74.0802 65.7259 74.0802 65.66V55.9724C74.0802 55.9065 74.1019 55.8516 74.1453 55.8077C74.196 55.7637 74.2538 55.7418 74.3189 55.7418H76.5977C76.6628 55.7418 76.7206 55.7637 76.7713 55.8077C76.8147 55.8516 76.8364 55.9065 76.8364 55.9724V56.7303C76.8364 56.7669 76.8472 56.7925 76.8689 56.8072C76.8979 56.8218 76.9196 56.8145 76.9341 56.7852C77.4694 55.9944 78.1855 55.599 79.0826 55.599Z" fill="#252530"/>
<path d="M35.9604 82.9043C35.3961 82.9043 34.9042 82.8128 34.4846 82.6297C34.065 82.4467 33.7395 82.1904 33.508 81.8609C33.2838 81.5313 33.1716 81.1433 33.1716 80.6966V80.422C33.1716 80.3854 33.1861 80.3524 33.215 80.3232C33.2367 80.3012 33.2657 80.2902 33.3018 80.2902H34.2676C34.3038 80.2902 34.3363 80.3012 34.3652 80.3232C34.387 80.3524 34.3978 80.3854 34.3978 80.422V80.6307C34.3978 80.9675 34.5461 81.2458 34.8427 81.4654C35.1393 81.6924 35.5444 81.8059 36.058 81.8059C36.4993 81.8059 36.8321 81.7108 37.0563 81.5204C37.2806 81.33 37.3927 81.0847 37.3927 80.7845C37.3927 80.5794 37.3312 80.4037 37.2082 80.2573C37.0852 80.1181 36.9116 79.99 36.6874 79.8728C36.4559 79.7557 36.1123 79.6092 35.6565 79.4335C35.1429 79.2431 34.7269 79.0637 34.4087 78.8953C34.0904 78.7269 33.8263 78.4962 33.6165 78.2033C33.3995 77.9177 33.291 77.5589 33.291 77.1269C33.291 76.4826 33.5225 75.9736 33.9855 75.6002C34.4484 75.2268 35.0669 75.04 35.841 75.04C36.3835 75.04 36.8646 75.1352 37.2842 75.3256C37.6965 75.516 38.0184 75.7833 38.2499 76.1274C38.4814 76.4642 38.5972 76.856 38.5972 77.3027V77.4894C38.5972 77.526 38.5827 77.5589 38.5538 77.5882C38.5321 77.6102 38.5031 77.6212 38.467 77.6212H37.4904C37.4542 77.6212 37.4253 77.6102 37.4035 77.5882C37.3746 77.5589 37.3601 77.526 37.3601 77.4894V77.3686C37.3601 77.0244 37.2227 76.7352 36.9478 76.5009C36.6657 76.2592 36.2787 76.1384 35.7867 76.1384C35.3889 76.1384 35.0814 76.2226 34.8644 76.391C34.6401 76.5594 34.528 76.7974 34.528 77.105C34.528 77.3246 34.5859 77.504 34.7016 77.6432C34.8174 77.7823 34.991 77.9068 35.2225 78.0166C35.454 78.1338 35.8121 78.2802 36.2967 78.4559C36.8104 78.6536 37.2227 78.833 37.5338 78.9941C37.8376 79.1552 38.1016 79.3786 38.3259 79.6641C38.5429 79.957 38.6514 80.3195 38.6514 80.7515C38.6514 81.4105 38.4091 81.9341 37.9244 82.3222C37.447 82.7103 36.7923 82.9043 35.9604 82.9043ZM42.9701 75.1169C43.4259 75.1169 43.8274 75.2121 44.1746 75.4025C44.5218 75.5929 44.7895 75.8601 44.9776 76.2043C45.1729 76.5558 45.2706 76.9585 45.2706 77.4125C45.2706 77.8592 45.1729 78.2546 44.9776 78.5987C44.7823 78.9429 44.5074 79.2065 44.1529 79.3895C43.7912 79.5799 43.3752 79.6751 42.905 79.6751H41.1689C41.1327 79.6751 41.1146 79.6934 41.1146 79.73V82.6846C41.1146 82.7212 41.1038 82.7505 41.0821 82.7725C41.0531 82.8018 41.0206 82.8164 40.9844 82.8164H39.9861C39.9499 82.8164 39.921 82.8018 39.8993 82.7725C39.8704 82.7505 39.8559 82.7212 39.8559 82.6846V75.2487C39.8559 75.2121 39.8704 75.1792 39.8993 75.1499C39.921 75.1279 39.9499 75.1169 39.9861 75.1169H42.9701ZM42.7857 78.6427C43.1546 78.6427 43.4512 78.5328 43.6755 78.3132C43.8997 78.0935 44.0118 77.8042 44.0118 77.4455C44.0118 77.0793 43.8997 76.7828 43.6755 76.5558C43.4512 76.3288 43.1546 76.2153 42.7857 76.2153H41.1689C41.1327 76.2153 41.1146 76.2336 41.1146 76.2702V78.5877C41.1146 78.6244 41.1327 78.6427 41.1689 78.6427H42.7857ZM50.6418 82.8164C50.5695 82.8164 50.5189 82.7835 50.4899 82.7176L49.0576 79.5543C49.0431 79.525 49.0214 79.5104 48.9925 79.5104H47.6904C47.6542 79.5104 47.6361 79.5287 47.6361 79.5653V82.6846C47.6361 82.7212 47.6216 82.7505 47.5927 82.7725C47.571 82.8018 47.5421 82.8164 47.5059 82.8164H46.5076C46.4714 82.8164 46.4425 82.8018 46.4208 82.7725C46.3918 82.7505 46.3774 82.7212 46.3774 82.6846V75.2597C46.3774 75.2231 46.3918 75.1938 46.4208 75.1718C46.4425 75.1426 46.4714 75.1279 46.5076 75.1279H49.4916C49.9329 75.1279 50.3235 75.2194 50.6635 75.4025C51.0035 75.5929 51.2676 75.8565 51.4557 76.1933C51.6438 76.5375 51.7378 76.9292 51.7378 77.3686C51.7378 77.8738 51.6112 78.3022 51.358 78.6536C51.0976 79.0124 50.7395 79.2614 50.2838 79.4005C50.2693 79.4005 50.2584 79.4079 50.2512 79.4225C50.244 79.4371 50.244 79.4518 50.2512 79.4664L51.7812 82.6627C51.7957 82.692 51.8029 82.7139 51.8029 82.7286C51.8029 82.7871 51.7631 82.8164 51.6835 82.8164H50.6418ZM47.6904 76.2263C47.6542 76.2263 47.6361 76.2446 47.6361 76.2812V78.4669C47.6361 78.5035 47.6542 78.5218 47.6904 78.5218H49.318C49.6653 78.5218 49.9438 78.4157 50.1535 78.2033C50.3706 77.9983 50.4791 77.7237 50.4791 77.3795C50.4791 77.0354 50.3706 76.7571 50.1535 76.5448C49.9438 76.3324 49.6653 76.2263 49.318 76.2263H47.6904ZM53.1593 82.8164C53.1231 82.8164 53.0906 82.8018 53.0616 82.7725C53.0399 82.7505 53.0291 82.7212 53.0291 82.6846V75.2597C53.0291 75.2231 53.0399 75.1938 53.0616 75.1718C53.0906 75.1426 53.1231 75.1279 53.1593 75.1279H54.1576C54.1938 75.1279 54.2227 75.1426 54.2444 75.1718C54.2733 75.1938 54.2878 75.2231 54.2878 75.2597V82.6846C54.2878 82.7212 54.2733 82.7505 54.2444 82.7725C54.2227 82.8018 54.1938 82.8164 54.1576 82.8164H53.1593ZM60.2884 75.2597C60.2884 75.2231 60.3029 75.1938 60.3318 75.1718C60.3535 75.1426 60.3825 75.1279 60.4187 75.1279H61.417C61.4531 75.1279 61.4857 75.1426 61.5146 75.1718C61.5363 75.1938 61.5472 75.2231 61.5472 75.2597V82.6846C61.5472 82.7212 61.5363 82.7505 61.5146 82.7725C61.4857 82.8018 61.4531 82.8164 61.417 82.8164H60.4512C60.3789 82.8164 60.3282 82.7871 60.2993 82.7286L57.1742 77.5443C57.1597 77.5223 57.1453 77.5114 57.1308 77.5114C57.1163 77.5187 57.1091 77.537 57.1091 77.5663L57.1308 82.6846C57.1308 82.7212 57.1163 82.7505 57.0874 82.7725C57.0657 82.8018 57.0367 82.8164 57.0006 82.8164H56.0023C55.9661 82.8164 55.9372 82.8018 55.9155 82.7725C55.8865 82.7505 55.8721 82.7212 55.8721 82.6846V75.2597C55.8721 75.2231 55.8865 75.1938 55.9155 75.1718C55.9372 75.1426 55.9661 75.1279 56.0023 75.1279H56.968C57.0404 75.1279 57.091 75.1572 57.1199 75.2158L60.2342 80.4C60.2487 80.422 60.2631 80.4293 60.2776 80.422C60.2921 80.422 60.2993 80.4074 60.2993 80.3781L60.2884 75.2597ZM65.6706 82.9043C65.128 82.9043 64.6506 82.7981 64.2382 82.5858C63.8259 82.3661 63.5076 82.0586 63.2833 81.6632C63.0591 81.2677 62.947 80.8138 62.947 80.3012V77.6432C62.947 77.1233 63.0591 76.6656 63.2833 76.2702C63.5076 75.8821 63.8259 75.5782 64.2382 75.3586C64.6506 75.1462 65.128 75.04 65.6706 75.04C66.2059 75.04 66.6797 75.1462 67.0921 75.3586C67.4972 75.5709 67.8118 75.8602 68.0361 76.2263C68.2604 76.5924 68.3725 77.0061 68.3725 77.4674V77.5553C68.3725 77.5919 68.3616 77.6212 68.3399 77.6432C68.311 77.6724 68.2784 77.6871 68.2423 77.6871H67.2548C67.2187 77.6871 67.1897 77.6724 67.168 77.6432C67.1391 77.6212 67.1246 77.5919 67.1246 77.5553V77.5004C67.1246 77.105 66.9908 76.7791 66.7231 76.5228C66.4627 76.2665 66.1118 76.1384 65.6706 76.1384C65.2293 76.1384 64.8748 76.2739 64.6072 76.5448C64.3395 76.8084 64.2057 77.1599 64.2057 77.5992V80.3451C64.2057 80.7845 64.3467 81.1396 64.6289 81.4105C64.911 81.6741 65.2763 81.8059 65.7248 81.8059C66.1589 81.8059 66.5025 81.6888 66.7557 81.4545C67.0016 81.2275 67.1246 80.9126 67.1246 80.5099V79.8289C67.1246 79.7923 67.1065 79.774 67.0704 79.774H65.7357C65.6995 79.774 65.667 79.7593 65.638 79.73C65.6163 79.7081 65.6055 79.6788 65.6055 79.6422V78.8294C65.6055 78.7928 65.6163 78.7635 65.638 78.7415C65.667 78.7122 65.6995 78.6976 65.7357 78.6976H68.2423C68.2784 78.6976 68.311 78.7122 68.3399 78.7415C68.3616 78.7635 68.3725 78.7928 68.3725 78.8294V80.2353C68.3725 81.0774 68.1301 81.7327 67.6455 82.2013C67.1535 82.67 66.4953 82.9043 65.6706 82.9043Z" fill="white"/>
<path d="M36.9261 102.653C36.9044 102.675 36.8972 102.697 36.9044 102.719C36.9189 102.741 36.9406 102.752 36.9695 102.752H41.234C41.2846 102.752 41.328 102.77 41.3642 102.807C41.4076 102.843 41.4293 102.887 41.4293 102.938V104.487C41.4293 104.538 41.4076 104.582 41.3642 104.619C41.328 104.655 41.2846 104.674 41.234 104.674H34.1591C34.1012 104.674 34.0542 104.655 34.018 104.619C33.9819 104.582 33.9638 104.538 33.9638 104.487V103.015C33.9638 102.92 33.9963 102.839 34.0614 102.774C34.5751 102.268 35.0995 101.715 35.6349 101.115C36.1702 100.515 36.5066 100.141 36.644 99.9947C36.9334 99.6432 37.23 99.3064 37.5338 98.9842C38.4887 97.9151 38.9661 97.1207 38.9661 96.6008C38.9661 96.2273 38.8359 95.9198 38.5755 95.6781C38.3151 95.4438 37.9751 95.3267 37.5555 95.3267C37.1359 95.3267 36.7959 95.4438 36.5355 95.6781C36.2678 95.9198 36.134 96.2383 36.134 96.6337V97.0291C36.134 97.0804 36.1159 97.1243 36.0797 97.1609C36.0436 97.1975 36.0002 97.2159 35.9495 97.2159H34.094C34.0434 97.2159 34 97.1975 33.9638 97.1609C33.9204 97.1243 33.8987 97.0804 33.8987 97.0291V96.2822C33.9349 95.7111 34.1157 95.2022 34.4412 94.7555C34.7668 94.3162 35.1972 93.9793 35.7325 93.745C36.2751 93.5107 36.8827 93.3936 37.5555 93.3936C38.3006 93.3936 38.948 93.5363 39.4978 93.8219C40.0476 94.1002 40.4708 94.4773 40.7674 94.9532C41.0712 95.4365 41.2232 95.9674 41.2232 96.5459C41.2232 96.9925 41.111 97.4502 40.8868 97.9188C40.6697 98.3874 40.3406 98.8927 39.8993 99.4345C39.5738 99.8446 39.2229 100.255 38.8468 100.665C38.4706 101.067 37.91 101.65 37.1649 102.411L36.9261 102.653ZM46.5402 104.849C45.3827 104.849 44.4712 104.524 43.8057 103.872C43.1329 103.22 42.7966 102.331 42.7966 101.203V96.9962C42.7966 95.8905 43.1329 95.0155 43.8057 94.3711C44.4712 93.7194 45.3827 93.3936 46.5402 93.3936C47.6904 93.3936 48.6055 93.7194 49.2855 94.3711C49.9583 95.0155 50.2946 95.8905 50.2946 96.9962V101.203C50.2946 102.331 49.9583 103.22 49.2855 103.872C48.6055 104.524 47.6904 104.849 46.5402 104.849ZM46.5402 102.927C47.0104 102.927 47.3829 102.781 47.6578 102.488C47.94 102.195 48.081 101.803 48.081 101.313V96.9303C48.081 96.447 47.94 96.0589 47.6578 95.766C47.3829 95.4731 47.0104 95.3267 46.5402 95.3267C46.0772 95.3267 45.7083 95.4731 45.4334 95.766C45.1512 96.0589 45.0102 96.447 45.0102 96.9303V101.313C45.0102 101.803 45.1512 102.195 45.4334 102.488C45.7083 102.781 46.0772 102.927 46.5402 102.927ZM54.7002 102.653C54.6785 102.675 54.6749 102.697 54.6893 102.719C54.6966 102.741 54.7183 102.752 54.7544 102.752H59.0189C59.0695 102.752 59.1129 102.77 59.1491 102.807C59.1853 102.843 59.2034 102.887 59.2034 102.938V104.487C59.2034 104.538 59.1853 104.582 59.1491 104.619C59.1129 104.655 59.0695 104.674 59.0189 104.674H51.9332C51.8825 104.674 51.8391 104.655 51.8029 104.619C51.7668 104.582 51.7487 104.538 51.7487 104.487V103.015C51.7487 102.92 51.7776 102.839 51.8355 102.774C52.3563 102.268 52.8808 101.715 53.4089 101.115C53.9442 100.515 54.2806 100.141 54.418 99.9947C54.7146 99.6432 55.0149 99.3064 55.3187 98.9842C56.2736 97.9151 56.751 97.1207 56.751 96.6008C56.751 96.2273 56.6208 95.9198 56.3604 95.6781C56.0927 95.4438 55.7491 95.3267 55.3295 95.3267C54.91 95.3267 54.57 95.4438 54.3095 95.6781C54.0491 95.9198 53.9189 96.2383 53.9189 96.6337V97.0291C53.9189 97.0804 53.9008 97.1243 53.8646 97.1609C53.8285 97.1975 53.7814 97.2159 53.7236 97.2159H51.868C51.8174 97.2159 51.774 97.1975 51.7378 97.1609C51.7017 97.1243 51.6836 97.0804 51.6836 97.0291V96.2822C51.7125 95.7111 51.8897 95.2022 52.2153 94.7555C52.5408 94.3162 52.9749 93.9793 53.5174 93.745C54.06 93.5107 54.664 93.3936 55.3295 93.3936C56.0746 93.3936 56.7221 93.5363 57.2719 93.8219C57.8289 94.1002 58.2557 94.4773 58.5523 94.9532C58.8489 95.4365 58.9972 95.9674 58.9972 96.5459C58.9972 96.9925 58.8887 97.4502 58.6717 97.9188C58.4474 98.3874 58.1146 98.8927 57.6734 99.4345C57.3478 99.8446 56.997 100.255 56.6208 100.665C56.2446 101.067 55.684 101.65 54.9389 102.411L54.7002 102.653ZM67.1355 99.3577C67.3453 99.8409 67.4502 100.401 67.4502 101.038C67.4502 101.617 67.3561 102.147 67.168 102.631C66.9149 103.312 66.4917 103.843 65.8985 104.223C65.3053 104.611 64.6036 104.806 63.7934 104.806C62.9976 104.806 62.2995 104.604 61.6991 104.201C61.0987 103.791 60.6646 103.242 60.397 102.554C60.2523 102.144 60.1691 101.697 60.1474 101.214C60.1474 101.089 60.2089 101.027 60.3319 101.027H62.1983C62.3212 101.027 62.3827 101.089 62.3827 101.214C62.4261 101.565 62.484 101.825 62.5563 101.994C62.6504 102.272 62.8059 102.488 63.0229 102.642C63.2327 102.796 63.4859 102.872 63.7825 102.872C64.3685 102.872 64.7736 102.612 64.9978 102.093C65.1425 101.778 65.2148 101.408 65.2148 100.983C65.2148 100.478 65.1353 100.068 64.9761 99.7531C64.7374 99.2551 64.3359 99.0062 63.7717 99.0062C63.6559 99.0062 63.5329 99.0391 63.4027 99.105C63.2797 99.1783 63.1278 99.2771 62.947 99.4016C62.9036 99.4309 62.8638 99.4455 62.8276 99.4455C62.7625 99.4455 62.7155 99.4162 62.6866 99.3577L61.7534 98.0286C61.7317 97.9993 61.7208 97.9627 61.7208 97.9188C61.7208 97.8529 61.7425 97.8016 61.7859 97.765L64.2817 95.5463C64.3034 95.5244 64.3142 95.5024 64.3142 95.4804C64.307 95.4585 64.2889 95.4475 64.26 95.4475H60.5597C60.5091 95.4475 60.4621 95.4292 60.4187 95.3926C60.3825 95.356 60.3644 95.312 60.3644 95.2608V93.7121C60.3644 93.6608 60.3825 93.6169 60.4187 93.5803C60.4621 93.5437 60.5091 93.5254 60.5597 93.5254H67.1138C67.1717 93.5254 67.2187 93.5437 67.2549 93.5803C67.291 93.6169 67.3091 93.6608 67.3091 93.7121V95.4695C67.3091 95.55 67.2729 95.6305 67.2006 95.7111L65.1389 97.6222C65.1172 97.6442 65.11 97.6625 65.1172 97.6772C65.1172 97.6991 65.1389 97.7101 65.1823 97.7101C66.0938 97.8932 66.7449 98.4424 67.1355 99.3577Z" fill="#252530"/>
</svg>
