<svg width="102" height="134" viewBox="0 0 102 134" fill="none" xmlns="http://www.w3.org/2000/svg">
<path d="M8.78931 98.7426L51.651 120.82L92.885 98.7426V12.4115H8.78931V98.7426Z" fill="white"/>
<path d="M93.7532 12.741L7.92126 100.28L52.4106 122.577L93.7532 101.159V12.741Z" fill="#F2F3F2"/>
<path d="M5.96814 41.1885V100.61L7.48729 101.379L50.349 123.456L51.6511 124.115L52.9532 123.456L94.2958 101.379L95.8149 100.61V9.55573H5.96814V41.1885ZM8.78942 98.9623V12.4115H92.9937V98.9623L51.6511 121.039L8.78942 98.9623Z" fill="#DCDEDC"/>
<path d="M50.8915 13.8393C51.3256 13.8393 51.7596 13.8393 52.1936 13.9492L50.8915 16.4754C48.9383 16.3656 47.2021 17.9033 47.0936 19.8803C46.9851 21.8574 48.5043 23.6147 50.4575 23.7246H50.8915C51.7596 23.7246 52.6277 23.3951 53.2787 22.8459L54.6894 25.2623C53.6043 26.0311 52.3021 26.4705 50.8915 26.4705C47.4192 26.5803 44.4894 23.9443 44.3809 20.4295C44.2724 16.9147 46.8766 13.9492 50.349 13.8393H50.8915ZM55.3404 19.2213L56.9681 21.9672L55.3404 24.6033L53.8213 21.9672H50.6745L52.3021 19.2213H55.3404ZM52.7362 18.2328C52.7362 17.7934 52.8447 17.3541 53.0617 17.0246C53.2787 16.6951 53.7128 16.3656 54.0383 16.1459L54.2553 16.0361C54.6894 15.8164 54.7979 15.7065 54.7979 15.4869C54.7979 15.2672 54.4724 15.0475 54.2553 15.0475C53.8213 15.0475 53.4958 15.2672 53.2787 15.7065L52.7362 15.1574C52.8447 14.9377 53.0617 14.718 53.2787 14.4983C53.6043 14.2787 53.9298 14.2787 54.2553 14.2787C54.5809 14.2787 55.0149 14.3885 55.2319 14.6082C55.449 14.8279 55.666 15.1574 55.666 15.4869C55.666 16.0361 55.3404 16.4754 54.6894 16.6951L54.3638 16.9147C54.0383 17.1344 53.8213 17.2442 53.7128 17.5738H55.666V18.3426L52.7362 18.2328ZM50.8915 31.9623L61.2 26.0311V9.55573H40.4745V25.9213L50.8915 31.9623Z" fill="#FF492C"/>
<path d="M97.8766 70.8442H3.90642L0.434082 78.5328L3.90642 86.2213H97.8766L101.24 78.5328L97.8766 70.8442Z" fill="#2690CE"/>
<path d="M34.2894 66.0334C33.4213 66.0334 32.6653 65.8943 32.0215 65.6161C31.3632 65.3305 30.8604 64.9277 30.5132 64.4079C30.1587 63.888 29.9815 63.2839 29.9815 62.5956V62.2331C29.9815 62.1745 29.9996 62.1269 30.0357 62.0903C30.0791 62.0537 30.1262 62.0354 30.1768 62.0354H32.0323C32.083 62.0354 32.13 62.0537 32.1734 62.0903C32.2096 62.1269 32.2277 62.1745 32.2277 62.2331V62.4747C32.2277 62.9141 32.4302 63.2839 32.8353 63.5841C33.2332 63.8916 33.7757 64.0454 34.463 64.0454C35.0345 64.0454 35.4613 63.9209 35.7434 63.672C36.0255 63.423 36.1666 63.1191 36.1666 62.7603C36.1666 62.4894 36.0798 62.2661 35.9062 62.0903C35.7325 61.9073 35.4974 61.7462 35.2008 61.607C34.897 61.4752 34.4232 61.2885 33.7794 61.0469C33.0487 60.7906 32.4302 60.5306 31.9238 60.267C31.4247 60.0034 31.0015 59.6446 30.6542 59.1906C30.3142 58.7367 30.1442 58.1728 30.1442 57.4992C30.1442 56.8402 30.3142 56.2653 30.6542 55.7747C30.987 55.2768 31.45 54.8961 32.0432 54.6325C32.6436 54.3688 33.3345 54.237 34.1157 54.237C34.9404 54.237 35.6747 54.3871 36.3185 54.6874C36.9623 54.9803 37.4687 55.394 37.8377 55.9285C38.1994 56.4557 38.3802 57.0745 38.3802 57.7847V58.0264C38.3802 58.085 38.3621 58.1326 38.326 58.1692C38.2825 58.2058 38.2355 58.2241 38.1849 58.2241H36.3185C36.2606 58.2241 36.2136 58.2058 36.1774 58.1692C36.134 58.1326 36.1123 58.085 36.1123 58.0264V57.8946C36.1123 57.4333 35.9279 57.0415 35.5589 56.7193C35.1828 56.3971 34.6691 56.2361 34.0181 56.2361C33.5045 56.2361 33.1066 56.3459 32.8245 56.5656C32.5351 56.7779 32.3904 57.0781 32.3904 57.4662C32.3904 57.7445 32.4736 57.9751 32.64 58.1582C32.8136 58.3486 33.0632 58.517 33.3887 58.6634C33.7215 58.8099 34.2351 59.0112 34.9296 59.2675C35.7036 59.5531 36.3077 59.8057 36.7417 60.0254C37.183 60.2451 37.5808 60.5709 37.9353 61.0029C38.2898 61.435 38.467 61.9988 38.467 62.6944C38.467 63.7269 38.0908 64.5397 37.3385 65.1328C36.5934 65.7332 35.577 66.0334 34.2894 66.0334ZM47.3323 60.7943C47.3974 61.2116 47.4191 61.6766 47.3974 62.1892C47.383 62.3283 47.3106 62.3979 47.1804 62.3979H42.1564C42.0913 62.3979 42.0696 62.4235 42.0913 62.4747C42.1202 62.6944 42.1781 62.9141 42.2649 63.1338C42.547 63.7488 43.1221 64.0564 43.9902 64.0564C44.6847 64.0491 45.2345 63.7635 45.6396 63.1997C45.683 63.1338 45.73 63.1008 45.7806 63.1008C45.8168 63.1008 45.8566 63.1228 45.9 63.1667L47.0719 64.331C47.1225 64.3896 47.1479 64.4408 47.1479 64.4847C47.1479 64.5067 47.1262 64.5506 47.0828 64.6166C46.7283 65.0705 46.2689 65.4184 45.7047 65.66C45.1404 65.909 44.5219 66.0334 43.8491 66.0334C42.916 66.0334 42.1274 65.8211 41.4836 65.3964C40.8325 64.9644 40.3659 64.3639 40.0838 63.5951C39.8596 63.0459 39.7474 62.3283 39.7474 61.4423C39.7474 60.8345 39.827 60.3 39.9862 59.8387C40.2394 59.0625 40.677 58.4438 41.2991 57.9825C41.9213 57.5211 42.6628 57.2905 43.5236 57.2905C44.6087 57.2905 45.4804 57.609 46.1387 58.2461C46.797 58.8831 47.1949 59.7325 47.3323 60.7943ZM43.5345 59.3005C42.8545 59.3005 42.406 59.6227 42.1889 60.267C42.1455 60.4135 42.1057 60.5892 42.0696 60.7943C42.0696 60.8455 42.0985 60.8711 42.1564 60.8711H44.9668C45.0319 60.8711 45.0536 60.8455 45.0319 60.7943C44.9813 60.4794 44.956 60.3256 44.956 60.3329C44.8547 60.0034 44.6847 59.7471 44.4459 59.5641C44.2 59.3884 43.8962 59.3005 43.5345 59.3005ZM53.4198 59.1028C53.4198 59.154 53.4017 59.198 53.3655 59.2346C53.3221 59.2785 53.2751 59.3005 53.2245 59.3005H51.6619C51.6113 59.3005 51.586 59.3261 51.586 59.3774V62.8702C51.586 63.229 51.6583 63.4999 51.803 63.6829C51.9477 63.8587 52.1828 63.9465 52.5083 63.9465H53.04C53.0979 63.9465 53.1449 63.9649 53.1811 64.0015C53.2172 64.0381 53.2353 64.0857 53.2353 64.1443V65.7039C53.2353 65.8284 53.1702 65.898 53.04 65.9126C52.5842 65.9346 52.2587 65.9456 52.0634 65.9456C51.1664 65.9456 50.4972 65.7955 50.056 65.4952C49.6074 65.195 49.376 64.6275 49.3615 63.7928V59.3774C49.3615 59.3261 49.3362 59.3005 49.2855 59.3005H48.3523C48.3017 59.3005 48.2583 59.2785 48.2221 59.2346C48.1787 59.198 48.157 59.154 48.157 59.1028V57.631C48.157 57.5797 48.1787 57.5321 48.2221 57.4882C48.2583 57.4516 48.3017 57.4333 48.3523 57.4333H49.2855C49.3362 57.4333 49.3615 57.404 49.3615 57.3454V55.3903C49.3615 55.3391 49.3832 55.2915 49.4266 55.2475C49.4628 55.2109 49.5062 55.1926 49.5568 55.1926H51.3906C51.4413 55.1926 51.4847 55.2109 51.5208 55.2475C51.5642 55.2915 51.586 55.3391 51.586 55.3903V57.3454C51.586 57.404 51.6113 57.4333 51.6619 57.4333H53.2245C53.2751 57.4333 53.3221 57.4516 53.3655 57.4882C53.4017 57.5321 53.4198 57.5797 53.4198 57.631V59.1028ZM59.6808 57.631C59.6808 57.5797 59.7025 57.5321 59.746 57.4882C59.7821 57.4516 59.8255 57.4333 59.8762 57.4333H61.7859C61.8366 57.4333 61.8836 57.4516 61.927 57.4882C61.9632 57.5321 61.9813 57.5797 61.9813 57.631V65.7039C61.9813 65.7625 61.9632 65.8101 61.927 65.8467C61.8836 65.8833 61.8366 65.9016 61.7859 65.9016H59.8762C59.8255 65.9016 59.7821 65.8833 59.746 65.8467C59.7025 65.8101 59.6808 65.7625 59.6808 65.7039V65.1438C59.6808 65.1145 59.67 65.0962 59.6483 65.0888C59.6266 65.0815 59.6049 65.0962 59.5832 65.1328C59.1491 65.7186 58.4764 66.0115 57.5649 66.0115C56.7402 66.0115 56.0638 65.7625 55.5357 65.2646C55.0004 64.7593 54.7328 64.0491 54.7328 63.1338V57.631C54.7328 57.5797 54.7545 57.5321 54.7979 57.4882C54.834 57.4516 54.8774 57.4333 54.9281 57.4333H56.8162C56.874 57.4333 56.9211 57.4516 56.9572 57.4882C56.9934 57.5321 57.0115 57.5797 57.0115 57.631V62.5626C57.0115 63.002 57.1308 63.3571 57.3696 63.628C57.6011 63.9063 57.923 64.0454 58.3353 64.0454C58.7042 64.0454 59.0081 63.9319 59.2468 63.7049C59.4855 63.4779 59.6302 63.185 59.6808 62.8262V57.631ZM71.1396 59.7069C71.3349 60.2634 71.4325 60.9224 71.4325 61.6839C71.4325 62.4455 71.3313 63.1338 71.1287 63.7488C70.8755 64.4518 70.4813 65.0083 69.9459 65.4184C69.4106 65.8284 68.7451 66.0334 67.9494 66.0334C67.1681 66.0334 66.5604 65.7588 66.1264 65.2097C66.1047 65.1804 66.083 65.1694 66.0613 65.1767C66.0396 65.184 66.0287 65.206 66.0287 65.2426V68.7684C66.0287 68.8269 66.0106 68.8745 65.9745 68.9111C65.9383 68.9478 65.8913 68.9661 65.8334 68.9661H63.9345C63.8766 68.9661 63.8296 68.9478 63.7934 68.9111C63.7572 68.8745 63.7391 68.8269 63.7391 68.7684V57.631C63.7391 57.5797 63.7572 57.5321 63.7934 57.4882C63.8296 57.4516 63.8766 57.4333 63.9345 57.4333H65.8334C65.8913 57.4333 65.9383 57.4516 65.9745 57.4882C66.0106 57.5321 66.0287 57.5797 66.0287 57.631V58.1692C66.0287 58.2058 66.0396 58.2278 66.0613 58.2351C66.083 58.2424 66.1047 58.2351 66.1264 58.2131C66.5821 57.6053 67.2115 57.3015 68.0145 57.3015C68.7668 57.3015 69.4179 57.5138 69.9677 57.9385C70.5102 58.3632 70.9008 58.9527 71.1396 59.7069ZM68.6547 63.3974C68.9223 62.9727 69.0562 62.3905 69.0562 61.651C69.0562 60.9627 68.944 60.4135 68.7198 60.0034C68.4666 59.5348 68.0651 59.3005 67.5153 59.3005C67.0162 59.3005 66.64 59.5348 66.3868 60.0034C66.1625 60.3988 66.0504 60.9553 66.0504 61.6729C66.0504 62.4052 66.1698 62.9763 66.4085 63.3864C66.6545 63.8257 67.0234 64.0454 67.5153 64.0454C68 64.0454 68.3798 63.8294 68.6547 63.3974ZM32.4121 39.6838C32.4121 39.7423 32.3904 39.7899 32.347 39.8265C32.3108 39.8632 32.2674 39.8815 32.2168 39.8815H26.8672C26.8166 39.8815 26.7913 39.9108 26.7913 39.9693V42.5175C26.7913 42.5761 26.8166 42.6054 26.8672 42.6054H30.3721C30.4228 42.6054 30.4698 42.6237 30.5132 42.6603C30.5494 42.7043 30.5674 42.7518 30.5674 42.8031V44.3957C30.5674 44.4543 30.5494 44.5019 30.5132 44.5385C30.4698 44.5824 30.4228 44.6044 30.3721 44.6044H26.8672C26.8166 44.6044 26.7913 44.63 26.7913 44.6813V47.3503C26.7913 47.4089 26.8166 47.4382 26.8672 47.4382H32.2168C32.2674 47.4382 32.3108 47.4565 32.347 47.4931C32.3904 47.5297 32.4121 47.5737 32.4121 47.6249V49.2285C32.4121 49.2871 32.3904 49.3347 32.347 49.3713C32.3108 49.4079 32.2674 49.4262 32.2168 49.4262H24.6862C24.6355 49.4262 24.5921 49.4079 24.556 49.3713C24.5125 49.3347 24.4908 49.2871 24.4908 49.2285V38.0911C24.4908 38.0399 24.5125 37.9923 24.556 37.9484C24.5921 37.9117 24.6355 37.8934 24.6862 37.8934H32.2168C32.2674 37.8934 32.3108 37.9117 32.347 37.9484C32.3904 37.9923 32.4121 38.0399 32.4121 38.0911V39.6838ZM37.1974 40.8261C37.8991 40.8261 38.5285 40.9505 39.0855 41.1995C39.6353 41.4485 40.0657 41.7853 40.3768 42.21C40.6806 42.642 40.8325 43.1216 40.8325 43.6488V49.2285C40.8325 49.2871 40.8145 49.3347 40.7783 49.3713C40.7421 49.4079 40.6951 49.4262 40.6372 49.4262H38.7383C38.6804 49.4262 38.6334 49.4079 38.5972 49.3713C38.5611 49.3347 38.543 49.2871 38.543 49.2285V48.6903C38.543 48.6537 38.5321 48.6317 38.5104 48.6244C38.4887 48.6098 38.467 48.6208 38.4453 48.6574C37.9896 49.2578 37.2553 49.558 36.2425 49.558C35.3962 49.558 34.7162 49.3493 34.2025 48.932C33.6745 48.5146 33.4104 47.8995 33.4104 47.0867C33.4104 46.2446 33.707 45.5893 34.3002 45.1206C34.8789 44.652 35.7108 44.4177 36.796 44.4177H38.467C38.5177 44.4177 38.543 44.3921 38.543 44.3408V43.9784C38.543 43.6122 38.4345 43.3267 38.2174 43.1216C38.0004 42.9239 37.6749 42.8251 37.2408 42.8251C36.9081 42.8251 36.6296 42.8837 36.4053 43.0008C36.1811 43.1253 36.0364 43.2974 35.9713 43.517C35.9423 43.6342 35.87 43.6891 35.7542 43.6818L33.7902 43.4182C33.66 43.3962 33.5985 43.345 33.6057 43.2644C33.6564 42.8031 33.8408 42.3857 34.1591 42.0123C34.4774 41.6388 34.9006 41.3496 35.4287 41.1446C35.9496 40.9322 36.5391 40.8261 37.1974 40.8261ZM36.8611 47.8336C37.3313 47.8336 37.7291 47.7055 38.0547 47.4492C38.3802 47.1929 38.543 46.867 38.543 46.4716V45.8785C38.543 45.8273 38.5177 45.8016 38.467 45.8016H37.2951C36.8032 45.8016 36.4198 45.8968 36.1449 46.0872C35.87 46.2703 35.7325 46.5339 35.7325 46.878C35.7325 47.1709 35.8338 47.4016 36.0364 47.57C36.2389 47.7457 36.5138 47.8336 36.8611 47.8336ZM45.7915 49.5361C45.0608 49.5361 44.4242 49.4335 43.8817 49.2285C43.3391 49.0235 42.9196 48.7343 42.623 48.3608C42.3191 47.9874 42.1672 47.5627 42.1672 47.0867V46.922C42.1672 46.8707 42.1889 46.8231 42.2323 46.7792C42.2685 46.7426 42.3119 46.7243 42.3625 46.7243H44.1747C44.2325 46.7243 44.2796 46.7426 44.3157 46.7792C44.3519 46.8231 44.37 46.8707 44.37 46.922V46.9329C44.37 47.1819 44.5038 47.3906 44.7715 47.559C45.0319 47.7274 45.3647 47.8116 45.7698 47.8116C46.1387 47.8116 46.4353 47.7384 46.6596 47.592C46.8911 47.4382 47.0068 47.2551 47.0068 47.0428C47.0068 46.8451 46.9091 46.695 46.7138 46.5924C46.5185 46.4973 46.1966 46.3947 45.7481 46.2849C45.2417 46.1531 44.8402 46.025 44.5436 45.9005C43.8491 45.6588 43.2957 45.3623 42.8834 45.0108C42.4711 44.6593 42.2649 44.1541 42.2649 43.4951C42.2649 42.6823 42.5796 42.0379 43.2089 41.562C43.8311 41.086 44.6594 40.848 45.6938 40.848C46.3883 40.848 46.996 40.9579 47.5168 41.1775C48.0304 41.4045 48.4319 41.7231 48.7213 42.1331C49.0106 42.5358 49.1553 42.9971 49.1553 43.517C49.1553 43.5683 49.1372 43.6122 49.1011 43.6488C49.0649 43.6855 49.0179 43.7038 48.96 43.7038H47.2238C47.166 43.7038 47.1189 43.6855 47.0828 43.6488C47.0466 43.6122 47.0285 43.5683 47.0285 43.517C47.0285 43.2754 46.9055 43.0704 46.6596 42.902C46.4136 42.7335 46.0917 42.6493 45.6938 42.6493C45.3321 42.6493 45.0355 42.7189 44.804 42.858C44.5798 42.9898 44.4677 43.1692 44.4677 43.3962C44.4677 43.6159 44.5798 43.7806 44.804 43.8905C45.0211 44.0003 45.3936 44.1175 45.9217 44.242C46.0374 44.2712 46.1713 44.3042 46.3232 44.3408C46.4751 44.3774 46.6379 44.425 46.8115 44.4836C47.5855 44.7179 48.1932 45.0145 48.6345 45.3733C49.0757 45.7394 49.2964 46.2666 49.2964 46.9549C49.2964 47.7677 48.9817 48.4011 48.3523 48.8551C47.7157 49.3091 46.8621 49.5361 45.7915 49.5361ZM51.8572 40.0023C51.4883 40.0023 51.1808 39.8778 50.9349 39.6288C50.6962 39.3872 50.5768 39.0797 50.5768 38.7062C50.5768 38.3181 50.6962 38.0033 50.9349 37.7616C51.1736 37.52 51.4811 37.3992 51.8572 37.3992C52.2406 37.3992 52.5481 37.52 52.7796 37.7616C53.0255 38.0033 53.1485 38.3181 53.1485 38.7062C53.1485 39.0797 53.0255 39.3872 52.7796 39.6288C52.5336 39.8778 52.2262 40.0023 51.8572 40.0023ZM50.8806 49.4262C50.83 49.4262 50.783 49.4079 50.7396 49.3713C50.7034 49.3347 50.6853 49.2871 50.6853 49.2285V41.1446C50.6853 41.086 50.7034 41.0384 50.7396 41.0018C50.783 40.9652 50.83 40.9469 50.8806 40.9469H52.7796C52.8374 40.9469 52.8845 40.9652 52.9206 41.0018C52.9568 41.0384 52.9749 41.086 52.9749 41.1446V49.2285C52.9749 49.2871 52.9568 49.3347 52.9206 49.3713C52.8845 49.4079 52.8374 49.4262 52.7796 49.4262H50.8806ZM62.1766 44.3188C62.2417 44.7362 62.2634 45.2012 62.2417 45.7138C62.2345 45.8529 62.1657 45.9225 62.0355 45.9225H57.0006C56.9355 45.9225 56.9138 45.9481 56.9355 45.9993C56.9717 46.219 57.0332 46.4387 57.12 46.6584C57.4021 47.2734 57.9736 47.581 58.8345 47.581C59.5289 47.5737 60.0787 47.2881 60.4838 46.7243C60.5272 46.6584 60.5779 46.6254 60.6357 46.6254C60.6647 46.6254 60.7008 46.6474 60.7442 46.6913L61.9162 47.8556C61.974 47.9141 62.003 47.9654 62.003 48.0093C62.003 48.0313 61.9777 48.0752 61.927 48.1411C61.5725 48.5951 61.1132 48.9429 60.5489 49.1846C59.9847 49.4335 59.3662 49.558 58.6934 49.558C57.7602 49.558 56.9717 49.3457 56.3279 48.921C55.684 48.489 55.2174 47.8885 54.9281 47.1197C54.7038 46.5705 54.5917 45.8529 54.5917 44.9669C54.5917 44.3591 54.6749 43.8246 54.8413 43.3633C55.0872 42.5871 55.5213 41.9684 56.1434 41.507C56.7728 41.0457 57.5143 40.8151 58.3679 40.8151C59.453 40.8151 60.3247 41.1336 60.983 41.7706C61.6413 42.4077 62.0391 43.2571 62.1766 44.3188ZM58.3787 42.8251C57.6987 42.8251 57.2502 43.1473 57.0332 43.7916C56.9898 43.9381 56.9536 44.1138 56.9247 44.3188C56.9247 44.3701 56.95 44.3957 57.0006 44.3957H59.8219C59.8798 44.3957 59.8979 44.3701 59.8762 44.3188C59.8255 44.004 59.8002 43.8502 59.8002 43.8575C59.6989 43.528 59.5289 43.2717 59.2902 43.0887C59.0442 42.9129 58.7404 42.8251 58.3787 42.8251ZM66.886 49.5361C66.1553 49.5361 65.5187 49.4335 64.9762 49.2285C64.4336 49.0235 64.014 48.7343 63.7174 48.3608C63.4208 47.9874 63.2725 47.5627 63.2725 47.0867V46.922C63.2725 46.8707 63.2906 46.8231 63.3268 46.7792C63.363 46.7426 63.41 46.7243 63.4679 46.7243H65.2691C65.327 46.7243 65.374 46.7426 65.4102 46.7792C65.4464 46.8231 65.4645 46.8707 65.4645 46.922V46.9329C65.4645 47.1819 65.5983 47.3906 65.866 47.559C66.1336 47.7274 66.4664 47.8116 66.8642 47.8116C67.2332 47.8116 67.5334 47.7384 67.7649 47.592C67.9891 47.4382 68.1013 47.2551 68.1013 47.0428C68.1013 46.8451 68.0036 46.695 67.8083 46.5924C67.613 46.4973 67.2947 46.3947 66.8534 46.2849C66.3398 46.1531 65.9383 46.025 65.6489 45.9005C64.9545 45.6588 64.4011 45.3623 63.9887 45.0108C63.5764 44.6593 63.3702 44.1541 63.3702 43.4951C63.3702 42.6823 63.6813 42.0379 64.3034 41.562C64.9255 41.086 65.7538 40.848 66.7883 40.848C67.4828 40.848 68.0904 40.9579 68.6113 41.1775C69.1321 41.4045 69.5336 41.7231 69.8157 42.1331C70.1051 42.5358 70.2498 42.9971 70.2498 43.517C70.2498 43.5683 70.2317 43.6122 70.1955 43.6488C70.1594 43.6855 70.1123 43.7038 70.0545 43.7038H68.3183C68.2604 43.7038 68.2134 43.6855 68.1772 43.6488C68.1411 43.6122 68.123 43.5683 68.123 43.517C68.123 43.2754 68 43.0704 67.754 42.902C67.5081 42.7335 67.1862 42.6493 66.7883 42.6493C66.4266 42.6493 66.1336 42.7189 65.9094 42.858C65.6779 42.9898 65.5621 43.1692 65.5621 43.3962C65.5621 43.6159 65.6742 43.7806 65.8985 43.8905C66.1228 44.0003 66.4953 44.1175 67.0162 44.242C67.1319 44.2712 67.2657 44.3042 67.4177 44.3408C67.5696 44.3774 67.7323 44.425 67.906 44.4836C68.68 44.7179 69.2877 45.0145 69.7289 45.3733C70.1774 45.7394 70.4017 46.2666 70.4017 46.9549C70.4017 47.7677 70.0834 48.4011 69.4468 48.8551C68.8102 49.3091 67.9566 49.5361 66.886 49.5361ZM76.5 42.6274C76.5 42.6786 76.4819 42.7226 76.4457 42.7592C76.4096 42.8031 76.3625 42.8251 76.3047 42.8251H74.7421C74.6915 42.8251 74.6662 42.8507 74.6662 42.902V46.3947C74.6662 46.7535 74.7385 47.0245 74.8832 47.2075C75.0279 47.3833 75.263 47.4711 75.5885 47.4711H76.1311C76.1817 47.4711 76.2251 47.4894 76.2613 47.5261C76.3047 47.5627 76.3264 47.6103 76.3264 47.6688V49.2285C76.3264 49.353 76.2613 49.4226 76.1311 49.4372C75.6753 49.4592 75.3498 49.4702 75.1545 49.4702C74.2502 49.4702 73.5774 49.32 73.1362 49.0198C72.6877 48.7196 72.4598 48.1521 72.4525 47.3174V42.902C72.4525 42.8507 72.4236 42.8251 72.3657 42.8251H71.4434C71.3855 42.8251 71.3385 42.8031 71.3023 42.7592C71.2662 42.7226 71.2481 42.6786 71.2481 42.6274V41.1556C71.2481 41.1043 71.2662 41.0567 71.3023 41.0128C71.3385 40.9762 71.3855 40.9579 71.4434 40.9579H72.3657C72.4236 40.9579 72.4525 40.9286 72.4525 40.87V38.9149C72.4525 38.8637 72.4706 38.8161 72.5068 38.7721C72.543 38.7355 72.59 38.7172 72.6479 38.7172H74.4708C74.5215 38.7172 74.5649 38.7355 74.6011 38.7721C74.6445 38.8161 74.6662 38.8637 74.6662 38.9149V40.87C74.6662 40.9286 74.6915 40.9579 74.7421 40.9579H76.3047C76.3625 40.9579 76.4096 40.9762 76.4457 41.0128C76.4819 41.0567 76.5 41.1043 76.5 41.1556V42.6274Z" fill="#252530"/>
<path d="M33.8553 82.8164C33.7757 82.8164 33.7251 82.7798 33.7034 82.7066L31.7285 75.2707L31.7177 75.2267C31.7177 75.1608 31.7574 75.1279 31.837 75.1279H32.9004C32.98 75.1279 33.0306 75.1645 33.0523 75.2377L34.2894 80.2462C34.2966 80.2682 34.3074 80.2792 34.3219 80.2792C34.3364 80.2792 34.3472 80.2682 34.3545 80.2462L35.5372 75.2377C35.5589 75.1645 35.606 75.1279 35.6783 75.1279H36.72C36.7996 75.1279 36.8502 75.1645 36.8719 75.2377L38.1306 80.2572C38.1379 80.2792 38.1487 80.2902 38.1632 80.2902C38.1776 80.2902 38.1885 80.2792 38.1957 80.2572L39.4111 75.2377C39.4328 75.1645 39.4834 75.1279 39.563 75.1279H40.5721C40.6734 75.1279 40.7132 75.1755 40.6915 75.2707L38.8142 82.7066C38.7925 82.7798 38.7419 82.8164 38.6623 82.8164H37.6532C37.5736 82.8164 37.523 82.7798 37.5013 82.7066L36.2317 77.4674C36.2245 77.4454 36.2136 77.4308 36.1991 77.4234C36.1847 77.4234 36.1738 77.4381 36.1666 77.4674L34.9513 82.7066C34.9296 82.7798 34.8825 82.8164 34.8102 82.8164H33.8553ZM41.896 82.8164C41.8598 82.8164 41.8272 82.8017 41.7983 82.7725C41.7766 82.7505 41.7657 82.7212 41.7657 82.6846V75.2597C41.7657 75.2231 41.7766 75.1938 41.7983 75.1718C41.8272 75.1425 41.8598 75.1279 41.896 75.1279H42.8942C42.9304 75.1279 42.9594 75.1425 42.9811 75.1718C43.01 75.1938 43.0245 75.2231 43.0245 75.2597V82.6846C43.0245 82.7212 43.01 82.7505 42.9811 82.7725C42.9594 82.8017 42.9304 82.8164 42.8942 82.8164H41.896ZM49.0251 75.2597C49.0251 75.2231 49.0359 75.1938 49.0577 75.1718C49.0866 75.1425 49.1191 75.1279 49.1553 75.1279H50.1536C50.1898 75.1279 50.2187 75.1425 50.2404 75.1718C50.2694 75.1938 50.2838 75.2231 50.2838 75.2597V82.6846C50.2838 82.7212 50.2694 82.7505 50.2404 82.7725C50.2187 82.8017 50.1898 82.8164 50.1536 82.8164H49.1879C49.1155 82.8164 49.0649 82.7871 49.0359 82.7285L45.9108 77.5443C45.8964 77.5223 45.8819 77.5113 45.8674 77.5113C45.853 77.5186 45.8457 77.5369 45.8457 77.5662L45.8674 82.6846C45.8674 82.7212 45.853 82.7505 45.824 82.7725C45.8023 82.8017 45.7734 82.8164 45.7372 82.8164H44.7389C44.7028 82.8164 44.6702 82.8017 44.6413 82.7725C44.6196 82.7505 44.6087 82.7212 44.6087 82.6846V75.2597C44.6087 75.2231 44.6196 75.1938 44.6413 75.1718C44.6702 75.1425 44.7028 75.1279 44.7389 75.1279H45.7047C45.777 75.1279 45.8277 75.1572 45.8566 75.2157L48.9708 80.4C48.9853 80.422 48.9998 80.4293 49.0142 80.422C49.0287 80.422 49.0359 80.4073 49.0359 80.378L49.0251 75.2597ZM56.8596 75.1279C56.8957 75.1279 56.9247 75.1425 56.9464 75.1718C56.9753 75.1938 56.9898 75.2231 56.9898 75.2597V76.1054C56.9898 76.142 56.9753 76.1713 56.9464 76.1933C56.9247 76.2226 56.8957 76.2372 56.8596 76.2372H54.863C54.8268 76.2372 54.8087 76.2555 54.8087 76.2921V82.6846C54.8087 82.7212 54.7979 82.7505 54.7762 82.7725C54.7472 82.8017 54.7147 82.8164 54.6785 82.8164H53.6802C53.644 82.8164 53.6151 82.8017 53.5934 82.7725C53.5645 82.7505 53.55 82.7212 53.55 82.6846V76.2921C53.55 76.2555 53.5319 76.2372 53.4957 76.2372H51.5751C51.5389 76.2372 51.5064 76.2226 51.4774 76.1933C51.4557 76.1713 51.4449 76.142 51.4449 76.1054V75.2597C51.4449 75.2231 51.4557 75.1938 51.4774 75.1718C51.5064 75.1425 51.5389 75.1279 51.5751 75.1279H56.8596ZM63.2942 76.0944C63.2942 76.131 63.2798 76.1603 63.2508 76.1823C63.2291 76.2116 63.2002 76.2262 63.164 76.2262H59.4638C59.4277 76.2262 59.4096 76.2445 59.4096 76.2811V78.3351C59.4096 78.3717 59.4277 78.39 59.4638 78.39H61.9487C61.9849 78.39 62.0174 78.401 62.0464 78.423C62.0681 78.4522 62.0789 78.4852 62.0789 78.5218V79.3566C62.0789 79.3932 62.0681 79.4261 62.0464 79.4554C62.0174 79.4774 61.9849 79.4884 61.9487 79.4884H59.4638C59.4277 79.4884 59.4096 79.5067 59.4096 79.5433V81.6631C59.4096 81.6997 59.4277 81.718 59.4638 81.718H63.164C63.2002 81.718 63.2291 81.7327 63.2508 81.762C63.2798 81.7839 63.2942 81.8132 63.2942 81.8498V82.6846C63.2942 82.7212 63.2798 82.7505 63.2508 82.7725C63.2291 82.8017 63.2002 82.8164 63.164 82.8164H58.2811C58.2449 82.8164 58.2123 82.8017 58.1834 82.7725C58.1617 82.7505 58.1508 82.7212 58.1508 82.6846V75.2597C58.1508 75.2231 58.1617 75.1938 58.1834 75.1718C58.2123 75.1425 58.2449 75.1279 58.2811 75.1279H63.164C63.2002 75.1279 63.2291 75.1425 63.2508 75.1718C63.2798 75.1938 63.2942 75.2231 63.2942 75.2597V76.0944ZM68.8391 82.8164C68.7668 82.8164 68.7162 82.7834 68.6872 82.7175L67.2549 79.5543C67.2404 79.525 67.2187 79.5103 67.1898 79.5103H65.8877C65.8515 79.5103 65.8334 79.5286 65.8334 79.5652V82.6846C65.8334 82.7212 65.8189 82.7505 65.79 82.7725C65.7683 82.8017 65.7394 82.8164 65.7032 82.8164H64.7049C64.6687 82.8164 64.6362 82.8017 64.6072 82.7725C64.5855 82.7505 64.5747 82.7212 64.5747 82.6846V75.2597C64.5747 75.2231 64.5855 75.1938 64.6072 75.1718C64.6362 75.1425 64.6687 75.1279 64.7049 75.1279H67.6889C68.1302 75.1279 68.5208 75.2194 68.8608 75.4025C69.2008 75.5928 69.4649 75.8564 69.653 76.1933C69.8411 76.5374 69.9351 76.9292 69.9351 77.3685C69.9351 77.8738 69.8049 78.3021 69.5445 78.6536C69.2913 79.0124 68.9368 79.2614 68.4811 79.4005C68.4666 79.4005 68.4557 79.4078 68.4485 79.4225C68.4413 79.4371 68.4413 79.4517 68.4485 79.4664L69.9785 82.6626C69.993 82.6919 70.0002 82.7139 70.0002 82.7285C70.0002 82.7871 69.9604 82.8164 69.8808 82.8164H68.8391ZM65.8877 76.2262C65.8515 76.2262 65.8334 76.2445 65.8334 76.2811V78.4669C65.8334 78.5035 65.8515 78.5218 65.8877 78.5218H67.5153C67.8625 78.5218 68.1447 78.4156 68.3617 78.2033C68.5715 77.9982 68.6764 77.7237 68.6764 77.3795C68.6764 77.0353 68.5715 76.7571 68.3617 76.5448C68.1447 76.3324 67.8625 76.2262 67.5153 76.2262H65.8877Z" fill="white"/>
<path d="M36.644 102.653C36.6223 102.675 36.6151 102.697 36.6223 102.719C36.6368 102.741 36.6585 102.752 36.6874 102.752H40.9519C41.0025 102.752 41.0459 102.77 41.0821 102.807C41.1255 102.843 41.1472 102.887 41.1472 102.938V104.487C41.1472 104.538 41.1255 104.582 41.0821 104.619C41.0459 104.655 41.0025 104.674 40.9519 104.674H33.877C33.8191 104.674 33.7721 104.655 33.7359 104.619C33.6998 104.582 33.6817 104.538 33.6817 104.487V103.015C33.6817 102.92 33.7142 102.84 33.7793 102.774C34.293 102.268 34.8174 101.716 35.3527 101.115C35.8881 100.515 36.2244 100.141 36.3619 99.9948C36.6513 99.6433 36.9479 99.3065 37.2517 98.9843C38.2066 97.9152 38.684 97.1207 38.684 96.6008C38.684 96.2274 38.5538 95.9198 38.2934 95.6782C38.033 95.4439 37.693 95.3267 37.2734 95.3267C36.8538 95.3267 36.5138 95.4439 36.2534 95.6782C35.9857 95.9198 35.8519 96.2384 35.8519 96.6338V97.0292C35.8519 97.0804 35.8338 97.1244 35.7976 97.161C35.7615 97.1976 35.7181 97.2159 35.6674 97.2159H33.8119C33.7613 97.2159 33.7179 97.1976 33.6817 97.161C33.6383 97.1244 33.6166 97.0804 33.6166 97.0292V96.2823C33.6527 95.7112 33.8336 95.2022 34.1591 94.7556C34.4847 94.3162 34.9151 93.9794 35.4504 93.7451C35.993 93.5108 36.6006 93.3936 37.2734 93.3936C38.0185 93.3936 38.6659 93.5364 39.2157 93.822C39.7655 94.1002 40.1887 94.4773 40.4853 94.9533C40.7891 95.4366 40.941 95.9674 40.941 96.5459C40.941 96.9926 40.8289 97.4502 40.6047 97.9189C40.3876 98.3875 40.0585 98.8927 39.6172 99.4346C39.2917 99.8447 38.9408 100.255 38.5647 100.665C38.1885 101.067 37.6279 101.65 36.8827 102.411L36.644 102.653ZM46.2581 104.85C45.1006 104.85 44.1891 104.524 43.5236 103.872C42.8508 103.22 42.5145 102.331 42.5145 101.203V96.9962C42.5145 95.8906 42.8508 95.0155 43.5236 94.3712C44.1891 93.7195 45.1006 93.3936 46.2581 93.3936C47.4083 93.3936 48.3234 93.7195 49.0034 94.3712C49.6762 95.0155 50.0125 95.8906 50.0125 96.9962V101.203C50.0125 102.331 49.6762 103.22 49.0034 103.872C48.3234 104.524 47.4083 104.85 46.2581 104.85ZM46.2581 102.927C46.7283 102.927 47.1008 102.781 47.3757 102.488C47.6579 102.195 47.7989 101.803 47.7989 101.313V96.9303C47.7989 96.4471 47.6579 96.059 47.3757 95.7661C47.1008 95.4732 46.7283 95.3267 46.2581 95.3267C45.7951 95.3267 45.4262 95.4732 45.1513 95.7661C44.8691 96.059 44.7281 96.4471 44.7281 96.9303V101.313C44.7281 101.803 44.8691 102.195 45.1513 102.488C45.4262 102.781 45.7951 102.927 46.2581 102.927ZM54.4181 102.653C54.3964 102.675 54.3927 102.697 54.4072 102.719C54.4144 102.741 54.4362 102.752 54.4723 102.752H58.7368C58.7874 102.752 58.8308 102.77 58.867 102.807C58.9032 102.843 58.9213 102.887 58.9213 102.938V104.487C58.9213 104.538 58.9032 104.582 58.867 104.619C58.8308 104.655 58.7874 104.674 58.7368 104.674H51.651C51.6004 104.674 51.557 104.655 51.5208 104.619C51.4847 104.582 51.4666 104.538 51.4666 104.487V103.015C51.4666 102.92 51.4955 102.84 51.5534 102.774C52.0742 102.268 52.5987 101.716 53.1268 101.115C53.6621 100.515 53.9985 100.141 54.1359 99.9948C54.4325 99.6433 54.7327 99.3065 55.0366 98.9843C55.9915 97.9152 56.4689 97.1207 56.4689 96.6008C56.4689 96.2274 56.3387 95.9198 56.0783 95.6782C55.8106 95.4439 55.467 95.3267 55.0474 95.3267C54.6279 95.3267 54.2879 95.4439 54.0274 95.6782C53.767 95.9198 53.6368 96.2384 53.6368 96.6338V97.0292C53.6368 97.0804 53.6187 97.1244 53.5825 97.161C53.5464 97.1976 53.4993 97.2159 53.4415 97.2159H51.5859C51.5353 97.2159 51.4919 97.1976 51.4557 97.161C51.4196 97.1244 51.4015 97.0804 51.4015 97.0292V96.2823C51.4304 95.7112 51.6076 95.2022 51.9332 94.7556C52.2587 94.3162 52.6927 93.9794 53.2353 93.7451C53.7779 93.5108 54.3819 93.3936 55.0474 93.3936C55.7925 93.3936 56.44 93.5364 56.9898 93.822C57.5468 94.1002 57.9736 94.4773 58.2702 94.9533C58.5668 95.4366 58.7151 95.9674 58.7151 96.5459C58.7151 96.9926 58.6066 97.4502 58.3896 97.9189C58.1653 98.3875 57.8325 98.8927 57.3913 99.4346C57.0657 99.8447 56.7149 100.255 56.3387 100.665C55.9625 101.067 55.4019 101.65 54.6568 102.411L54.4181 102.653ZM63.2291 102.653C63.2074 102.675 63.2038 102.697 63.2183 102.719C63.2255 102.741 63.2472 102.752 63.2834 102.752H67.5479C67.5985 102.752 67.6419 102.77 67.6781 102.807C67.7142 102.843 67.7323 102.887 67.7323 102.938V104.487C67.7323 104.538 67.7142 104.582 67.6781 104.619C67.6419 104.655 67.5985 104.674 67.5479 104.674H60.4621C60.4115 104.674 60.3681 104.655 60.3319 104.619C60.2957 104.582 60.2776 104.538 60.2776 104.487V103.015C60.2776 102.92 60.3066 102.84 60.3645 102.774C60.8853 102.268 61.4098 101.716 61.9379 101.115C62.4732 100.515 62.8096 100.141 62.947 99.9948C63.2436 99.6433 63.5438 99.3065 63.8476 98.9843C64.8025 97.9152 65.28 97.1207 65.28 96.6008C65.28 96.2274 65.1498 95.9198 64.8893 95.6782C64.6217 95.4439 64.2781 95.3267 63.8585 95.3267C63.4389 95.3267 63.0989 95.4439 62.8385 95.6782C62.5781 95.9198 62.4479 96.2384 62.4479 96.6338V97.0292C62.4479 97.0804 62.4298 97.1244 62.3936 97.161C62.3574 97.1976 62.3104 97.2159 62.2525 97.2159H60.397C60.3464 97.2159 60.303 97.1976 60.2668 97.161C60.2306 97.1244 60.2125 97.0804 60.2125 97.0292V96.2823C60.2415 95.7112 60.4187 95.2022 60.7442 94.7556C61.0698 94.3162 61.5038 93.9794 62.0464 93.7451C62.5889 93.5108 63.193 93.3936 63.8585 93.3936C64.6036 93.3936 65.251 93.5364 65.8008 93.822C66.3579 94.1002 66.7847 94.4773 67.0813 94.9533C67.3779 95.4366 67.5261 95.9674 67.5261 96.5459C67.5261 96.9926 67.4176 97.4502 67.2006 97.9189C66.9764 98.3875 66.6436 98.8927 66.2023 99.4346C65.8768 99.8447 65.5259 100.255 65.1498 100.665C64.7736 101.067 64.213 101.65 63.4679 102.411L63.2291 102.653Z" fill="#252530"/>
</svg>
