<svg width="102" height="134" viewBox="0 0 102 134" fill="none" xmlns="http://www.w3.org/2000/svg">
<path d="M8.78931 98.7426L51.651 120.82L92.885 98.7426V12.4115H8.78931V98.7426Z" fill="white"/>
<path d="M93.7533 12.741L7.92139 100.28L52.4107 122.577L93.7533 101.159V12.741Z" fill="#F2F3F2"/>
<path d="M5.96802 41.1885V100.61L7.48717 101.379L50.3489 123.456L51.651 124.115L52.9531 123.456L94.2957 101.379L95.8148 100.61V9.55573H5.96802V41.1885ZM8.78929 98.9623V12.4115H92.9935V98.9623L51.651 121.039L8.78929 98.9623Z" fill="#DCDEDC"/>
<path d="M50.8914 13.8393C51.3254 13.8393 51.7595 13.8393 52.1935 13.9492L50.8914 16.4754C48.9382 16.3656 47.202 17.9033 47.0935 19.8803C46.985 21.8574 48.5042 23.6147 50.4573 23.7246H50.8914C51.7595 23.7246 52.6276 23.3951 53.2786 22.8459L54.6893 25.2623C53.6042 26.0311 52.302 26.4705 50.8914 26.4705C47.419 26.5803 44.4893 23.9443 44.3808 20.4295C44.2722 16.9147 46.8765 13.9492 50.3488 13.8393H50.8914ZM55.3403 19.2213L56.968 21.9672L55.3403 24.6033L53.8212 21.9672H50.6744L52.302 19.2213H55.3403ZM52.7361 18.2328C52.7361 17.7934 52.8446 17.3541 53.0616 17.0246C53.2786 16.6951 53.7127 16.3656 54.0382 16.1459L54.2552 16.0361C54.6893 15.8164 54.7978 15.7065 54.7978 15.4869C54.7978 15.2672 54.4722 15.0475 54.2552 15.0475C53.8212 15.0475 53.4956 15.2672 53.2786 15.7065L52.7361 15.1574C52.8446 14.9377 53.0616 14.718 53.2786 14.4983C53.6042 14.2787 53.9297 14.2787 54.2552 14.2787C54.5807 14.2787 55.0148 14.3885 55.2318 14.6082C55.4488 14.8279 55.6659 15.1574 55.6659 15.4869C55.6659 16.0361 55.3403 16.4754 54.6893 16.6951L54.3637 16.9147C54.0382 17.1344 53.8212 17.2442 53.7127 17.5738H55.6659V18.3426L52.7361 18.2328ZM50.8914 31.9623L61.1999 26.0311V9.55573H40.4744V25.9213L50.8914 31.9623Z" fill="#FF492C"/>
<path d="M97.8766 70.8442H3.90642L0.434082 78.5328L3.90642 86.2213H97.8766L101.24 78.5328L97.8766 70.8442Z" fill="#5A39A2"/>
<path d="M31.4789 56.1592C31.4789 56.2178 31.4572 56.2653 31.4138 56.302C31.3776 56.3386 31.3342 56.3569 31.2836 56.3569H25.934C25.8834 56.3569 25.858 56.3862 25.858 56.4447V58.9929C25.858 59.0515 25.8834 59.0808 25.934 59.0808H29.4389C29.4895 59.0808 29.5366 59.0991 29.58 59.1357C29.6161 59.1797 29.6342 59.2273 29.6342 59.2785V60.8711C29.6342 60.9297 29.6161 60.9773 29.58 61.0139C29.5366 61.0579 29.4895 61.0798 29.4389 61.0798H25.934C25.8834 61.0798 25.858 61.1055 25.858 61.1567V63.8257C25.858 63.8843 25.8834 63.9136 25.934 63.9136H31.2836C31.3342 63.9136 31.3776 63.9319 31.4138 63.9685C31.4572 64.0051 31.4789 64.0491 31.4789 64.1003V65.7039C31.4789 65.7625 31.4572 65.8101 31.4138 65.8467C31.3776 65.8833 31.3342 65.9016 31.2836 65.9016H23.7529C23.7023 65.9016 23.6589 65.8833 23.6227 65.8467C23.5793 65.8101 23.5576 65.7625 23.5576 65.7039V54.5665C23.5576 54.5153 23.5793 54.4677 23.6227 54.4238C23.6589 54.3871 23.7023 54.3688 23.7529 54.3688H31.2836C31.3342 54.3688 31.3776 54.3871 31.4138 54.4238C31.4572 54.4677 31.4789 54.5153 31.4789 54.5665V56.1592ZM36.2642 66.0115C35.5336 66.0115 34.897 65.909 34.3544 65.7039C33.8119 65.4989 33.3923 65.2097 33.0957 64.8362C32.7991 64.4628 32.6508 64.0381 32.6508 63.5621V63.3974C32.6508 63.3461 32.6689 63.2985 32.7051 63.2546C32.7412 63.218 32.7846 63.1997 32.8353 63.1997H34.6474C34.7053 63.1997 34.7523 63.218 34.7885 63.2546C34.8246 63.2985 34.8427 63.3461 34.8427 63.3974V63.4083C34.8427 63.6573 34.9766 63.866 35.2442 64.0344C35.5046 64.2028 35.8374 64.287 36.2425 64.287C36.6114 64.287 36.9117 64.2138 37.1431 64.0674C37.3674 63.9136 37.4795 63.7305 37.4795 63.5182C37.4795 63.3205 37.3819 63.1704 37.1866 63.0679C36.9912 62.9727 36.6693 62.8702 36.2208 62.7603C35.7144 62.6285 35.3129 62.5004 35.0163 62.3759C34.3291 62.1343 33.7793 61.8377 33.367 61.4862C32.9546 61.1347 32.7485 60.6295 32.7485 59.9705C32.7485 59.1577 33.0595 58.5133 33.6817 58.0374C34.3038 57.5614 35.1285 57.3234 36.1557 57.3234C36.8502 57.3234 37.4578 57.4333 37.9787 57.6529C38.5068 57.8799 38.9119 58.1985 39.194 58.6085C39.4834 59.0112 39.628 59.4726 39.628 59.9924C39.628 60.0437 39.61 60.0876 39.5738 60.1243C39.5304 60.1609 39.4834 60.1792 39.4327 60.1792H37.6857C37.6351 60.1792 37.5917 60.1609 37.5555 60.1243C37.5121 60.0876 37.4904 60.0437 37.4904 59.9924C37.4904 59.7508 37.371 59.5458 37.1323 59.3774C36.8863 59.209 36.5608 59.1247 36.1557 59.1247C35.8012 59.1247 35.5083 59.1943 35.2768 59.3334C35.0525 59.4652 34.9404 59.6446 34.9404 59.8716C34.9404 60.0913 35.0525 60.2561 35.2768 60.3659C35.501 60.4757 35.87 60.5929 36.3836 60.7174L36.7959 60.8162C36.9478 60.8528 37.1106 60.9004 37.2842 60.959C38.0583 61.1933 38.6659 61.4899 39.1072 61.8487C39.5557 62.2148 39.78 62.742 39.78 63.4303C39.78 64.2431 39.4617 64.8765 38.8251 65.3305C38.1885 65.7845 37.3349 66.0115 36.2642 66.0115ZM45.8783 59.1028C45.8783 59.154 45.8602 59.198 45.824 59.2346C45.7878 59.2785 45.7408 59.3005 45.6829 59.3005H44.1204C44.0625 59.3005 44.0336 59.3261 44.0336 59.3774V62.8702C44.0336 63.229 44.1095 63.4999 44.2614 63.6829C44.4061 63.8587 44.6412 63.9465 44.9668 63.9465H45.4985C45.5563 63.9465 45.6034 63.9649 45.6395 64.0015C45.6757 64.0381 45.6938 64.0857 45.6938 64.1443V65.7039C45.6938 65.8284 45.6287 65.898 45.4985 65.9126C45.0427 65.9346 44.7172 65.9456 44.5219 65.9456C43.6249 65.9456 42.9557 65.7955 42.5144 65.4952C42.0659 65.195 41.8344 64.6275 41.82 63.7928V59.3774C41.82 59.3261 41.7946 59.3005 41.744 59.3005H40.8108C40.7602 59.3005 40.7168 59.2785 40.6806 59.2346C40.6372 59.198 40.6155 59.154 40.6155 59.1028V57.631C40.6155 57.5797 40.6372 57.5321 40.6806 57.4882C40.7168 57.4516 40.7602 57.4333 40.8108 57.4333H41.744C41.7946 57.4333 41.82 57.404 41.82 57.3454V55.3903C41.82 55.3391 41.8417 55.2915 41.8851 55.2475C41.9212 55.2109 41.9646 55.1926 42.0153 55.1926H43.8383C43.8961 55.1926 43.9431 55.2109 43.9793 55.2475C44.0155 55.2915 44.0336 55.3391 44.0336 55.3903V57.3454C44.0336 57.404 44.0625 57.4333 44.1204 57.4333H45.6829C45.7408 57.4333 45.7878 57.4516 45.824 57.4882C45.8602 57.5321 45.8783 57.5797 45.8783 57.631V59.1028ZM48.5259 65.9675C48.157 65.9675 47.8532 65.8431 47.6144 65.5941C47.3685 65.3525 47.2455 65.0412 47.2455 64.6605C47.2455 64.2797 47.3649 63.9685 47.6036 63.7269C47.8423 63.4852 48.1497 63.3644 48.5259 63.3644C48.9093 63.3644 49.2204 63.4852 49.4591 63.7269C49.6978 63.9685 49.8172 64.2797 49.8172 64.6605C49.8172 65.0412 49.6942 65.3525 49.4483 65.5941C49.2023 65.8431 48.8949 65.9675 48.5259 65.9675ZM61.3085 65.9016C61.2 65.9016 61.124 65.8504 61.0806 65.7479L59.0406 61.1897C59.0261 61.1457 58.9936 61.1238 58.9429 61.1238H57.4346C57.3768 61.1238 57.3478 61.153 57.3478 61.2116V65.7039C57.3478 65.7625 57.3297 65.8101 57.2936 65.8467C57.2574 65.8833 57.214 65.9016 57.1634 65.9016H55.2536C55.1957 65.9016 55.1487 65.8833 55.1125 65.8467C55.0763 65.8101 55.0583 65.7625 55.0583 65.7039V54.5665C55.0583 54.5153 55.0763 54.4677 55.1125 54.4238C55.1487 54.3871 55.1957 54.3688 55.2536 54.3688H59.9087C60.6031 54.3688 61.2144 54.5116 61.7425 54.7972C62.2634 55.0828 62.6685 55.4892 62.9578 56.0164C63.2472 56.5436 63.3919 57.155 63.3919 57.8506C63.3919 58.5975 63.2074 59.2346 62.8385 59.7618C62.4695 60.2963 61.9559 60.6734 61.2976 60.8931C61.2397 60.9151 61.2217 60.9517 61.2434 61.0029L63.457 65.671C63.4787 65.7149 63.4895 65.7479 63.4895 65.7698C63.4895 65.8577 63.4317 65.9016 63.3159 65.9016H61.3085ZM57.4346 56.3569C57.3768 56.3569 57.3478 56.3862 57.3478 56.4447V59.2675C57.3478 59.3188 57.3768 59.3444 57.4346 59.3444H59.5614C60.0244 59.3444 60.397 59.209 60.6791 58.938C60.9685 58.6598 61.1131 58.301 61.1131 57.8616C61.1131 57.4223 60.9685 57.0635 60.6791 56.7852C60.397 56.4997 60.0244 56.3569 59.5614 56.3569H57.4346ZM69.0995 66.0774C68.2532 66.0774 67.508 65.9016 66.8642 65.5502C66.2204 65.206 65.7212 64.7154 65.3668 64.0784C65.0051 63.4486 64.8242 62.72 64.8242 61.8926V58.3779C64.8242 57.5651 65.0051 56.8438 65.3668 56.2141C65.7212 55.5917 66.2204 55.1047 66.8642 54.7533C67.508 54.4091 68.2532 54.237 69.0995 54.237C69.9604 54.237 70.7127 54.4091 71.3566 54.7533C72.0004 55.1047 72.5032 55.5917 72.8649 56.2141C73.2193 56.8438 73.3966 57.5651 73.3966 58.3779V61.8926C73.3966 62.72 73.2193 63.4523 72.8649 64.0893C72.5032 64.7264 72.0004 65.217 71.3566 65.5611C70.7127 65.9053 69.9604 66.0774 69.0995 66.0774ZM69.0995 64.0893C69.7 64.0893 70.1846 63.899 70.5536 63.5182C70.9225 63.1301 71.107 62.6175 71.107 61.9805V58.3559C71.107 57.7188 70.9261 57.2063 70.5644 56.8182C70.2027 56.4301 69.7144 56.2361 69.0995 56.2361C68.5063 56.2361 68.0289 56.4301 67.6672 56.8182C67.2983 57.2063 67.1138 57.7188 67.1138 58.3559V61.9805C67.1138 62.6175 67.2983 63.1301 67.6672 63.5182C68.0289 63.899 68.5063 64.0893 69.0995 64.0893ZM75.3497 65.9016C75.2991 65.9016 75.2557 65.8833 75.2195 65.8467C75.1761 65.8101 75.1544 65.7625 75.1544 65.7039V54.5665C75.1544 54.5153 75.1761 54.4677 75.2195 54.4238C75.2557 54.3871 75.2991 54.3688 75.3497 54.3688H77.2595C77.3102 54.3688 77.3572 54.3871 77.4006 54.4238C77.4368 54.4677 77.4548 54.5153 77.4548 54.5665V65.7039C77.4548 65.7625 77.4368 65.8101 77.4006 65.8467C77.3572 65.8833 77.3102 65.9016 77.2595 65.9016H75.3497ZM41.4185 43.4182C41.3534 43.4475 41.3534 43.4804 41.4185 43.517C42.4457 44.0516 42.9593 44.9449 42.9593 46.197C42.9593 47.2661 42.6012 48.0716 41.8851 48.6134C41.1689 49.1553 40.2321 49.4262 39.0746 49.4262H34.8536C34.8029 49.4262 34.7595 49.4079 34.7234 49.3713C34.68 49.3347 34.6583 49.2871 34.6583 49.2285V38.0911C34.6583 38.0399 34.68 37.9923 34.7234 37.9483C34.7595 37.9117 34.8029 37.8934 34.8536 37.8934H38.9444C41.5125 37.8934 42.7966 38.9479 42.7966 41.0567C42.7966 42.1551 42.3372 42.9422 41.4185 43.4182ZM37.0346 39.8815C36.984 39.8815 36.9587 39.9108 36.9587 39.9693V42.5395C36.9587 42.5981 36.984 42.6274 37.0346 42.6274H38.9444C39.4508 42.6274 39.8487 42.5065 40.138 42.2649C40.4129 42.0233 40.5504 41.6938 40.5504 41.2764C40.5504 40.8444 40.4129 40.5039 40.138 40.2549C39.8487 40.0059 39.4508 39.8815 38.9444 39.8815H37.0346ZM39.0746 47.4162C39.5738 47.4162 39.9644 47.2881 40.2466 47.0318C40.5287 46.7755 40.6697 46.4204 40.6697 45.9664C40.6697 45.5197 40.5287 45.1646 40.2466 44.901C39.9644 44.6447 39.5666 44.5165 39.0529 44.5165H37.0346C36.984 44.5165 36.9587 44.5458 36.9587 44.6044V47.3284C36.9587 47.3869 36.984 47.4162 37.0346 47.4162H39.0746ZM52.0091 44.3188C52.0742 44.7362 52.0959 45.2012 52.0742 45.7138C52.067 45.8529 51.9983 45.9225 51.868 45.9225H46.8331C46.768 45.9225 46.7463 45.9481 46.768 45.9993C46.8042 46.219 46.8657 46.4387 46.9525 46.6583C47.2346 47.2734 47.8097 47.581 48.6778 47.581C49.3723 47.5737 49.9185 47.2881 50.3163 46.7243C50.3597 46.6584 50.4104 46.6254 50.4683 46.6254C50.4972 46.6254 50.5334 46.6474 50.5768 46.6913L51.7487 47.8556C51.8066 47.9141 51.8355 47.9654 51.8355 48.0093C51.8355 48.0313 51.8138 48.0752 51.7704 48.1411C51.4087 48.5951 50.9457 48.9429 50.3814 49.1846C49.8244 49.4335 49.2059 49.558 48.5259 49.558C47.5927 49.558 46.8042 49.3457 46.1604 48.921C45.5166 48.489 45.0536 47.8885 44.7714 47.1197C44.54 46.5705 44.4242 45.8529 44.4242 44.9669C44.4242 44.3591 44.5074 43.8246 44.6738 43.3633C44.9197 42.5871 45.3574 41.9684 45.9868 41.507C46.6089 41.0457 47.3468 40.8151 48.2004 40.8151C49.2855 40.8151 50.1572 41.1336 50.8155 41.7706C51.4738 42.4077 51.8717 43.2571 52.0091 44.3188ZM48.2221 42.8251C47.5349 42.8251 47.0827 43.1473 46.8657 43.7916C46.8223 43.9381 46.7861 44.1138 46.7572 44.3188C46.7572 44.3701 46.7825 44.3957 46.8331 44.3957H49.6544C49.7195 44.3957 49.7412 44.3701 49.7195 44.3188C49.6617 44.004 49.6327 43.8502 49.6327 43.8575C49.5387 43.528 49.3687 43.2717 49.1227 43.0887C48.8768 42.9129 48.5766 42.8251 48.2221 42.8251ZM56.7185 49.5361C55.9878 49.5361 55.3512 49.4335 54.8087 49.2285C54.2661 49.0235 53.8466 48.7343 53.55 48.3608C53.2534 47.9874 53.1051 47.5627 53.1051 47.0867V46.922C53.1051 46.8707 53.1232 46.8231 53.1593 46.7792C53.1955 46.7426 53.2425 46.7243 53.3004 46.7243H55.1017C55.1595 46.7243 55.2066 46.7426 55.2427 46.7792C55.2789 46.8231 55.297 46.8707 55.297 46.922V46.9329C55.297 47.1819 55.4308 47.3906 55.6985 47.559C55.9661 47.7274 56.2989 47.8116 56.6968 47.8116C57.0657 47.8116 57.3659 47.7384 57.5974 47.592C57.8217 47.4382 57.9338 47.2551 57.9338 47.0428C57.9338 46.8451 57.8361 46.695 57.6408 46.5924C57.4455 46.4973 57.1272 46.3947 56.6859 46.2849C56.1723 46.1531 55.7708 46.025 55.4814 45.9005C54.787 45.6588 54.2336 45.3623 53.8212 45.0108C53.4089 44.6593 53.2027 44.1541 53.2027 43.4951C53.2027 42.6823 53.5138 42.0379 54.1359 41.562C54.758 41.086 55.5863 40.848 56.6208 40.848C57.3153 40.848 57.9229 40.9579 58.4438 41.1775C58.9646 41.4045 59.3697 41.7231 59.6591 42.1331C59.9412 42.5358 60.0823 42.9971 60.0823 43.517C60.0823 43.5683 60.0642 43.6122 60.028 43.6488C59.9919 43.6855 59.9449 43.7038 59.887 43.7038H58.1508C58.0929 43.7038 58.0459 43.6855 58.0097 43.6488C57.9736 43.6122 57.9555 43.5683 57.9555 43.517C57.9555 43.2754 57.8325 43.0704 57.5866 42.902C57.3406 42.7335 57.0187 42.6493 56.6208 42.6493C56.2591 42.6493 55.9661 42.7189 55.7419 42.858C55.5104 42.9898 55.3946 43.1692 55.3946 43.3962C55.3946 43.6159 55.5068 43.7806 55.731 43.8905C55.9553 44.0003 56.3278 44.1175 56.8487 44.242C56.9644 44.2712 57.0983 44.3042 57.2502 44.3408C57.4021 44.3774 57.5648 44.425 57.7385 44.4836C58.5125 44.7179 59.1202 45.0145 59.5614 45.3733C60.01 45.7394 60.2342 46.2666 60.2342 46.9549C60.2342 47.7677 59.9159 48.4011 59.2793 48.8551C58.6427 49.3091 57.7891 49.5361 56.7185 49.5361ZM66.3325 42.6274C66.3325 42.6786 66.3144 42.7226 66.2783 42.7592C66.2421 42.8031 66.1951 42.8251 66.1372 42.8251H64.5746C64.524 42.8251 64.4987 42.8507 64.4987 42.902V46.3947C64.4987 46.7535 64.571 47.0245 64.7157 47.2075C64.8604 47.3833 65.0991 47.4711 65.4319 47.4711H65.9636C66.0142 47.4711 66.0612 47.4894 66.1046 47.5261C66.1408 47.5627 66.1589 47.6103 66.1589 47.6688V49.2285C66.1589 49.353 66.0938 49.4226 65.9636 49.4372C65.5078 49.4592 65.1823 49.4702 64.987 49.4702C64.0827 49.4702 63.41 49.32 62.9687 49.0198C62.5202 48.7196 62.2923 48.1521 62.2851 47.3174V42.902C62.2851 42.8507 62.2561 42.8251 62.1983 42.8251H61.2759C61.218 42.8251 61.171 42.8031 61.1349 42.7592C61.0987 42.7226 61.0806 42.6786 61.0806 42.6274V41.1556C61.0806 41.1043 61.0987 41.0567 61.1349 41.0128C61.171 40.9762 61.218 40.9579 61.2759 40.9579H62.1983C62.2561 40.9579 62.2851 40.9286 62.2851 40.87V38.9149C62.2851 38.8637 62.3032 38.8161 62.3393 38.7721C62.3755 38.7355 62.4225 38.7172 62.4804 38.7172H64.3034C64.354 38.7172 64.401 38.7355 64.4444 38.7721C64.4806 38.8161 64.4987 38.8637 64.4987 38.9149V40.87C64.4987 40.9286 64.524 40.9579 64.5746 40.9579H66.1372C66.1951 40.9579 66.2421 40.9762 66.2783 41.0128C66.3144 41.0567 66.3325 41.1043 66.3325 41.1556V42.6274Z" fill="#252530"/>
<path d="M33.8554 82.8164C33.7759 82.8164 33.7252 82.7798 33.7035 82.7066L31.7286 75.2707L31.7178 75.2267C31.7178 75.1608 31.7576 75.1279 31.8371 75.1279H32.9005C32.9801 75.1279 33.0308 75.1645 33.0525 75.2377L34.2895 80.2462C34.2967 80.2682 34.3076 80.2792 34.322 80.2792C34.3365 80.2792 34.3473 80.2682 34.3546 80.2462L35.5373 75.2377C35.5591 75.1645 35.6061 75.1279 35.6784 75.1279H36.7201C36.7997 75.1279 36.8503 75.1645 36.872 75.2377L38.1308 80.2572C38.138 80.2792 38.1488 80.2902 38.1633 80.2902C38.1778 80.2902 38.1886 80.2792 38.1959 80.2572L39.4112 75.2377C39.4329 75.1645 39.4835 75.1279 39.5631 75.1279H40.5722C40.6735 75.1279 40.7133 75.1755 40.6916 75.2707L38.8144 82.7066C38.7927 82.7798 38.742 82.8164 38.6625 82.8164H37.6533C37.5737 82.8164 37.5231 82.7798 37.5014 82.7066L36.2318 77.4674C36.2246 77.4454 36.2137 77.4308 36.1993 77.4234C36.1848 77.4234 36.1739 77.4381 36.1667 77.4674L34.9514 82.7066C34.9297 82.7798 34.8827 82.8164 34.8103 82.8164H33.8554ZM41.8961 82.8164C41.8599 82.8164 41.8273 82.8017 41.7984 82.7725C41.7767 82.7505 41.7659 82.7212 41.7659 82.6846V75.2597C41.7659 75.2231 41.7767 75.1938 41.7984 75.1718C41.8273 75.1425 41.8599 75.1279 41.8961 75.1279H42.8944C42.9305 75.1279 42.9595 75.1425 42.9812 75.1718C43.0101 75.1938 43.0246 75.2231 43.0246 75.2597V82.6846C43.0246 82.7212 43.0101 82.7505 42.9812 82.7725C42.9595 82.8017 42.9305 82.8164 42.8944 82.8164H41.8961ZM49.0252 75.2597C49.0252 75.2231 49.0361 75.1938 49.0578 75.1718C49.0867 75.1425 49.1193 75.1279 49.1554 75.1279H50.1537C50.1899 75.1279 50.2188 75.1425 50.2405 75.1718C50.2695 75.1938 50.2839 75.2231 50.2839 75.2597V82.6846C50.2839 82.7212 50.2695 82.7505 50.2405 82.7725C50.2188 82.8017 50.1899 82.8164 50.1537 82.8164H49.188C49.1156 82.8164 49.065 82.7871 49.0361 82.7285L45.911 77.5443C45.8965 77.5223 45.882 77.5113 45.8676 77.5113C45.8531 77.5186 45.8459 77.5369 45.8459 77.5662L45.8676 82.6846C45.8676 82.7212 45.8531 82.7505 45.8242 82.7725C45.8025 82.8017 45.7735 82.8164 45.7373 82.8164H44.739C44.7029 82.8164 44.6703 82.8017 44.6414 82.7725C44.6197 82.7505 44.6088 82.7212 44.6088 82.6846V75.2597C44.6088 75.2231 44.6197 75.1938 44.6414 75.1718C44.6703 75.1425 44.7029 75.1279 44.739 75.1279H45.7048C45.7771 75.1279 45.8278 75.1572 45.8567 75.2157L48.971 80.4C48.9854 80.422 48.9999 80.4293 49.0144 80.422C49.0288 80.422 49.0361 80.4073 49.0361 80.378L49.0252 75.2597ZM56.8597 75.1279C56.8959 75.1279 56.9248 75.1425 56.9465 75.1718C56.9754 75.1938 56.9899 75.2231 56.9899 75.2597V76.1054C56.9899 76.142 56.9754 76.1713 56.9465 76.1933C56.9248 76.2226 56.8959 76.2372 56.8597 76.2372H54.8631C54.8269 76.2372 54.8088 76.2555 54.8088 76.2921V82.6846C54.8088 82.7212 54.798 82.7505 54.7763 82.7725C54.7473 82.8017 54.7148 82.8164 54.6786 82.8164H53.6803C53.6442 82.8164 53.6152 82.8017 53.5935 82.7725C53.5646 82.7505 53.5501 82.7212 53.5501 82.6846V76.2921C53.5501 76.2555 53.532 76.2372 53.4959 76.2372H51.5752C51.539 76.2372 51.5065 76.2226 51.4776 76.1933C51.4559 76.1713 51.445 76.142 51.445 76.1054V75.2597C51.445 75.2231 51.4559 75.1938 51.4776 75.1718C51.5065 75.1425 51.539 75.1279 51.5752 75.1279H56.8597ZM63.2944 76.0944C63.2944 76.131 63.2799 76.1603 63.251 76.1823C63.2293 76.2116 63.2003 76.2262 63.1642 76.2262H59.4639C59.4278 76.2262 59.4097 76.2445 59.4097 76.2811V78.3351C59.4097 78.3717 59.4278 78.39 59.4639 78.39H61.9488C61.985 78.39 62.0176 78.401 62.0465 78.423C62.0682 78.4522 62.0791 78.4852 62.0791 78.5218V79.3566C62.0791 79.3932 62.0682 79.4261 62.0465 79.4554C62.0176 79.4774 61.985 79.4884 61.9488 79.4884H59.4639C59.4278 79.4884 59.4097 79.5067 59.4097 79.5433V81.6631C59.4097 81.6997 59.4278 81.718 59.4639 81.718H63.1642C63.2003 81.718 63.2293 81.7327 63.251 81.762C63.2799 81.7839 63.2944 81.8132 63.2944 81.8498V82.6846C63.2944 82.7212 63.2799 82.7505 63.251 82.7725C63.2293 82.8017 63.2003 82.8164 63.1642 82.8164H58.2812C58.245 82.8164 58.2125 82.8017 58.1835 82.7725C58.1618 82.7505 58.151 82.7212 58.151 82.6846V75.2597C58.151 75.2231 58.1618 75.1938 58.1835 75.1718C58.2125 75.1425 58.245 75.1279 58.2812 75.1279H63.1642C63.2003 75.1279 63.2293 75.1425 63.251 75.1718C63.2799 75.1938 63.2944 75.2231 63.2944 75.2597V76.0944ZM68.8393 82.8164C68.7669 82.8164 68.7163 82.7834 68.6873 82.7175L67.255 79.5543C67.2405 79.525 67.2188 79.5103 67.1899 79.5103H65.8878C65.8516 79.5103 65.8335 79.5286 65.8335 79.5652V82.6846C65.8335 82.7212 65.819 82.7505 65.7901 82.7725C65.7684 82.8017 65.7395 82.8164 65.7033 82.8164H64.705C64.6688 82.8164 64.6363 82.8017 64.6073 82.7725C64.5856 82.7505 64.5748 82.7212 64.5748 82.6846V75.2597C64.5748 75.2231 64.5856 75.1938 64.6073 75.1718C64.6363 75.1425 64.6688 75.1279 64.705 75.1279H67.6891C68.1303 75.1279 68.521 75.2194 68.861 75.4025C69.201 75.5928 69.465 75.8564 69.6531 76.1933C69.8412 76.5374 69.9352 76.9292 69.9352 77.3685C69.9352 77.8738 69.805 78.3021 69.5446 78.6536C69.2914 79.0124 68.9369 79.2614 68.4812 79.4005C68.4667 79.4005 68.4559 79.4078 68.4486 79.4225C68.4414 79.4371 68.4414 79.4517 68.4486 79.4664L69.9786 82.6626C69.9931 82.6919 70.0003 82.7139 70.0003 82.7285C70.0003 82.7871 69.9605 82.8164 69.881 82.8164H68.8393ZM65.8878 76.2262C65.8516 76.2262 65.8335 76.2445 65.8335 76.2811V78.4669C65.8335 78.5035 65.8516 78.5218 65.8878 78.5218H67.5154C67.8627 78.5218 68.1448 78.4156 68.3618 78.2033C68.5716 77.9982 68.6765 77.7237 68.6765 77.3795C68.6765 77.0353 68.5716 76.7571 68.3618 76.5448C68.1448 76.3324 67.8627 76.2262 67.5154 76.2262H65.8878Z" fill="white"/>
<path d="M36.6441 102.653C36.6224 102.675 36.6152 102.697 36.6224 102.719C36.6369 102.741 36.6586 102.752 36.6876 102.752H40.952C41.0027 102.752 41.0461 102.77 41.0822 102.807C41.1256 102.843 41.1473 102.887 41.1473 102.938V104.487C41.1473 104.538 41.1256 104.582 41.0822 104.619C41.0461 104.655 41.0027 104.674 40.952 104.674H33.8771C33.8193 104.674 33.7722 104.655 33.7361 104.619C33.6999 104.582 33.6818 104.538 33.6818 104.487V103.015C33.6818 102.92 33.7144 102.84 33.7795 102.774C34.2931 102.268 34.8176 101.716 35.3529 101.115C35.8882 100.515 36.2246 100.141 36.362 99.9948C36.6514 99.6433 36.948 99.3065 37.2518 98.9843C38.2067 97.9152 38.6841 97.1207 38.6841 96.6008C38.6841 96.2274 38.5539 95.9198 38.2935 95.6782C38.0331 95.4439 37.6931 95.3267 37.2735 95.3267C36.8539 95.3267 36.5139 95.4439 36.2535 95.6782C35.9858 95.9198 35.852 96.2384 35.852 96.6338V97.0292C35.852 97.0804 35.8339 97.1244 35.7978 97.161C35.7616 97.1976 35.7182 97.2159 35.6675 97.2159H33.812C33.7614 97.2159 33.718 97.1976 33.6818 97.161C33.6384 97.1244 33.6167 97.0804 33.6167 97.0292V96.2823C33.6529 95.7112 33.8337 95.2022 34.1593 94.7556C34.4848 94.3162 34.9152 93.9794 35.4505 93.7451C35.9931 93.5108 36.6007 93.3936 37.2735 93.3936C38.0186 93.3936 38.6661 93.5364 39.2158 93.822C39.7656 94.1002 40.1888 94.4773 40.4854 94.9533C40.7893 95.4366 40.9412 95.9674 40.9412 96.5459C40.9412 96.9926 40.829 97.4502 40.6048 97.9189C40.3878 98.3875 40.0586 98.8927 39.6173 99.4346C39.2918 99.8447 38.941 100.255 38.5648 100.665C38.1886 101.067 37.628 101.65 36.8829 102.411L36.6441 102.653ZM46.2582 104.85C45.1007 104.85 44.1893 104.524 43.5237 103.872C42.851 103.22 42.5146 102.331 42.5146 101.203V96.9962C42.5146 95.8906 42.851 95.0155 43.5237 94.3712C44.1893 93.7195 45.1007 93.3936 46.2582 93.3936C47.4084 93.3936 48.3235 93.7195 49.0035 94.3712C49.6763 95.0155 50.0127 95.8906 50.0127 96.9962V101.203C50.0127 102.331 49.6763 103.22 49.0035 103.872C48.3235 104.524 47.4084 104.85 46.2582 104.85ZM46.2582 102.927C46.7284 102.927 47.101 102.781 47.3758 102.488C47.658 102.195 47.799 101.803 47.799 101.313V96.9303C47.799 96.4471 47.658 96.059 47.3758 95.7661C47.101 95.4732 46.7284 95.3267 46.2582 95.3267C45.7952 95.3267 45.4263 95.4732 45.1514 95.7661C44.8693 96.059 44.7282 96.4471 44.7282 96.9303V101.313C44.7282 101.803 44.8693 102.195 45.1514 102.488C45.4263 102.781 45.7952 102.927 46.2582 102.927ZM54.4182 102.653C54.3965 102.675 54.3929 102.697 54.4073 102.719C54.4146 102.741 54.4363 102.752 54.4724 102.752H58.7369C58.7876 102.752 58.831 102.77 58.8671 102.807C58.9033 102.843 58.9214 102.887 58.9214 102.938V104.487C58.9214 104.538 58.9033 104.582 58.8671 104.619C58.831 104.655 58.7876 104.674 58.7369 104.674H51.6512C51.6005 104.674 51.5571 104.655 51.521 104.619C51.4848 104.582 51.4667 104.538 51.4667 104.487V103.015C51.4667 102.92 51.4956 102.84 51.5535 102.774C52.0744 102.268 52.5988 101.716 53.1269 101.115C53.6622 100.515 53.9986 100.141 54.1361 99.9948C54.4327 99.6433 54.7329 99.3065 55.0367 98.9843C55.9916 97.9152 56.469 97.1207 56.469 96.6008C56.469 96.2274 56.3388 95.9198 56.0784 95.6782C55.8107 95.4439 55.4671 95.3267 55.0476 95.3267C54.628 95.3267 54.288 95.4439 54.0276 95.6782C53.7671 95.9198 53.6369 96.2384 53.6369 96.6338V97.0292C53.6369 97.0804 53.6188 97.1244 53.5827 97.161C53.5465 97.1976 53.4995 97.2159 53.4416 97.2159H51.5861C51.5354 97.2159 51.492 97.1976 51.4558 97.161C51.4197 97.1244 51.4016 97.0804 51.4016 97.0292V96.2823C51.4305 95.7112 51.6078 95.2022 51.9333 94.7556C52.2588 94.3162 52.6929 93.9794 53.2354 93.7451C53.778 93.5108 54.382 93.3936 55.0476 93.3936C55.7927 93.3936 56.4401 93.5364 56.9899 93.822C57.5469 94.1002 57.9737 94.4773 58.2703 94.9533C58.5669 95.4366 58.7152 95.9674 58.7152 96.5459C58.7152 96.9926 58.6067 97.4502 58.3897 97.9189C58.1654 98.3875 57.8327 98.8927 57.3914 99.4346C57.0658 99.8447 56.715 100.255 56.3388 100.665C55.9627 101.067 55.402 101.65 54.6569 102.411L54.4182 102.653ZM63.2293 102.653C63.2076 102.675 63.2039 102.697 63.2184 102.719C63.2256 102.741 63.2473 102.752 63.2835 102.752H67.548C67.5986 102.752 67.642 102.77 67.6782 102.807C67.7144 102.843 67.7324 102.887 67.7324 102.938V104.487C67.7324 104.538 67.7144 104.582 67.6782 104.619C67.642 104.655 67.5986 104.674 67.548 104.674H60.4622C60.4116 104.674 60.3682 104.655 60.332 104.619C60.2958 104.582 60.2778 104.538 60.2778 104.487V103.015C60.2778 102.92 60.3067 102.84 60.3646 102.774C60.8854 102.268 61.4099 101.716 61.938 101.115C62.4733 100.515 62.8097 100.141 62.9471 99.9948C63.2437 99.6433 63.5439 99.3065 63.8478 98.9843C64.8027 97.9152 65.2801 97.1207 65.2801 96.6008C65.2801 96.2274 65.1499 95.9198 64.8895 95.6782C64.6218 95.4439 64.2782 95.3267 63.8586 95.3267C63.439 95.3267 63.099 95.4439 62.8386 95.6782C62.5782 95.9198 62.448 96.2384 62.448 96.6338V97.0292C62.448 97.0804 62.4299 97.1244 62.3937 97.161C62.3575 97.1976 62.3105 97.2159 62.2527 97.2159H60.3971C60.3465 97.2159 60.3031 97.1976 60.2669 97.161C60.2307 97.1244 60.2127 97.0804 60.2127 97.0292V96.2823C60.2416 95.7112 60.4188 95.2022 60.7444 94.7556C61.0699 94.3162 61.5039 93.9794 62.0465 93.7451C62.589 93.5108 63.1931 93.3936 63.8586 93.3936C64.6037 93.3936 65.2512 93.5364 65.801 93.822C66.358 94.1002 66.7848 94.4773 67.0814 94.9533C67.378 95.4366 67.5263 95.9674 67.5263 96.5459C67.5263 96.9926 67.4178 97.4502 67.2007 97.9189C66.9765 98.3875 66.6437 98.8927 66.2024 99.4346C65.8769 99.8447 65.5261 100.255 65.1499 100.665C64.7737 101.067 64.2131 101.65 63.468 102.411L63.2293 102.653Z" fill="#252530"/>
</svg>
