<svg width="102" height="134" viewBox="0 0 102 134" fill="none" xmlns="http://www.w3.org/2000/svg">
<path d="M8.80811 98.9048L51.7612 121.018L93.0832 98.9048V12.4319H8.80811V98.9048Z" fill="white"/>
<path d="M93.9529 12.7618L7.93799 100.445L52.5222 122.778L93.9529 101.325V12.7618Z" fill="#F2F3F2"/>
<path d="M5.98071 41.2561V100.775L7.5031 101.545L50.4562 123.658L51.7611 124.319L53.066 123.658L94.4967 101.545L96.0191 100.775V9.57141H5.98071V41.2561ZM8.80801 99.1248V12.4318H93.1918V99.1248L51.7611 121.238L8.80801 99.1248Z" fill="#DCDEDC"/>
<path d="M50.9998 13.8621C51.4347 13.8621 51.8697 13.8621 52.3047 13.9721L50.9998 16.5024C49.0424 16.3924 47.3026 17.9327 47.1938 19.913C47.0851 21.8933 48.6075 23.6535 50.5648 23.7635H50.9998C51.8697 23.7635 52.7396 23.4335 53.3921 22.8834L54.8058 25.3038C53.7183 26.0739 52.4134 26.5139 50.9998 26.5139C47.52 26.624 44.584 23.9836 44.4753 20.463C44.3665 16.9425 46.9763 13.9721 50.4561 13.8621H50.9998ZM55.4582 19.2529L57.0893 22.0033L55.4582 24.6437L53.9358 22.0033H50.7823L52.4134 19.2529H55.4582ZM52.8484 18.2627C52.8484 17.8226 52.9571 17.3826 53.1746 17.0525C53.3921 16.7225 53.8271 16.3924 54.1533 16.1724L54.3708 16.0624C54.8057 15.8423 54.9145 15.7323 54.9145 15.5123C54.9145 15.2923 54.5883 15.0722 54.3708 15.0722C53.9358 15.0722 53.6096 15.2923 53.3921 15.7323L52.8484 15.1822C52.9571 14.9622 53.1746 14.7422 53.3921 14.5222C53.7183 14.3021 54.0446 14.3021 54.3708 14.3021C54.697 14.3021 55.132 14.4121 55.3495 14.6322C55.5669 14.8522 55.7844 15.1822 55.7844 15.5123C55.7844 16.0624 55.4582 16.5024 54.8058 16.7225L54.4795 16.9425C54.1533 17.1625 53.9358 17.2726 53.8271 17.6026H55.7844V18.3727L52.8484 18.2627ZM50.9998 32.0148L61.3303 26.0739V9.57141H40.5605V25.9639L50.9998 32.0148Z" fill="#FF492C"/>
<path d="M25.3368 54.0181V44.3366C25.3368 44.2266 25.4455 44.1166 25.5543 44.1166H28.0553C28.1641 44.1166 28.2728 44.2266 28.2728 44.3366V54.0181C28.2728 55.4483 29.2515 56.5484 30.7739 56.5484C32.2963 56.5484 33.2749 55.5583 33.2749 54.0181V44.3366C33.2749 44.2266 33.3837 44.1166 33.4924 44.1166H35.9935C36.1022 44.1166 36.211 44.2266 36.211 44.3366V54.0181C36.211 57.0985 34.0361 59.0788 30.7739 59.0788C27.5116 59.0788 25.3368 56.9885 25.3368 54.0181ZM38.0596 55.8883V55.6683C38.0596 55.5583 38.1683 55.4483 38.2771 55.4483H40.5607C40.6694 55.4483 40.7781 55.5583 40.7781 55.6683C40.7781 56.3284 41.5393 56.7685 42.6268 56.7685C43.6054 56.7685 44.2579 56.3284 44.2579 55.7783C44.2579 54.8982 42.6268 54.8982 41.1044 54.3481C39.6907 53.908 38.1683 53.1379 38.1683 51.2676C38.1683 49.1773 39.9082 47.8571 42.6268 47.8571C45.3453 47.8571 47.0852 49.2873 47.0852 51.2676C47.0852 51.3777 46.9764 51.4877 46.8677 51.4877H44.5841C44.4754 51.4877 44.3666 51.3777 44.3666 51.2676C44.3666 50.6075 43.7142 50.1675 42.6268 50.1675C41.7568 50.1675 41.1044 50.4975 41.1044 51.1576C41.1044 52.0378 42.518 52.0378 44.1491 52.5878C45.7803 53.0279 47.4114 53.798 47.4114 55.7783C47.4114 57.8686 45.5628 59.0788 42.8442 59.0788C39.9082 59.0788 38.0596 57.7586 38.0596 55.8883ZM58.6118 54.1281C58.6118 54.3481 58.5031 54.3481 58.2856 54.3481H51.7611C51.6523 54.3481 51.6523 54.3481 51.6523 54.4581C51.6523 54.7882 51.7611 55.0082 51.8698 55.3383C52.196 56.1084 52.8485 56.5484 54.0447 56.5484C55.0233 56.5484 55.6758 56.1084 56.2195 55.4483C56.3282 55.3383 56.437 55.2282 56.5457 55.4483L58.0681 56.9885C58.1769 57.0985 58.1769 57.2085 58.0681 57.3185C57.0894 58.5287 55.5671 59.1888 53.8272 59.1888C51.4349 59.1888 49.8037 57.9786 49.0425 55.9984C48.7163 55.2282 48.6076 54.4581 48.6076 53.358C48.6076 52.5878 48.7163 51.8177 48.9338 51.1576C49.5862 49.1773 51.2174 47.8571 53.5009 47.8571C56.3282 47.8571 58.0681 49.7274 58.3943 52.3678C58.6118 52.9179 58.6118 53.468 58.6118 54.1281ZM51.8698 51.5977C51.7611 51.8177 51.7611 52.0378 51.7611 52.2578C51.7611 52.3678 51.7611 52.3678 51.8698 52.3678H55.4583C55.5671 52.3678 55.5671 52.3678 55.5671 52.2578C55.5671 52.0378 55.4583 51.8177 55.4583 51.7077C55.2408 50.8276 54.5884 50.3875 53.6097 50.3875C52.7398 50.3875 52.196 50.8276 51.8698 51.5977ZM67.0937 48.1872C67.2024 48.2972 67.2024 48.4072 67.2024 48.5172L66.7675 50.9376C66.7675 51.1576 66.6587 51.1576 66.4412 51.0476C66.115 50.9376 65.6801 50.9376 65.2451 50.9376C64.2664 51.0476 63.3965 51.7077 63.3965 52.8079V58.6387C63.3965 58.7488 63.2877 58.8588 63.179 58.8588H60.6779C60.5692 58.8588 60.4604 58.7488 60.4604 58.6387V48.2972C60.4604 48.1872 60.5692 48.0772 60.6779 48.0772H63.179C63.2877 48.0772 63.3965 48.1872 63.3965 48.2972V49.0673C63.3965 49.1773 63.5052 49.1773 63.5052 49.1773C64.0489 48.4072 64.8101 47.8571 65.7888 47.8571C66.4413 47.8571 66.7675 47.9672 67.0937 48.1872ZM67.9636 55.8883V55.6683C67.9636 55.5583 68.0724 55.4483 68.1811 55.4483H70.4647C70.5735 55.4483 70.6822 55.5583 70.6822 55.6683C70.6822 56.3284 71.4434 56.7685 72.5308 56.7685C73.5095 56.7685 74.1619 56.3284 74.1619 55.7783C74.1619 54.8982 72.5308 54.8982 71.0084 54.3481C69.5948 53.908 68.0724 53.1379 68.0724 51.2676C68.0724 49.1773 69.8123 47.8571 72.5308 47.8571C75.2494 47.8571 76.9892 49.2873 76.9892 51.2676C76.9892 51.3777 76.8805 51.4877 76.7717 51.4877H74.4882C74.3794 51.4877 74.2707 51.3777 74.2707 51.2676C74.2707 50.6075 73.6182 50.1675 72.5308 50.1675C71.6609 50.1675 71.0084 50.4975 71.0084 51.1576C71.0084 52.0378 72.4221 52.0378 74.0532 52.5878C75.6843 53.0279 77.3154 53.798 77.3154 55.7783C77.3154 57.8686 75.4668 59.0788 72.7483 59.0788C69.8123 59.0788 67.9636 57.7586 67.9636 55.8883ZM15.8762 76.4614V62.1593C15.8762 62.0493 15.985 61.9392 16.0937 61.9392H18.5948C18.7035 61.9392 18.8123 62.0493 18.8123 62.1593V74.041C18.8123 74.1511 18.8123 74.1511 18.921 74.1511H25.7717C25.8805 74.1511 25.9892 74.2611 25.9892 74.3711V76.4614C25.9892 76.5714 25.8805 76.6814 25.7717 76.6814H16.0937C15.985 76.6814 15.8762 76.5714 15.8762 76.4614ZM27.7291 73.3809C27.5116 72.7208 27.4029 71.9507 27.4029 71.1806C27.4029 70.4105 27.5116 69.5304 27.7291 68.9803C28.3815 66.89 30.1214 65.6798 32.5137 65.6798C34.7973 65.6798 36.5372 67 37.1897 68.9803C37.4071 69.6404 37.5159 70.4105 37.5159 71.1806C37.5159 71.9507 37.4071 72.7208 37.1897 73.2709C36.5372 75.4713 34.7973 76.7915 32.5137 76.7915C30.1214 76.9015 28.2728 75.5813 27.7291 73.3809ZM34.3624 72.7208C34.4711 72.2808 34.5798 71.7307 34.5798 71.2906C34.5798 70.7406 34.4711 70.1905 34.3624 69.7504C34.0361 68.7603 33.3837 68.2102 32.5137 68.2102C31.5351 68.2102 30.8826 68.7603 30.6651 69.7504C30.4476 70.0805 30.4476 70.6305 30.4476 71.2906C30.4476 71.8407 30.4476 72.3908 30.5564 72.7208C30.8826 73.711 31.5351 74.2611 32.5137 74.2611C33.3837 74.3711 34.0361 73.711 34.3624 72.7208ZM41.5393 76.4614L38.1683 66.0098C38.0596 65.7898 38.1683 65.6798 38.3858 65.6798H41.1044C41.2131 65.6798 41.3218 65.7898 41.4306 65.8998L43.1705 72.2808C43.1705 72.3908 43.2792 72.3908 43.2792 72.2808L45.0191 65.8998C45.0191 65.7898 45.1278 65.6798 45.3453 65.6798H48.0639C48.2813 65.6798 48.3901 65.7898 48.2813 66.0098L44.9103 76.3514C44.9103 76.4614 44.8016 76.5714 44.5841 76.5714H41.8656C41.6481 76.6814 41.5393 76.6814 41.5393 76.4614ZM58.7206 71.9507C58.7206 72.1708 58.6118 72.1708 58.3943 72.1708H51.8698C51.7611 72.1708 51.7611 72.1708 51.7611 72.2808C51.7611 72.6108 51.8698 72.8309 51.9786 73.1609C52.3048 73.931 52.9572 74.3711 54.1534 74.3711C55.1321 74.3711 55.7845 73.931 56.3282 73.2709C56.437 73.1609 56.5457 73.0509 56.6545 73.2709L58.1769 74.8112C58.2856 74.9212 58.2856 75.0312 58.1769 75.1412C57.1982 76.3514 55.6758 77.0115 53.9359 77.0115C51.5436 77.0115 49.9125 75.8013 49.1513 73.821C48.825 73.0509 48.7163 72.2808 48.7163 71.1806C48.7163 70.4105 48.825 69.6404 49.0425 68.9803C49.695 67 51.3261 65.6798 53.6097 65.6798C56.437 65.6798 58.1769 67.5501 58.5031 70.1905C58.7206 70.7406 58.7206 71.2906 58.7206 71.9507ZM51.9786 69.4204C51.8698 69.6404 51.8698 69.8604 51.8698 70.0805C51.8698 70.1905 51.8698 70.1905 51.9786 70.1905H55.5671C55.6758 70.1905 55.6758 70.1905 55.6758 70.0805C55.6758 69.8604 55.5671 69.6404 55.5671 69.5304C55.3496 68.6502 54.6971 68.2102 53.7184 68.2102C52.7398 68.2102 52.196 68.6502 51.9786 69.4204ZM64.8101 71.8407V62.1593C64.8101 62.0493 64.9189 61.9392 65.0276 61.9392H67.5287C67.6374 61.9392 67.7462 62.0493 67.7462 62.1593V71.8407C67.7462 73.2709 68.7248 74.3711 70.2472 74.3711C71.7696 74.3711 72.7483 73.3809 72.7483 71.8407V62.1593C72.7483 62.0493 72.857 61.9392 72.9658 61.9392H75.4668C75.5756 61.9392 75.6843 62.0493 75.6843 62.1593V71.8407C75.6843 74.9212 73.5095 76.9015 70.2472 76.9015C66.985 76.9015 64.8101 74.8112 64.8101 71.8407ZM77.5329 73.711V73.491C77.5329 73.3809 77.6417 73.2709 77.7504 73.2709H80.034C80.1427 73.2709 80.2515 73.3809 80.2515 73.491C80.2515 74.1511 81.0127 74.5911 82.1001 74.5911C83.0788 74.5911 83.7312 74.1511 83.7312 73.601C83.7312 72.7208 82.1001 72.7208 80.5777 72.1708C79.1641 71.7307 77.6417 70.9606 77.6417 69.0903C77.6417 67 79.3815 65.6798 82.1001 65.6798C84.8186 65.6798 86.5585 67.11 86.5585 69.0903C86.5585 69.2003 86.4498 69.3103 86.341 69.3103H84.0575C83.9487 69.3103 83.84 69.2003 83.84 69.0903C83.84 68.4302 83.1875 67.9901 82.1001 67.9901C81.2302 67.9901 80.5777 68.3202 80.5777 68.9803C80.5777 69.8604 81.9914 69.8604 83.6225 70.4105C85.2536 70.8506 86.8848 71.6207 86.8848 73.601C86.8848 75.6913 85.0361 76.9015 82.3176 76.9015C79.3815 76.9015 77.5329 75.5813 77.5329 73.711Z" fill="#252530"/>
<path d="M20.9871 89.3334H42.7355V90.2135H20.9871V89.3334ZM59.9167 89.3334H81.6651V90.2135H59.9167V89.3334Z" fill="#DCDEDC"/>
<path d="M51.1087 84.7126L52.9304 87.6768L56.2797 88.5136L54.0562 91.1824L54.3046 94.6637L51.1087 93.3489L47.9129 94.6637L48.1613 91.1824L45.9377 88.5136L49.2871 87.6768L51.1087 84.7126Z" fill="#D9D9D9"/>
</svg>
