<svg width="90" height="40" viewBox="0 0 90 40" fill="none" xmlns="http://www.w3.org/2000/svg">
<path d="M40.1223 19.5857C40.5472 19.4968 40.5291 19.1608 40.6289 18.9363C41.3879 17.2263 42.3465 15.6548 43.8146 14.448C44.5993 13.8016 45.4672 13.3134 46.5286 13.2863C47.5401 13.2607 48.4624 13.8498 48.4337 15.0883C48.4065 16.2981 48.151 17.4643 47.8622 18.629C47.8319 18.751 47.77 18.858 47.9151 18.9981C48.3037 18.8474 48.343 18.4331 48.5048 18.1287C49.4437 16.3629 50.6064 14.799 52.4102 13.8152C52.758 13.6253 53.145 13.4882 53.5291 13.3903C55.2966 12.9413 56.3353 13.8242 56.1766 15.6367C56.0692 16.8586 55.8182 18.0564 55.5657 19.2557C55.3284 20.3797 55.0456 21.4977 54.9866 22.6487C54.964 23.0962 54.9262 23.607 55.3888 23.8631C55.8817 24.1358 56.358 23.9189 56.7935 23.6251C57.2758 23.2981 57.6538 22.8612 58.0726 22.4664C58.3417 22.2148 58.2419 21.915 58.2283 21.6227C58.1195 19.2422 58.6335 17.053 60.2635 15.2224C62.9578 12.1955 67.8264 12.7771 69.482 16.3117C70.1291 17.6933 70.2546 19.1518 70.0989 20.6358C69.8933 22.6126 69.1282 24.3317 67.651 25.7239C65.4284 27.8166 61.3627 27.8166 59.6057 25.3472C59.3351 24.9675 59.1688 25.1167 58.9148 25.3291C57.9199 26.1608 56.8917 26.9322 55.5551 27.1582C54.9277 27.2652 54.2987 27.2908 53.6788 27.2064C52.4314 27.0377 51.6346 26.1728 51.4017 24.85C51.1507 23.4292 51.5469 22.0717 51.7707 20.6946C51.878 20.0287 52.0005 19.3657 52.0972 18.6983C52.1396 18.409 52.2379 18.0429 51.8901 17.8997C51.5575 17.7626 51.3246 18.0625 51.1492 18.2915C50.7697 18.7872 50.3917 19.2919 50.0848 19.8313C49.1761 21.4253 48.5532 23.1354 48.1041 24.9103C47.9998 25.3201 47.8818 25.7299 47.7306 26.1261C47.4419 26.8855 46.8885 27.2486 46.0523 27.2591C45.2011 27.2697 44.6764 26.8523 44.3619 26.1291C43.8328 24.9087 43.9643 23.6296 44.0853 22.3595C44.2062 21.0909 44.3665 19.8268 44.495 18.5597C44.5222 18.2975 44.5797 17.9826 44.2365 17.8515C43.8887 17.7189 43.7617 18.0007 43.5908 18.2131C42.1545 20.0211 41.4892 22.1666 40.8572 24.3287C40.6818 24.9268 40.5502 25.5431 40.3189 26.1186C39.9727 26.9849 39.2681 27.2878 38.5227 27.2516C37.6971 27.2109 37.2587 26.7288 36.9638 26.0418C36.8776 25.8414 36.8156 25.6304 36.7249 25.3728C35.7573 26.1337 34.8198 26.8373 33.6269 27.0979C31.0898 27.6539 29.8424 26.7981 29.5128 24.2458C29.4886 24.0545 29.4372 23.8661 29.3767 23.5708C29.0803 24.2066 28.8762 24.7626 28.5769 25.2643C27.9917 26.2452 27.2161 27.0573 26.0186 27.217C24.7697 27.3842 23.9048 26.7439 23.3363 25.6817C23.1715 25.3743 23.0823 25.198 22.7028 25.5069C20.2564 27.5032 17.4729 27.5846 14.5759 26.8117C12.6315 26.2934 10.8383 25.3638 8.94831 24.6933C8.41458 24.505 8.13788 24.5893 7.80374 25.07C6.40969 27.0753 4.23092 27.6479 1.97051 26.9744C0.945386 26.6685 0.193931 26.0146 0.0306369 24.8997C-0.125097 23.8375 0.322449 23.0028 1.15555 22.3565C2.14439 21.5896 3.28745 21.2295 4.52425 21.2521C5.27268 21.2656 5.5403 21.0788 5.59473 20.2637C5.81397 16.9746 5.79129 13.6615 6.32048 10.4011C7.34712 4.07607 13.0518 1.06123 18.7021 2.25752C21.7094 2.89484 23.2607 5.32962 23.105 8.40623C23.0657 9.18367 22.9387 9.94604 22.5879 10.6557C22.2764 11.2855 21.8243 11.7405 21.1122 11.9213C19.6773 12.2859 18.7097 11.4391 18.9153 9.9822C19.0226 9.21682 19.2071 8.46047 19.1451 7.677C19.0499 6.4777 18.3135 5.55411 17.1387 5.37331C15.0915 5.05691 13.2348 5.53603 11.9314 7.19788C11.0802 8.28268 10.6825 9.6432 10.5132 11.0128C10.1775 13.7398 9.90842 16.4744 9.60451 19.2045C9.53798 19.7996 9.46238 20.3963 9.33689 20.9809C9.2507 21.3786 9.33084 21.57 9.75117 21.6604C12.2021 22.1862 14.6394 22.7859 17.1024 23.2484C18.8851 23.5829 20.6012 23.2876 22.1207 22.2013C22.5289 21.909 22.7542 21.5911 22.7799 21.0411C22.8737 18.9845 23.3136 16.9837 23.9683 15.0325C24.4325 13.6494 25.4576 13.0558 26.897 13.3165C27.5472 13.434 27.7695 13.8227 27.6334 14.4585C27.2917 16.0706 26.8245 17.6557 26.5841 19.2889C26.445 20.2275 26.2575 21.1617 26.2998 22.1169C26.3134 22.4363 26.3134 22.7934 26.6914 22.9425C27.0981 23.1038 27.3658 22.8295 27.6062 22.5809C28.2412 21.924 28.6661 21.1285 29.0471 20.3104C29.8394 18.6064 30.423 16.83 30.9174 15.019C31.2818 13.6826 31.882 13.2562 33.2595 13.2939C34.2105 13.321 34.4963 13.6103 34.3224 14.5579C33.9882 16.375 33.5876 18.18 33.2262 19.9925C33.0417 20.9221 32.8089 21.8502 32.8044 22.8039C32.7998 23.949 33.4787 24.3257 34.4615 23.72C35.2175 23.2544 35.789 22.5794 36.3726 21.924C36.5616 21.7131 36.5344 21.46 36.5465 21.2144C36.6448 19.1849 36.9532 17.1901 37.5444 15.242C37.9799 13.8076 38.7374 13.2637 40.2615 13.2878C41.1989 13.3029 41.4529 13.5801 41.2594 14.4901C40.9691 15.8582 40.6334 17.2157 40.3219 18.5792C40.2494 18.9002 40.1964 19.2241 40.1269 19.5842L40.1223 19.5857ZM61.9493 20.6223C61.9418 21.4494 61.9705 22.2736 62.3908 23.0209C63.1347 24.3407 64.559 24.4643 65.4662 23.2529C66.7347 21.5609 66.6803 19.6821 66.0997 17.7747C65.9818 17.386 65.7111 17.0274 65.3437 16.7788C64.4229 16.1565 63.2859 16.4805 62.6101 17.5924C62.0446 18.522 61.9493 19.5646 61.9478 20.6223H61.9493Z" fill="black"/>
<path d="M78.5073 13.0231C78.7084 13.0231 78.9125 13.002 79.1105 13.0261C79.8363 13.1165 80.0238 13.3892 79.7909 14.0868C79.6413 14.5343 79.4341 14.9637 79.2391 15.3961C78.7779 16.4221 78.852 17.3698 79.5778 18.2693C80.3156 19.1854 81.0308 20.118 81.6038 21.1516C82.5216 22.8119 82.2267 24.406 81.2666 25.8976C80.3398 27.3364 78.9397 27.9572 77.2115 27.8653C76.2665 27.8156 75.4304 27.5594 74.8377 26.785C73.9139 25.5766 74.5474 24.0398 76.0518 23.7686C76.6642 23.6587 77.2538 23.7988 77.8511 23.8455C78.2381 23.8771 78.3576 23.7521 78.2926 23.392C78.0627 22.1354 77.3294 21.1501 76.4963 20.2446C76.135 19.8513 76.0654 20.3907 75.9671 20.567C75.0675 22.1731 73.9486 23.6089 72.6453 24.9062C71.915 25.6324 71.1651 25.7996 70.6616 25.3612C70.1097 24.8806 70.1505 23.9856 70.8204 23.2097C72.9462 20.7463 74.6124 18.0192 75.7766 14.9788C76.3769 13.4103 77.027 13.002 78.5058 13.0216L78.5073 13.0231Z" fill="black"/>
<path d="M89.5584 24.3033C89.5524 26.1354 88.4789 27.2127 86.672 27.2051C85.0391 27.1976 84.0881 26.2469 84.1077 24.6408C84.1304 22.8343 85.2054 21.7917 87.0546 21.7826C88.6527 21.7751 89.5645 22.6927 89.5584 24.3033V24.3033Z" fill="black"/>
<path d="M55.0413 29.8018H52.6402L49.6616 37.8233H52.0763L52.4195 36.7581H55.0639L55.3663 37.8233H57.97L55.0413 29.8018ZM53.0046 34.944L53.8271 32.3933L54.5499 34.944H53.0046V34.944Z" fill="black"/>
<path d="M72.4062 29.8018V37.8233H74.8133V35.4412H76.6685C78.2319 35.4412 79.4974 34.1787 79.4974 32.6223C79.4974 31.0644 78.2304 29.8018 76.6685 29.8018H72.4062ZM76.2074 33.5007H74.8118V31.7424H76.2074C76.6942 31.7424 77.0889 32.1356 77.0889 32.6208C77.0889 33.1059 76.6942 33.4991 76.2074 33.4991V33.5007Z" fill="black"/>
<path d="M61.5078 29.8018V37.8233H63.9149V35.4412H65.7701C67.3335 35.4412 68.599 34.1787 68.599 32.6223C68.599 31.0644 67.332 29.8018 65.7701 29.8018H61.5078ZM65.3089 33.5007H63.9134V31.7424H65.3089C65.7958 31.7424 66.1904 32.1356 66.1904 32.6208C66.1904 33.1059 65.7958 33.4991 65.3089 33.4991V33.5007Z" fill="black"/>
<path d="M89.6762 32.2521C89.6762 32.2521 89.7351 29.5612 86.4602 29.6199C83.1852 29.6787 83.1701 32.2521 83.1701 32.2521C83.1701 32.2521 82.904 34.3177 86.1941 34.6627C86.1941 34.6627 87.6108 34.7366 87.6108 35.5893C87.6108 36.4421 85.3685 36.751 85.2642 35.2067H82.8299C82.8299 35.2067 82.6817 38 86.4148 38C90.1479 38 89.9997 35.5005 89.9997 35.2353C89.9997 34.9701 89.9997 33.1606 86.7701 32.8472C84.4462 32.6212 85.4396 31.1643 86.5645 31.333C87.1769 31.4249 87.4626 31.7669 87.4626 32.2069L89.6762 32.2506V32.2521Z" fill="black"/>
</svg>
