<svg width="16" height="17" viewBox="0 0 16 17" fill="none" xmlns="http://www.w3.org/2000/svg">
<g clip-path="url(#clip0_211_15917)">
<path fill-rule="evenodd" clip-rule="evenodd" d="M15 2.5L13 2.5L13 0.500002L10 0.500004L10 2.5L6 2.5L6 0.500003L3 0.500003L3 2.5L1 2.5C0.448 2.5 -4.28022e-07 2.948 -5.24537e-07 3.5L0 15.5C0 16.052 0.448 16.5 1 16.5L15 16.5C15.552 16.5 16 16.052 16 15.5L16 3.5C16 2.948 15.552 2.5 15 2.5ZM14 14.5L2 14.5L2 5.5L14 5.5L14 14.5ZM6 7.5L4 7.5L4 9.5L6 9.5L6 7.5ZM7 7.5L9 7.5L9 9.5L7 9.5L7 7.5ZM6 10.5L4 10.5L4 12.5L6 12.5L6 10.5ZM7 10.5L9 10.5L9 12.5L7 12.5L7 10.5ZM12 7.5L10 7.5L10 9.5L12 9.5L12 7.5ZM10 10.5L12 10.5L12 12.5L10 12.5L10 10.5Z" fill="#E00000"/>
</g>
<defs>
<clipPath id="clip0_211_15917">
<rect width="16" height="16" fill="white" transform="translate(0 0.5)"/>
</clipPath>
</defs>
</svg>
