<svg width="16" height="16" viewBox="0 0 16 16" fill="none" xmlns="http://www.w3.org/2000/svg">
<rect width="16" height="16" rx="8" fill="white"/>
<path d="M12.3375 4.48047L8.10552 9.52367L7.04632 8.80847L9.76632 5.56207V4.48047H8.26392L5.50392 7.76847L4.46552 7.06927L5.72952 5.56207V4.48047H4.22552L1.91992 7.23087V8.86607L8.83832 13.5269L13.8335 7.56047L13.8511 7.53807V4.48047H12.3375ZM13.6911 7.48687L8.80312 13.3205L2.08312 8.78767V7.41007L8.60632 11.8101L13.6911 5.74447V7.48687ZM2.11832 7.24047L4.30072 4.64047H5.56952V5.50447L4.23032 7.10447L5.53432 7.98607L8.33912 4.64047H9.61912V5.50447L6.80952 8.84047L8.13592 9.73487L12.4111 4.64047H13.6911V5.49487L8.57112 11.5973L2.11832 7.24047Z" fill="#ED2F26"/>
<path d="M12.3375 4.48047V4.12047H12.1697L12.0618 4.24906L12.3375 4.48047ZM8.10552 9.52367L7.90406 9.82202L8.17283 10.0035L8.38129 9.75508L8.10552 9.52367ZM7.04632 8.80847L6.77038 8.57727L6.51392 8.88336L6.84486 9.10682L7.04632 8.80847ZM9.76632 5.56207L10.0423 5.79327L10.1263 5.69295V5.56207H9.76632ZM9.76632 4.48047H10.1263V4.12047H9.76632V4.48047ZM8.26392 4.48047V4.12047H8.09609L7.98819 4.24901L8.26392 4.48047ZM5.50392 7.76847L5.30285 8.06708L5.57146 8.24795L5.77965 7.99992L5.50392 7.76847ZM4.46552 7.06927L4.18968 6.83794L3.93263 7.14445L4.26445 7.36788L4.46552 7.06927ZM5.72952 5.56207L6.00536 5.7934L6.08952 5.69304V5.56207H5.72952ZM5.72952 4.48047H6.08952V4.12047H5.72952V4.48047ZM4.22552 4.48047V4.12047H4.05755L3.94963 4.2492L4.22552 4.48047ZM1.91992 7.23087L1.64403 6.9996L1.55992 7.23087H1.91992ZM1.91992 8.86607H1.55992V9.05762L1.71878 9.16464L1.91992 8.86607ZM8.83832 13.5269L8.63718 13.8254L8.90616 14.0066L9.11435 13.758L8.83832 13.5269ZM13.8335 7.56047L14.1097 7.79168L14.1166 7.78289L13.8335 7.56047ZM13.8511 7.53807L14.1342 7.76049L14.2111 7.66258V7.53807H13.8511ZM13.8511 4.48047H14.2111V4.12047H13.8511V4.48047ZM13.6911 7.48687L13.9671 7.71808L14.0511 7.61776V7.48687H13.6911ZM8.80312 13.3205L8.60181 13.6189L8.87073 13.8003L9.07906 13.5517L8.80312 13.3205ZM2.08312 8.78767H1.72312V8.97908L1.88181 9.08612L2.08312 8.78767ZM2.08312 7.41007L2.28443 7.11162L1.72312 7.41007H2.08312ZM8.60632 11.8101L8.40501 12.1085L8.67387 12.2899L8.88221 12.0413L8.60632 11.8101ZM13.6911 5.74447H14.0511V4.75466L13.4152 5.51319L13.6911 5.74447ZM2.11832 7.24047L1.84258 7.00902L1.91687 7.53883L2.11832 7.24047ZM4.30072 4.64047V4.28047H4.13289L4.02498 4.40902L4.30072 4.64047ZM5.56952 4.64047H5.92952V4.28047H5.56952V4.64047ZM5.56952 5.50447L5.84558 5.73553L5.92952 5.63525V5.50447H5.56952ZM4.23032 7.10447L3.95426 6.87341L3.69823 7.17929L4.02869 7.40271L4.23032 7.10447ZM5.53432 7.98607L5.33269 8.28431L5.60163 8.46613L5.8102 8.21735L5.53432 7.98607ZM8.33912 4.64047V4.28047H8.17115L8.06324 4.40919L8.33912 4.64047ZM9.61912 4.64047H9.97912V4.28047H9.61912V4.64047ZM9.61912 5.50447L9.89448 5.73637L9.97912 5.63587V5.50447H9.61912ZM6.80952 8.84047L6.53417 8.60856L6.2761 8.91498L6.60825 9.13895L6.80952 8.84047ZM8.13592 9.73487L7.93465 10.0334L8.20335 10.2145L8.41168 9.96629L8.13592 9.73487ZM12.4111 4.64047V4.28047L12.1354 4.40905L12.4111 4.64047ZM13.6911 4.64047H14.0511C14.0511 4.44165 13.8899 4.28047 13.6911 4.28047V4.64047ZM13.6911 5.49487L13.9669 5.72626L14.0511 5.62589V5.49487H13.6911ZM8.57112 11.5973L8.36967 11.8956L8.63846 12.0771L8.84691 11.8287L8.57112 11.5973ZM12.0618 4.24906L7.82975 9.29226L8.38129 9.75508L12.6133 4.71188L12.0618 4.24906ZM8.30698 9.22532L7.24778 8.51011L6.84486 9.10682L7.90406 9.82202L8.30698 9.22532ZM7.32227 9.03967L10.0423 5.79327L9.49038 5.33087L6.77038 8.57727L7.32227 9.03967ZM10.1263 5.56207V4.48047H9.40632V5.56207H10.1263ZM9.76632 4.12047H8.26392V4.84047H9.76632V4.12047ZM7.98819 4.24901L5.22819 7.53701L5.77965 7.99992L8.53965 4.71192L7.98819 4.24901ZM5.70499 7.46985L4.66659 6.77065L4.26445 7.36788L5.30285 8.06708L5.70499 7.46985ZM4.74136 7.3006L6.00536 5.7934L5.45368 5.33074L4.18968 6.83794L4.74136 7.3006ZM6.08952 5.56207V4.48047H5.36952V5.56207H6.08952ZM5.72952 4.12047H4.22552V4.84047H5.72952V4.12047ZM1.55992 7.23087V8.86607H2.27992V7.23087H1.55992ZM1.71878 9.16464L8.63718 13.8254L9.03946 13.2283L2.12106 8.5675L1.71878 9.16464ZM9.11435 13.758L14.1096 7.79157L13.5575 7.32937L8.56229 13.2958L9.11435 13.758ZM14.1166 7.78289L14.1342 7.76049L13.568 7.31565L13.5504 7.33805L14.1166 7.78289ZM14.2111 7.53807V4.48047H13.4911V7.53807H14.2111ZM13.8511 4.12047H12.3375V4.84047H13.8511V4.12047ZM13.4152 7.25566L8.52718 13.0893L9.07906 13.5517L13.9671 7.71808L13.4152 7.25566ZM9.00443 13.022L2.28443 8.48922L1.88181 9.08612L8.60181 13.6189L9.00443 13.022ZM2.44312 8.78767V7.41007H1.72312V8.78767H2.44312ZM1.88181 7.70852L8.40501 12.1085L8.80763 11.5116L2.28443 7.11162L1.88181 7.70852ZM8.88221 12.0413L13.967 5.97574L13.4152 5.51319L8.33044 11.5788L8.88221 12.0413ZM13.3311 5.74447V7.48687H14.0511V5.74447H13.3311ZM2.39406 7.47192L4.57646 4.87192L4.02498 4.40902L1.84258 7.00902L2.39406 7.47192ZM4.30072 5.00047H5.56952V4.28047H4.30072V5.00047ZM5.20952 4.64047V5.50447H5.92952V4.64047H5.20952ZM5.29346 5.27341L3.95426 6.87341L4.50638 7.33553L5.84558 5.73553L5.29346 5.27341ZM4.02869 7.40271L5.33269 8.28431L5.73595 7.68783L4.43195 6.80623L4.02869 7.40271ZM5.8102 8.21735L8.615 4.87175L8.06324 4.40919L5.25844 7.75479L5.8102 8.21735ZM8.33912 5.00047H9.61912V4.28047H8.33912V5.00047ZM9.25912 4.64047V5.50447H9.97912V4.64047H9.25912ZM9.34377 5.27256L6.53417 8.60856L7.08488 9.07237L9.89448 5.73637L9.34377 5.27256ZM6.60825 9.13895L7.93465 10.0334L8.33719 9.43639L7.01079 8.54199L6.60825 9.13895ZM8.41168 9.96629L12.6869 4.87189L12.1354 4.40905L7.86016 9.50345L8.41168 9.96629ZM12.4111 5.00047H13.6911V4.28047H12.4111V5.00047ZM13.3311 4.64047V5.49487H14.0511V4.64047H13.3311ZM13.4153 5.26348L8.29533 11.3659L8.84691 11.8287L13.9669 5.72626L13.4153 5.26348ZM8.77257 11.2989L2.31977 6.94211L1.91687 7.53883L8.36967 11.8956L8.77257 11.2989ZM3.94963 4.2492L1.64403 6.9996L2.19581 7.46214L4.50141 4.71174L3.94963 4.2492Z" fill="#ED2F26"/>
</svg>
