<svg width="24" height="25" viewBox="0 0 24 25" fill="none" xmlns="http://www.w3.org/2000/svg">
<path d="M22 19.0215C22 19.1528 21.9742 19.2829 21.9239 19.4042C21.8737 19.5256 21.8 19.6358 21.7072 19.7287C21.6143 19.8215 21.5041 19.8952 21.3827 19.9454C21.2614 19.9957 21.1313 20.0215 21 20.0215H11.8157C11.612 20.6058 11.2314 21.1123 10.7269 21.4707C10.2224 21.829 9.61888 22.0216 9.00003 22.0216C8.38118 22.0216 7.77767 21.829 7.27315 21.4707C6.76863 21.1123 6.3881 20.6058 6.18433 20.0215H3C2.73478 20.0215 2.48043 19.9161 2.29289 19.7286C2.10536 19.5411 2 19.2867 2 19.0215C2 18.7563 2.10536 18.5019 2.29289 18.3144C2.48043 18.1268 2.73478 18.0215 3 18.0215H6.18427C6.38807 17.4372 6.76861 16.9307 7.27313 16.5724C7.77765 16.214 8.38116 16.0215 9 16.0215C9.61884 16.0215 10.2224 16.214 10.7269 16.5724C11.2314 16.9307 11.6119 17.4372 11.8157 18.0215H21C21.1313 18.0215 21.2614 18.0473 21.3827 18.0975C21.5041 18.1478 21.6143 18.2214 21.7072 18.3143C21.8 18.4072 21.8737 18.5174 21.9239 18.6388C21.9742 18.7601 22 18.8902 22 19.0215ZM21 11.0215H18.8157C18.6119 10.4372 18.2314 9.93073 17.7269 9.57237C17.2224 9.21401 16.6188 9.02148 16 9.02148C15.3812 9.02148 14.7776 9.21401 14.2731 9.57237C13.7686 9.93073 13.3881 10.4372 13.1843 11.0215H3C2.73478 11.0215 2.48043 11.1268 2.29289 11.3144C2.10536 11.5019 2 11.7563 2 12.0215C2 12.2867 2.10536 12.5411 2.29289 12.7286C2.48043 12.9161 2.73478 13.0215 3 13.0215H13.1843C13.3881 13.6058 13.7686 14.1123 14.2731 14.4707C14.7777 14.829 15.3812 15.0216 16 15.0216C16.6189 15.0216 17.2224 14.829 17.7269 14.4707C18.2314 14.1123 18.612 13.6058 18.8157 13.0215H21C21.2652 13.0215 21.5196 12.9161 21.7071 12.7286C21.8946 12.5411 22 12.2867 22 12.0215C22 11.7563 21.8946 11.5019 21.7071 11.3144C21.5196 11.1268 21.2652 11.0215 21 11.0215ZM3 6.02149H8.18433C8.3881 6.60583 8.76863 7.11229 9.27315 7.47067C9.77767 7.82904 10.3812 8.02158 11 8.02158C11.6189 8.02158 12.2224 7.82904 12.7269 7.47067C13.2314 7.11229 13.612 6.60583 13.8157 6.02149H21C21.2652 6.02149 21.5196 5.91614 21.7071 5.7286C21.8946 5.54106 22 5.28671 22 5.02149C22 4.75628 21.8946 4.50192 21.7071 4.31439C21.5196 4.12685 21.2652 4.02149 21 4.02149H13.8157C13.6119 3.43717 13.2314 2.93073 12.7269 2.57237C12.2224 2.21401 11.6188 2.02148 11 2.02148C10.3812 2.02148 9.77765 2.21401 9.27313 2.57237C8.76861 2.93073 8.38807 3.43717 8.18427 4.02149H3C2.73478 4.02149 2.48043 4.12685 2.29289 4.31439C2.10536 4.50192 2 4.75628 2 5.02149C2 5.28671 2.10536 5.54106 2.29289 5.7286C2.48043 5.91614 2.73478 6.02149 3 6.02149Z" fill="#E00000"/>
</svg>
