<svg width="12" height="13" viewBox="0 0 12 13" fill="none" xmlns="http://www.w3.org/2000/svg">
<path d="M8.25016 12.4999L9.75016 12.4999C10.2002 12.4999 10.5002 12.1999 10.5002 11.7499L10.5002 6.4999L11.2502 6.4999C11.4752 6.4999 11.7002 6.4249 11.8502 6.2749C12.1502 5.9749 12.0752 5.5249 11.7752 5.2249L6.52516 0.724903C6.22516 0.499903 5.85016 0.499903 5.55016 0.724903L0.300159 5.2249C0.000158637 5.5249 -0.0748414 5.9749 0.225159 6.2749C0.300159 6.4249 0.525159 6.4999 0.750159 6.4999C0.900159 6.4999 1.50016 6.4999 1.50016 6.4999L1.50016 11.7499C1.50016 12.1999 1.80016 12.4999 2.25016 12.4999L3.75016 12.4999C4.20016 12.4999 4.50016 12.1999 4.50016 11.7499L4.50016 9.4999L7.50016 9.4999L7.50016 11.7499C7.50016 12.1999 7.80016 12.4999 8.25016 12.4999Z" fill="#727988"/>
</svg>
