<svg width="16" height="17" viewBox="0 0 16 17" fill="none" xmlns="http://www.w3.org/2000/svg">
<g clip-path="url(#clip0_211_15922)">
<path d="M15.2705 12.9754L12.5703 10.7698C14.1388 8.16791 13.8093 4.7314 11.5666 2.48419C8.92754 -0.154885 4.62619 -0.154885 1.98712 2.48419C-0.651956 5.12897 -0.651956 9.42461 1.98712 12.0637C3.30665 13.3832 5.04319 14.0458 6.77972 14.0458C7.99072 14.0458 9.20116 13.714 10.2728 13.0673L12.4783 15.7675C12.8524 16.2268 13.422 16.4964 14.0143 16.4964C14.5387 16.4964 15.0454 16.2879 15.4178 15.9149C15.8137 15.519 16.0245 14.9712 15.9965 14.412C15.9685 13.8533 15.7034 13.3295 15.2705 12.9754ZM3.40376 10.6527C1.54156 8.79054 1.54156 5.76303 3.40376 3.90083C4.3063 2.99829 5.50017 2.50132 6.77972 2.50132C8.05356 2.50132 9.25314 2.99829 10.1557 3.90083C12.0122 5.76303 12.0122 8.79054 10.15 10.6527C9.25314 11.5496 8.05356 12.0465 6.77972 12.0465C5.50017 12.0465 4.3063 11.5496 3.40376 10.6527Z" fill="#E00000"/>
<path d="M9.03153 5.76407C8.74935 5.62298 8.40604 5.73723 8.26494 6.01941L7.77655 6.99678L7.28815 6.01941C7.07393 5.61556 6.48043 5.61556 6.26622 6.01941L5.77782 6.99678L5.28942 6.01941C5.14833 5.73723 4.80559 5.62298 4.52283 5.76407C4.24064 5.90517 4.1264 6.24848 4.26749 6.53066L5.26714 8.52996C5.36368 8.72361 5.56189 8.84585 5.77839 8.84585C5.99489 8.84585 6.19253 8.72361 6.28964 8.52996L6.77804 7.55259L7.26644 8.52996C7.36298 8.72361 7.56119 8.84585 7.77769 8.84585C7.99418 8.84585 8.19183 8.72361 8.28894 8.52996L9.28858 6.53066C9.42796 6.24848 9.31372 5.90517 9.03153 5.76407Z" fill="#E00000"/>
</g>
<defs>
<clipPath id="clip0_211_15922">
<rect width="16" height="16" fill="white" transform="translate(0 0.5)"/>
</clipPath>
</defs>
</svg>
